<?xml version="1.0" encoding="UTF-8"?>
<svg version="1.1" xmlns="http://www.w3.org/2000/svg" width="512" height="512">
<path d="M0 0 C1.47919922 0.32145996 1.47919922 0.32145996 2.98828125 0.64941406 C38.62526119 8.67123753 71.46457447 24.20922679 100 47 C100.54108398 47.42539063 101.08216797 47.85078125 101.63964844 48.2890625 C117.19652139 60.58759724 131.32153702 74.98210814 143 91 C143.7115625 91.93972656 144.423125 92.87945312 145.15625 93.84765625 C169.85864087 126.86335174 184.65301938 166.28623632 190 207 C190.103125 207.75095947 190.20625 208.50191895 190.3125 209.27563477 C191.34189642 217.87017577 191.24379293 226.54389146 191.25 235.1875 C191.25067474 236.03248047 191.25134949 236.87746094 191.25204468 237.74804688 C191.22188342 261.57938847 188.25172602 285.04475253 180.47070312 307.68237305 C179.34612007 313.21954468 182.20218991 317.52441061 184.75 322.25 C197.59949716 347.10597984 199.24217177 375.89049683 191.23071289 402.58422852 C182.50305379 429.66677394 163.45407772 451.95737803 138.41796875 465.2890625 C114.42867166 477.29741922 84.83629249 480.68816397 58.98779297 472.66357422 C44.55629852 467.84598617 44.55629852 467.84598617 39.58203125 464.25390625 C33.04100203 461.07740038 24.43478158 465.27590411 17.9375 467.3125 C0.27459676 472.66522713 -18.06392428 476.06963089 -36.5546875 476.23828125 C-37.44584259 476.24802979 -38.33699768 476.25777832 -39.25515747 476.26782227 C-59.18761858 476.44092411 -78.42028315 476.17458224 -98 472 C-98.88365234 471.81808105 -99.76730469 471.63616211 -100.67773438 471.44873047 C-137.25723645 463.72562428 -172.38007778 447.08261748 -201 423 C-202.16921328 422.03508651 -203.33848532 421.07024421 -204.5078125 420.10546875 C-216.50637934 410.10611412 -227.40073921 399.34437314 -237 387 C-237.79921875 386.00613281 -238.5984375 385.01226562 -239.421875 383.98828125 C-278.4086679 335.1159049 -295.53140061 270.59104708 -288.74609375 208.75 C-285.5134559 182.48991804 -278.76033161 156.75271006 -267 133 C-266.57235352 132.11779785 -266.14470703 131.2355957 -265.70410156 130.32666016 C-256.16522143 110.76084851 -244.49689208 93.2275288 -230 77 C-229.22011719 76.11054687 -228.44023437 75.22109375 -227.63671875 74.3046875 C-219.39448441 64.99480622 -210.72819074 56.74369534 -201 49 C-200.20980469 48.34257813 -199.41960937 47.68515625 -198.60546875 47.0078125 C-168.26833483 21.95326409 -131.24743515 6.85461152 -93 -1 C-92.16404297 -1.17934082 -91.32808594 -1.35868164 -90.46679688 -1.54345703 C-61.87628739 -7.42870704 -28.40548489 -6.21251783 0 0 Z M-167 65 C-167.96035156 65.68578125 -168.92070312 66.3715625 -169.91015625 67.078125 C-185.6502085 78.60838726 -200.02849633 91.53680776 -212 107 C-212.42925781 107.55284668 -212.85851562 108.10569336 -213.30078125 108.67529297 C-247.05543422 152.46149806 -262.00796363 207.12728717 -255.48095703 262.00024414 C-250.02601279 303.0810977 -232.48790802 346.89193264 -202 376 C-201.34 376 -200.68 376 -200 376 C-198.52198889 373.95902172 -198.52198889 373.95902172 -197 371.3125 C-186.92196968 355.09641005 -174.22714053 340.5438187 -159 329 C-157.95220387 328.15609031 -156.90537175 327.31098268 -155.859375 326.46484375 C-118.79124596 297.15702086 -71.19859823 287.63426051 -25.06933594 292.61132812 C-14.83578373 293.90720906 -4.63384868 296.10550238 5.08984375 299.58203125 C7.55011754 300.12037337 8.67381679 300.00327749 11 299 C12.66761693 297.41849065 14.26283623 295.75975079 15.8125 294.0625 C28.9435029 280.35628548 46.7458362 271.62160127 65 267 C65.86882812 266.77441406 66.73765625 266.54882812 67.6328125 266.31640625 C94.71015091 260.59306213 123.64776497 266.6510363 147 281 C148.07701172 281.82951172 148.07701172 281.82951172 149.17578125 282.67578125 C150.8940567 284.19581674 150.8940567 284.19581674 153 284 C153.65111597 280.52180095 154.29490749 277.04228298 154.9375 273.5625 C155.11990234 272.58861328 155.30230469 271.61472656 155.49023438 270.61132812 C161.56286771 237.59828511 158.73369551 202.74133372 148 171 C147.71141113 170.14245117 147.42282227 169.28490234 147.12548828 168.40136719 C136.93306116 138.73363177 120.49825491 113.66499437 99 91 C98.2881958 90.24517334 98.2881958 90.24517334 97.56201172 89.47509766 C89.97813679 81.48517317 81.88983644 74.50166766 73 68 C72.44570313 67.59072266 71.89140625 67.18144531 71.3203125 66.75976562 C42.49006866 45.7461724 6.61659458 31.93400518 -29 29 C-29.72944824 28.93441895 -30.45889648 28.86883789 -31.21044922 28.80126953 C-78.52572643 24.75233241 -128.22848501 37.25228608 -167 65 Z M41 315 C39.76830078 316.09248047 39.76830078 316.09248047 38.51171875 317.20703125 C24.67243709 330.20629581 16.9540227 347.63342002 15.78125 366.5234375 C15.25202327 387.91301793 22.84683308 406.9683271 37.41796875 422.58203125 C51.5461101 435.81246921 70.49112765 444.21703319 90 444 C109.91472274 442.69641795 126.65342814 436.14307439 141 422 C141.62390625 421.44828125 142.2478125 420.8965625 142.890625 420.328125 C155.95403909 408.44159506 161.79127382 390.52629853 163.21875 373.37109375 C163.89307925 354.51797175 157.01504134 335.92692854 144.625 321.8125 C131.31867747 307.64270562 114.67518865 297.66521969 94.8203125 296.76171875 C74.58887528 296.28078809 56.38652813 301.18295379 41 315 Z M-143 358 C-143.91652344 358.763125 -144.83304688 359.52625 -145.77734375 360.3125 C-151.95401753 365.64214147 -157.02445588 371.55183424 -162 378 C-162.78761719 378.99515625 -163.57523438 379.9903125 -164.38671875 381.015625 C-169.06560542 387.04790864 -172.92108656 393.00668907 -176 400 C-163.63888689 410.36960044 -149.57226783 418.20838305 -135 425 C-133.86175781 425.53367187 -132.72351563 426.06734375 -131.55078125 426.6171875 C-90.99408331 444.79940052 -37.46777255 451.8754291 5 436 C3.44152612 432.82281089 1.71344925 429.77769253 -0.07177734 426.72192383 C-15.12835802 400.72389507 -20.03481893 372.3673521 -13 343 C-12.02728437 339.67742654 -10.97297212 336.43273381 -9.76953125 333.1875 C-8.8893831 331.0720407 -8.8893831 331.0720407 -9 329 C-17.75731368 326.48043768 -26.35608523 324.63561711 -35.4375 323.75 C-36.25250977 323.67023926 -37.06751953 323.59047852 -37.90722656 323.50830078 C-76.22793057 320.13439577 -113.86151276 333.33094371 -143 358 Z " fill="#000000" transform="translate(303,20)"/>
<path d="M0 0 C0.7425 0.60070312 1.485 1.20140625 2.25 1.8203125 C19.32609832 15.99110242 30.64558034 38.58634089 33.71875 60.453125 C35.86130053 87.47306774 30.87098975 114.17883794 13.625 135.8125 C12.10629178 137.56186526 10.56457136 139.29152994 9 141 C8.22914063 141.85207031 7.45828125 142.70414063 6.6640625 143.58203125 C-9.88205674 161.01168113 -33.76692546 172.46851321 -57.93359375 173.203125 C-86.89032333 173.61821875 -112.11871138 165.65526366 -133.41308594 145.55566406 C-152.1932506 127.14532418 -162.43301596 101.871379 -163.03125 75.734375 C-163.1203156 48.45803602 -152.52443296 23.98614383 -133.75 4.3125 C-97.44725455 -30.73148174 -38.14622814 -33.92289574 0 0 Z M-111.2734375 29.1484375 C-123.63204361 42.07362727 -129.81898107 58.20765826 -130.05419922 75.95166016 C-129.65980569 90.8568929 -124.06288003 104.33026909 -115 116 C-114.53980469 116.62519531 -114.07960938 117.25039062 -113.60546875 117.89453125 C-103.95031848 130.22084701 -88.17634724 137.55512306 -73 140 C-56.22515166 141.8730731 -38.96344792 138.12739626 -25.40576172 127.78369141 C-12.3295581 117.1780148 -1.92004473 102.77059672 0.75 85.8046875 C2.55497764 65.55509458 -1.58634036 48.68629518 -14.1875 32.25 C-26.00809278 18.48272216 -41.97130794 10.91244043 -59.875 9.1875 C-79.47768045 8.15916266 -97.33996736 15.51254434 -111.2734375 29.1484375 Z " fill="#000000" transform="translate(318,110)"/>
<path d="M0 0 C4.13795637 1.7089978 6.38715638 4.13015744 8.9375 7.75 C10.83793343 13.56309049 10.87090453 17.90566498 8.5090332 23.58544922 C5.7412767 28.99007371 1.63940722 32.93476803 -2.640625 37.171875 C-3.48163757 38.01671448 -4.32265015 38.86155396 -5.18914795 39.73199463 C-6.96281968 41.50837783 -8.74151083 43.27976186 -10.52490234 45.04638672 C-13.24140517 47.74147293 -15.93591152 50.45722789 -18.62890625 53.17578125 C-20.36069816 54.90492975 -22.09373057 56.63283693 -23.828125 58.359375 C-24.62736389 59.16671082 -25.42660278 59.97404663 -26.25006104 60.80584717 C-31.70512787 66.17127305 -36.70811927 70.47292693 -44.5625 71.4375 C-52.18694094 70.46711661 -56.54579331 67.04604455 -61.73828125 61.72265625 C-62.34512253 61.11489853 -62.95196381 60.50714081 -63.57719421 59.88096619 C-64.84993546 58.60221472 -66.11784497 57.3186377 -67.38110352 56.03051758 C-69.3135984 54.06138077 -71.26175218 52.10885102 -73.21289062 50.15820312 C-74.45147054 48.90979568 -75.68913331 47.6604775 -76.92578125 46.41015625 C-77.79605705 45.53654198 -77.79605705 45.53654198 -78.68391418 44.64527893 C-83.05329825 40.17223495 -85.28479086 37.06593244 -85.375 30.625 C-85.27484058 25.61035171 -84.44257804 22.81474864 -81 19 C-76.25478554 14.7177333 -72.58325756 13.60122089 -66.3203125 13.7421875 C-57.65649236 14.70483418 -51.67214105 23.05091897 -46 29 C-42.1070661 27.41606854 -39.72447292 24.90980364 -36.82421875 21.9140625 C-35.82108981 20.89050124 -34.81783044 19.86706779 -33.81445312 18.84375 C-32.25195337 17.23792228 -30.69203434 15.62969192 -29.13500977 14.01855469 C-27.62141545 12.45622768 -26.09835731 10.90359508 -24.57421875 9.3515625 C-23.67276123 8.42166504 -22.77130371 7.49176758 -21.8425293 6.53369141 C-15.12108602 0.54252604 -8.97278697 -1.40009566 0 0 Z " fill="#000000" transform="translate(430,355)"/>
</svg>
