<svg width="122" height="24" viewBox="0 0 122 24" fill="none" xmlns="http://www.w3.org/2000/svg">
<path d="M0.9 8V1.44H2.77C3.13667 1.44 3.47 1.47333 3.77 1.54C4.07667 1.60667 4.33667 1.71667 4.55 1.87C4.76333 2.01667 4.93 2.21333 5.05 2.46C5.17 2.70667 5.23 3.01 5.23 3.37C5.23 3.71667 5.17 4.01667 5.05 4.27C4.93667 4.52333 4.77333 4.73333 4.56 4.9C4.34667 5.06667 4.09 5.19333 3.79 5.28C3.49667 5.36 3.17 5.4 2.81 5.4H1.73V8H0.9ZM1.73 4.72H2.71C3.28333 4.72 3.70667 4.61333 3.98 4.4C4.26 4.18 4.4 3.83667 4.4 3.37C4.4 2.89667 4.25333 2.57 3.96 2.39C3.67333 2.20333 3.24333 2.11 2.67 2.11H1.73V4.72ZM7.90992 8.12C7.60992 8.12 7.32326 8.06333 7.04992 7.95C6.78326 7.83667 6.54659 7.67333 6.33992 7.46C6.13326 7.24 5.96659 6.97333 5.83992 6.66C5.71992 6.34 5.65992 5.98 5.65992 5.58C5.65992 5.17333 5.71992 4.81333 5.83992 4.5C5.96659 4.18 6.13326 3.91 6.33992 3.69C6.54659 3.47 6.78326 3.30333 7.04992 3.19C7.32326 3.07667 7.60992 3.02 7.90992 3.02C8.20992 3.02 8.49326 3.07667 8.75992 3.19C9.03326 3.30333 9.27326 3.47 9.47992 3.69C9.68659 3.91 9.84992 4.18 9.96992 4.5C10.0966 4.81333 10.1599 5.17333 10.1599 5.58C10.1599 5.98 10.0966 6.34 9.96992 6.66C9.84992 6.97333 9.68659 7.24 9.47992 7.46C9.27326 7.67333 9.03326 7.83667 8.75992 7.95C8.49326 8.06333 8.20992 8.12 7.90992 8.12ZM7.90992 7.44C8.11659 7.44 8.30659 7.39667 8.47992 7.31C8.65326 7.21667 8.79992 7.09 8.91992 6.93C9.04659 6.76333 9.14326 6.56667 9.20992 6.34C9.27659 6.11333 9.30992 5.86 9.30992 5.58C9.30992 5.3 9.27659 5.04667 9.20992 4.82C9.14326 4.58667 9.04659 4.38667 8.91992 4.22C8.79992 4.05333 8.65326 3.92667 8.47992 3.84C8.30659 3.74667 8.11659 3.7 7.90992 3.7C7.70326 3.7 7.51326 3.74667 7.33992 3.84C7.16659 3.92667 7.01659 4.05333 6.88992 4.22C6.76992 4.38667 6.67659 4.58667 6.60992 4.82C6.54326 5.04667 6.50992 5.3 6.50992 5.58C6.50992 5.86 6.54326 6.11333 6.60992 6.34C6.67659 6.56667 6.76992 6.76333 6.88992 6.93C7.01659 7.09 7.16659 7.21667 7.33992 7.31C7.51326 7.39667 7.70326 7.44 7.90992 7.44ZM11.9508 8L10.6008 3.14H11.4408L12.1608 5.95C12.2141 6.18333 12.2641 6.41 12.3108 6.63C12.3574 6.85 12.4041 7.07333 12.4508 7.3H12.4908C12.5441 7.07333 12.5974 6.85 12.6508 6.63C12.7041 6.40333 12.7608 6.17667 12.8208 5.95L13.5708 3.14H14.3708L15.1308 5.95C15.1908 6.18333 15.2474 6.41 15.3008 6.63C15.3608 6.85 15.4174 7.07333 15.4708 7.3H15.5108C15.5641 7.07333 15.6141 6.85 15.6608 6.63C15.7074 6.41 15.7574 6.18333 15.8108 5.95L16.5208 3.14H17.3008L16.0008 8H15.0008L14.3008 5.39C14.2408 5.15667 14.1841 4.92667 14.1308 4.7C14.0841 4.47333 14.0308 4.23667 13.9708 3.99H13.9308C13.8774 4.23667 13.8241 4.47667 13.7708 4.71C13.7174 4.93667 13.6574 5.16667 13.5908 5.4L12.9108 8H11.9508ZM20.0695 8.12C19.7428 8.12 19.4361 8.06333 19.1495 7.95C18.8695 7.83 18.6228 7.66333 18.4095 7.45C18.2028 7.23 18.0395 6.96333 17.9195 6.65C17.7995 6.33667 17.7395 5.98 17.7395 5.58C17.7395 5.18 17.7995 4.82333 17.9195 4.51C18.0461 4.19 18.2095 3.92 18.4095 3.7C18.6161 3.48 18.8495 3.31333 19.1095 3.2C19.3695 3.08 19.6395 3.02 19.9195 3.02C20.2261 3.02 20.4995 3.07333 20.7395 3.18C20.9861 3.28667 21.1895 3.44 21.3495 3.64C21.5161 3.84 21.6428 4.08 21.7295 4.36C21.8161 4.64 21.8595 4.95333 21.8595 5.3C21.8595 5.38667 21.8561 5.47333 21.8495 5.56C21.8495 5.64 21.8428 5.71 21.8295 5.77H18.5495C18.5828 6.29 18.7428 6.70333 19.0295 7.01C19.3228 7.31 19.7028 7.46 20.1695 7.46C20.4028 7.46 20.6161 7.42667 20.8095 7.36C21.0095 7.28667 21.1995 7.19333 21.3795 7.08L21.6695 7.62C21.4561 7.75333 21.2195 7.87 20.9595 7.97C20.6995 8.07 20.4028 8.12 20.0695 8.12ZM18.5395 5.18H21.1395C21.1395 4.68667 21.0328 4.31333 20.8195 4.06C20.6128 3.8 20.3195 3.67 19.9395 3.67C19.7661 3.67 19.5995 3.70333 19.4395 3.77C19.2861 3.83667 19.1461 3.93667 19.0195 4.07C18.8928 4.19667 18.7861 4.35333 18.6995 4.54C18.6195 4.72667 18.5661 4.94 18.5395 5.18ZM22.8404 8V3.14H23.5204L23.5904 4.02H23.6204C23.7871 3.71333 23.9871 3.47 24.2204 3.29C24.4604 3.11 24.7204 3.02 25.0004 3.02C25.1937 3.02 25.3671 3.05333 25.5204 3.12L25.3604 3.84C25.2804 3.81333 25.2071 3.79333 25.1404 3.78C25.0737 3.76667 24.9904 3.76 24.8904 3.76C24.6837 3.76 24.4671 3.84333 24.2404 4.01C24.0204 4.17667 23.8271 4.46667 23.6604 4.88V8H22.8404ZM27.9595 8.12C27.6329 8.12 27.3262 8.06333 27.0395 7.95C26.7595 7.83 26.5129 7.66333 26.2995 7.45C26.0929 7.23 25.9295 6.96333 25.8095 6.65C25.6895 6.33667 25.6295 5.98 25.6295 5.58C25.6295 5.18 25.6895 4.82333 25.8095 4.51C25.9362 4.19 26.0995 3.92 26.2995 3.7C26.5062 3.48 26.7395 3.31333 26.9995 3.2C27.2595 3.08 27.5295 3.02 27.8095 3.02C28.1162 3.02 28.3895 3.07333 28.6295 3.18C28.8762 3.28667 29.0795 3.44 29.2395 3.64C29.4062 3.84 29.5329 4.08 29.6195 4.36C29.7062 4.64 29.7495 4.95333 29.7495 5.3C29.7495 5.38667 29.7462 5.47333 29.7395 5.56C29.7395 5.64 29.7329 5.71 29.7195 5.77H26.4395C26.4729 6.29 26.6329 6.70333 26.9195 7.01C27.2129 7.31 27.5929 7.46 28.0595 7.46C28.2929 7.46 28.5062 7.42667 28.6995 7.36C28.8995 7.28667 29.0895 7.19333 29.2695 7.08L29.5595 7.62C29.3462 7.75333 29.1095 7.87 28.8495 7.97C28.5895 8.07 28.2929 8.12 27.9595 8.12ZM26.4295 5.18H29.0295C29.0295 4.68667 28.9229 4.31333 28.7095 4.06C28.5029 3.8 28.2095 3.67 27.8295 3.67C27.6562 3.67 27.4895 3.70333 27.3295 3.77C27.1762 3.83667 27.0362 3.93667 26.9095 4.07C26.7829 4.19667 26.6762 4.35333 26.5895 4.54C26.5095 4.72667 26.4562 4.94 26.4295 5.18ZM32.3905 8.12C31.7771 8.12 31.2871 7.9 30.9205 7.46C30.5605 7.02 30.3805 6.39333 30.3805 5.58C30.3805 5.18667 30.4371 4.83333 30.5505 4.52C30.6705 4.2 30.8271 3.93 31.0205 3.71C31.2138 3.49 31.4371 3.32 31.6905 3.2C31.9438 3.08 32.2105 3.02 32.4905 3.02C32.7705 3.02 33.0138 3.07 33.2205 3.17C33.4271 3.27 33.6371 3.40667 33.8505 3.58L33.8105 2.75V0.88H34.6405V8H33.9605L33.8905 7.43H33.8605C33.6671 7.61667 33.4438 7.78 33.1905 7.92C32.9438 8.05333 32.6771 8.12 32.3905 8.12ZM32.5705 7.43C32.7971 7.43 33.0105 7.37667 33.2105 7.27C33.4105 7.15667 33.6105 6.98667 33.8105 6.76V4.22C33.6038 4.03333 33.4038 3.90333 33.2105 3.83C33.0238 3.75 32.8305 3.71 32.6305 3.71C32.4371 3.71 32.2538 3.75667 32.0805 3.85C31.9138 3.93667 31.7671 4.06333 31.6405 4.23C31.5138 4.39 31.4138 4.58333 31.3405 4.81C31.2671 5.03667 31.2305 5.29 31.2305 5.57C31.2305 6.15667 31.3471 6.61333 31.5805 6.94C31.8138 7.26667 32.1438 7.43 32.5705 7.43ZM39.9893 8.12C39.7626 8.12 39.526 8.06667 39.2793 7.96C39.0393 7.84667 38.8126 7.69333 38.5993 7.5H38.5693L38.4993 8H37.8393V0.88H38.6593V2.82L38.6393 3.7C38.8593 3.50667 39.0993 3.34667 39.3593 3.22C39.6193 3.08667 39.886 3.02 40.1593 3.02C40.4726 3.02 40.7493 3.08 40.9893 3.2C41.2293 3.31333 41.4293 3.48 41.5893 3.7C41.756 3.91333 41.8793 4.17333 41.9593 4.48C42.046 4.78 42.0893 5.11667 42.0893 5.49C42.0893 5.90333 42.0326 6.27333 41.9193 6.6C41.806 6.92667 41.6526 7.20333 41.4593 7.43C41.266 7.65667 41.0426 7.83 40.7893 7.95C40.536 8.06333 40.2693 8.12 39.9893 8.12ZM39.8493 7.43C40.0493 7.43 40.2326 7.38667 40.3993 7.3C40.5726 7.20667 40.7193 7.08 40.8393 6.92C40.966 6.75333 41.0626 6.55 41.1293 6.31C41.2026 6.07 41.2393 5.8 41.2393 5.5C41.2393 5.23333 41.216 4.99 41.1693 4.77C41.1226 4.55 41.046 4.36333 40.9393 4.21C40.8393 4.05 40.706 3.92667 40.5393 3.84C40.3793 3.75333 40.186 3.71 39.9593 3.71C39.566 3.71 39.1326 3.93 38.6593 4.37V6.92C38.8726 7.10667 39.0826 7.24 39.2893 7.32C39.5026 7.39333 39.6893 7.43 39.8493 7.43ZM43.1876 10.09C43.0742 10.09 42.9709 10.08 42.8776 10.06C42.7842 10.0467 42.6976 10.0233 42.6176 9.99L42.7776 9.34C42.8309 9.35333 42.8909 9.36667 42.9576 9.38C43.0242 9.4 43.0876 9.41 43.1476 9.41C43.4276 9.41 43.6542 9.31 43.8276 9.11C44.0076 8.91667 44.1476 8.67 44.2476 8.37L44.3576 8.01L42.4076 3.14H43.2576L44.2476 5.83C44.3209 6.04333 44.3976 6.27 44.4776 6.51C44.5642 6.74333 44.6442 6.97333 44.7176 7.2H44.7576C44.8309 6.98 44.9009 6.75 44.9676 6.51C45.0342 6.27 45.1009 6.04333 45.1676 5.83L46.0376 3.14H46.8376L45.0076 8.4C44.9209 8.64 44.8242 8.86333 44.7176 9.07C44.6109 9.27667 44.4842 9.45333 44.3376 9.6C44.1909 9.75333 44.0242 9.87333 43.8376 9.96C43.6509 10.0467 43.4342 10.09 43.1876 10.09ZM3.38 21.12C2.96667 21.12 2.58667 21.0433 2.24 20.89C1.89333 20.7367 1.59 20.5167 1.33 20.23C1.07667 19.9367 0.876667 19.58 0.73 19.16C0.59 18.7333 0.52 18.2533 0.52 17.72C0.52 17.1933 0.593333 16.72 0.74 16.3C0.886667 15.88 1.09 15.5233 1.35 15.23C1.61 14.9367 1.91667 14.7133 2.27 14.56C2.62333 14.4 3.01 14.32 3.43 14.32C3.83 14.32 4.18 14.4033 4.48 14.57C4.78667 14.73 5.03667 14.9167 5.23 15.13L4.78 15.67C4.60667 15.4833 4.41 15.3333 4.19 15.22C3.97 15.1067 3.72 15.05 3.44 15.05C3.12667 15.05 2.84333 15.1133 2.59 15.24C2.33667 15.36 2.12 15.5367 1.94 15.77C1.76 15.9967 1.62 16.2733 1.52 16.6C1.42667 16.9267 1.38 17.2933 1.38 17.7C1.38 18.1133 1.42667 18.4867 1.52 18.82C1.62 19.1467 1.75667 19.4267 1.93 19.66C2.10333 19.8933 2.31333 20.0733 2.56 20.2C2.81333 20.3267 3.09667 20.39 3.41 20.39C3.73 20.39 4.01 20.3267 4.25 20.2C4.49 20.0667 4.71667 19.8833 4.93 19.65L5.39 20.17C5.13 20.47 4.83667 20.7033 4.51 20.87C4.18333 21.0367 3.80667 21.12 3.38 21.12ZM8.20289 21.12C7.90289 21.12 7.61622 21.0633 7.34289 20.95C7.07622 20.8367 6.83956 20.6733 6.63289 20.46C6.42622 20.24 6.25956 19.9733 6.13289 19.66C6.01289 19.34 5.95289 18.98 5.95289 18.58C5.95289 18.1733 6.01289 17.8133 6.13289 17.5C6.25956 17.18 6.42622 16.91 6.63289 16.69C6.83956 16.47 7.07622 16.3033 7.34289 16.19C7.61622 16.0767 7.90289 16.02 8.20289 16.02C8.50289 16.02 8.78622 16.0767 9.05289 16.19C9.32622 16.3033 9.56622 16.47 9.77289 16.69C9.97956 16.91 10.1429 17.18 10.2629 17.5C10.3896 17.8133 10.4529 18.1733 10.4529 18.58C10.4529 18.98 10.3896 19.34 10.2629 19.66C10.1429 19.9733 9.97956 20.24 9.77289 20.46C9.56622 20.6733 9.32622 20.8367 9.05289 20.95C8.78622 21.0633 8.50289 21.12 8.20289 21.12ZM8.20289 20.44C8.40956 20.44 8.59956 20.3967 8.77289 20.31C8.94622 20.2167 9.09289 20.09 9.21289 19.93C9.33956 19.7633 9.43622 19.5667 9.50289 19.34C9.56956 19.1133 9.60289 18.86 9.60289 18.58C9.60289 18.3 9.56956 18.0467 9.50289 17.82C9.43622 17.5867 9.33956 17.3867 9.21289 17.22C9.09289 17.0533 8.94622 16.9267 8.77289 16.84C8.59956 16.7467 8.40956 16.7 8.20289 16.7C7.99622 16.7 7.80622 16.7467 7.63289 16.84C7.45956 16.9267 7.30956 17.0533 7.18289 17.22C7.06289 17.3867 6.96956 17.5867 6.90289 17.82C6.83622 18.0467 6.80289 18.3 6.80289 18.58C6.80289 18.86 6.83622 19.1133 6.90289 19.34C6.96956 19.5667 7.06289 19.7633 7.18289 19.93C7.30956 20.09 7.45956 20.2167 7.63289 20.31C7.80622 20.3967 7.99622 20.44 8.20289 20.44ZM11.5128 21V16.14H12.1928L12.2628 17.02H12.2928C12.4595 16.7133 12.6595 16.47 12.8928 16.29C13.1328 16.11 13.3928 16.02 13.6728 16.02C13.8661 16.02 14.0395 16.0533 14.1928 16.12L14.0328 16.84C13.9528 16.8133 13.8795 16.7933 13.8128 16.78C13.7461 16.7667 13.6628 16.76 13.5628 16.76C13.3561 16.76 13.1395 16.8433 12.9128 17.01C12.6928 17.1767 12.4995 17.4667 12.3328 17.88V21H11.5128ZM14.7596 21V16.14H15.4396L15.5096 16.84H15.5396C15.7729 16.6067 16.0163 16.4133 16.2696 16.26C16.5296 16.1 16.8296 16.02 17.1696 16.02C17.6829 16.02 18.0563 16.18 18.2896 16.5C18.5296 16.82 18.6496 17.2933 18.6496 17.92V21H17.8296V18.03C17.8296 17.57 17.7563 17.24 17.6096 17.04C17.4629 16.8333 17.2296 16.73 16.9096 16.73C16.6563 16.73 16.4329 16.7933 16.2396 16.92C16.0463 17.0467 15.8263 17.2333 15.5796 17.48V21H14.7596ZM21.9784 21.12C21.6517 21.12 21.345 21.0633 21.0584 20.95C20.7784 20.83 20.5317 20.6633 20.3184 20.45C20.1117 20.23 19.9484 19.9633 19.8284 19.65C19.7084 19.3367 19.6484 18.98 19.6484 18.58C19.6484 18.18 19.7084 17.8233 19.8284 17.51C19.955 17.19 20.1184 16.92 20.3184 16.7C20.525 16.48 20.7584 16.3133 21.0184 16.2C21.2784 16.08 21.5484 16.02 21.8284 16.02C22.135 16.02 22.4084 16.0733 22.6484 16.18C22.895 16.2867 23.0984 16.44 23.2584 16.64C23.425 16.84 23.5517 17.08 23.6384 17.36C23.725 17.64 23.7684 17.9533 23.7684 18.3C23.7684 18.3867 23.765 18.4733 23.7584 18.56C23.7584 18.64 23.7517 18.71 23.7384 18.77H20.4584C20.4917 19.29 20.6517 19.7033 20.9384 20.01C21.2317 20.31 21.6117 20.46 22.0784 20.46C22.3117 20.46 22.525 20.4267 22.7184 20.36C22.9184 20.2867 23.1084 20.1933 23.2884 20.08L23.5784 20.62C23.365 20.7533 23.1284 20.87 22.8684 20.97C22.6084 21.07 22.3117 21.12 21.9784 21.12ZM20.4484 18.18H23.0484C23.0484 17.6867 22.9417 17.3133 22.7284 17.06C22.5217 16.8 22.2284 16.67 21.8484 16.67C21.675 16.67 21.5084 16.7033 21.3484 16.77C21.195 16.8367 21.055 16.9367 20.9284 17.07C20.8017 17.1967 20.695 17.3533 20.6084 17.54C20.5284 17.7267 20.475 17.94 20.4484 18.18ZM25.6193 21.12C25.306 21.12 25.0826 21.0267 24.9493 20.84C24.816 20.6533 24.7493 20.38 24.7493 20.02V13.88H25.5693V20.08C25.5693 20.2133 25.5926 20.3067 25.6393 20.36C25.686 20.4133 25.7393 20.44 25.7993 20.44C25.826 20.44 25.8493 20.44 25.8693 20.44C25.896 20.44 25.9326 20.4333 25.9793 20.42L26.0893 21.04C26.036 21.0667 25.9726 21.0867 25.8993 21.1C25.826 21.1133 25.7326 21.12 25.6193 21.12ZM27.9481 21.12C27.6348 21.12 27.4115 21.0267 27.2781 20.84C27.1448 20.6533 27.0781 20.38 27.0781 20.02V13.88H27.8981V20.08C27.8981 20.2133 27.9215 20.3067 27.9681 20.36C28.0148 20.4133 28.0681 20.44 28.1281 20.44C28.1548 20.44 28.1781 20.44 28.1981 20.44C28.2248 20.44 28.2615 20.4333 28.3081 20.42L28.4181 21.04C28.3648 21.0667 28.3015 21.0867 28.2281 21.1C28.1548 21.1133 28.0615 21.12 27.9481 21.12ZM31.2689 21V14.44H32.9089C33.9222 14.44 34.6922 14.72 35.2189 15.28C35.7456 15.84 36.0089 16.6433 36.0089 17.69C36.0089 18.21 35.9422 18.6767 35.8089 19.09C35.6756 19.4967 35.4789 19.8433 35.2189 20.13C34.9589 20.41 34.6389 20.6267 34.2589 20.78C33.8789 20.9267 33.4422 21 32.9489 21H31.2689ZM32.0989 20.32H32.8489C33.6156 20.32 34.1889 20.09 34.5689 19.63C34.9556 19.17 35.1489 18.5233 35.1489 17.69C35.1489 16.8567 34.9556 16.22 34.5689 15.78C34.1889 15.34 33.6156 15.12 32.8489 15.12H32.0989V20.32ZM39.0913 21.12C38.7646 21.12 38.4579 21.0633 38.1713 20.95C37.8913 20.83 37.6446 20.6633 37.4313 20.45C37.2246 20.23 37.0613 19.9633 36.9413 19.65C36.8213 19.3367 36.7613 18.98 36.7613 18.58C36.7613 18.18 36.8213 17.8233 36.9413 17.51C37.0679 17.19 37.2313 16.92 37.4313 16.7C37.6379 16.48 37.8713 16.3133 38.1313 16.2C38.3913 16.08 38.6613 16.02 38.9413 16.02C39.2479 16.02 39.5213 16.0733 39.7613 16.18C40.0079 16.2867 40.2113 16.44 40.3713 16.64C40.5379 16.84 40.6646 17.08 40.7513 17.36C40.8379 17.64 40.8813 17.9533 40.8813 18.3C40.8813 18.3867 40.8779 18.4733 40.8713 18.56C40.8713 18.64 40.8646 18.71 40.8513 18.77H37.5713C37.6046 19.29 37.7646 19.7033 38.0513 20.01C38.3446 20.31 38.7246 20.46 39.1913 20.46C39.4246 20.46 39.6379 20.4267 39.8313 20.36C40.0313 20.2867 40.2213 20.1933 40.4013 20.08L40.6913 20.62C40.4779 20.7533 40.2413 20.87 39.9813 20.97C39.7213 21.07 39.4246 21.12 39.0913 21.12ZM37.5613 18.18H40.1613C40.1613 17.6867 40.0546 17.3133 39.8413 17.06C39.6346 16.8 39.3413 16.67 38.9613 16.67C38.7879 16.67 38.6213 16.7033 38.4613 16.77C38.3079 16.8367 38.1679 16.9367 38.0413 17.07C37.9146 17.1967 37.8079 17.3533 37.7213 17.54C37.6413 17.7267 37.5879 17.94 37.5613 18.18ZM43.1322 21.12C42.7855 21.12 42.4555 21.0567 42.1422 20.93C41.8289 20.8033 41.5555 20.6433 41.3222 20.45L41.7322 19.9C41.9455 20.0733 42.1622 20.2133 42.3822 20.32C42.6089 20.4267 42.8689 20.48 43.1622 20.48C43.4822 20.48 43.7222 20.4067 43.8822 20.26C44.0422 20.1133 44.1222 19.9333 44.1222 19.72C44.1222 19.5933 44.0889 19.4833 44.0222 19.39C43.9555 19.2967 43.8689 19.2167 43.7622 19.15C43.6622 19.0767 43.5455 19.0133 43.4122 18.96C43.2789 18.9067 43.1455 18.8533 43.0122 18.8C42.8389 18.74 42.6655 18.6733 42.4922 18.6C42.3189 18.52 42.1622 18.4267 42.0222 18.32C41.8889 18.2067 41.7789 18.0767 41.6922 17.93C41.6055 17.7833 41.5622 17.6067 41.5622 17.4C41.5622 17.2067 41.5989 17.0267 41.6722 16.86C41.7522 16.6867 41.8622 16.54 42.0022 16.42C42.1489 16.2933 42.3255 16.1967 42.5322 16.13C42.7389 16.0567 42.9722 16.02 43.2322 16.02C43.5389 16.02 43.8189 16.0733 44.0722 16.18C44.3322 16.2867 44.5555 16.4167 44.7422 16.57L44.3522 17.09C44.1855 16.9633 44.0122 16.86 43.8322 16.78C43.6522 16.7 43.4555 16.66 43.2422 16.66C42.9355 16.66 42.7089 16.73 42.5622 16.87C42.4222 17.01 42.3522 17.1733 42.3522 17.36C42.3522 17.4733 42.3822 17.5733 42.4422 17.66C42.5022 17.74 42.5822 17.8133 42.6822 17.88C42.7822 17.94 42.8955 17.9967 43.0222 18.05C43.1555 18.0967 43.2922 18.1467 43.4322 18.2C43.6055 18.2667 43.7789 18.3367 43.9522 18.41C44.1322 18.4833 44.2922 18.5767 44.4322 18.69C44.5722 18.7967 44.6855 18.93 44.7722 19.09C44.8655 19.25 44.9122 19.4433 44.9122 19.67C44.9122 19.87 44.8722 20.0567 44.7922 20.23C44.7189 20.4033 44.6055 20.5567 44.4522 20.69C44.3055 20.8233 44.1189 20.9267 43.8922 21C43.6722 21.08 43.4189 21.12 43.1322 21.12ZM45.8316 21V16.14H46.6516V21H45.8316ZM46.2516 15.14C46.0916 15.14 45.955 15.09 45.8416 14.99C45.735 14.89 45.6816 14.7633 45.6816 14.61C45.6816 14.45 45.735 14.3233 45.8416 14.23C45.955 14.13 46.0916 14.08 46.2516 14.08C46.4116 14.08 46.545 14.13 46.6516 14.23C46.765 14.3233 46.8216 14.45 46.8216 14.61C46.8216 14.7633 46.765 14.89 46.6516 14.99C46.545 15.09 46.4116 15.14 46.2516 15.14ZM49.7126 23.24C49.4126 23.24 49.1392 23.21 48.8926 23.15C48.6459 23.0967 48.4326 23.0133 48.2526 22.9C48.0792 22.7867 47.9426 22.65 47.8426 22.49C47.7492 22.33 47.7026 22.1433 47.7026 21.93C47.7026 21.7233 47.7659 21.5267 47.8926 21.34C48.0192 21.1533 48.1926 20.9833 48.4126 20.83V20.79C48.2926 20.7167 48.1892 20.6167 48.1026 20.49C48.0226 20.3567 47.9826 20.1933 47.9826 20C47.9826 19.7933 48.0392 19.6133 48.1526 19.46C48.2659 19.3067 48.3859 19.1867 48.5126 19.1V19.06C48.3526 18.9267 48.2059 18.75 48.0726 18.53C47.9459 18.3033 47.8826 18.0433 47.8826 17.75C47.8826 17.4833 47.9292 17.2433 48.0226 17.03C48.1226 16.8167 48.2559 16.6367 48.4226 16.49C48.5892 16.3367 48.7826 16.22 49.0026 16.14C49.2292 16.06 49.4659 16.02 49.7126 16.02C49.8459 16.02 49.9692 16.0333 50.0826 16.06C50.2026 16.08 50.3092 16.1067 50.4026 16.14H52.0926V16.77H51.0926C51.2059 16.8833 51.2992 17.0267 51.3726 17.2C51.4526 17.3733 51.4926 17.5633 51.4926 17.77C51.4926 18.03 51.4459 18.2667 51.3526 18.48C51.2592 18.6867 51.1326 18.8633 50.9726 19.01C50.8126 19.15 50.6226 19.26 50.4026 19.34C50.1892 19.42 49.9592 19.46 49.7126 19.46C49.5926 19.46 49.4692 19.4467 49.3426 19.42C49.2159 19.3867 49.0959 19.3433 48.9826 19.29C48.8959 19.3633 48.8226 19.4467 48.7626 19.54C48.7026 19.6267 48.6726 19.7367 48.6726 19.87C48.6726 20.0233 48.7326 20.15 48.8526 20.25C48.9726 20.35 49.1992 20.4 49.5326 20.4H50.4726C51.0392 20.4 51.4626 20.4933 51.7426 20.68C52.0292 20.86 52.1726 21.1533 52.1726 21.56C52.1726 21.7867 52.1159 22 52.0026 22.2C51.8892 22.4067 51.7259 22.5867 51.5126 22.74C51.2992 22.8933 51.0392 23.0133 50.7326 23.1C50.4326 23.1933 50.0926 23.24 49.7126 23.24ZM49.7126 18.91C49.8526 18.91 49.9826 18.8833 50.1026 18.83C50.2292 18.7767 50.3392 18.7 50.4326 18.6C50.5326 18.5 50.6092 18.38 50.6626 18.24C50.7159 18.0933 50.7426 17.93 50.7426 17.75C50.7426 17.39 50.6426 17.1133 50.4426 16.92C50.2426 16.72 49.9992 16.62 49.7126 16.62C49.4259 16.62 49.1826 16.72 48.9826 16.92C48.7826 17.1133 48.6826 17.39 48.6826 17.75C48.6826 17.93 48.7092 18.0933 48.7626 18.24C48.8159 18.38 48.8892 18.5 48.9826 18.6C49.0826 18.7 49.1926 18.7767 49.3126 18.83C49.4392 18.8833 49.5726 18.91 49.7126 18.91ZM49.8326 22.67C50.0659 22.67 50.2759 22.64 50.4626 22.58C50.6559 22.5267 50.8192 22.4533 50.9526 22.36C51.0859 22.2733 51.1892 22.17 51.2626 22.05C51.3359 21.93 51.3726 21.8067 51.3726 21.68C51.3726 21.4533 51.2892 21.2967 51.1226 21.21C50.9559 21.1233 50.7126 21.08 50.3926 21.08H49.5526C49.4592 21.08 49.3559 21.0733 49.2426 21.06C49.1359 21.0533 49.0292 21.0333 48.9226 21C48.7492 21.1267 48.6226 21.26 48.5426 21.4C48.4626 21.54 48.4226 21.68 48.4226 21.82C48.4226 22.08 48.5459 22.2867 48.7926 22.44C49.0459 22.5933 49.3926 22.67 49.8326 22.67ZM52.8916 21V16.14H53.5716L53.6416 16.84H53.6716C53.905 16.6067 54.1483 16.4133 54.4016 16.26C54.6616 16.1 54.9616 16.02 55.3016 16.02C55.815 16.02 56.1883 16.18 56.4216 16.5C56.6616 16.82 56.7816 17.2933 56.7816 17.92V21H55.9616V18.03C55.9616 17.57 55.8883 17.24 55.7416 17.04C55.595 16.8333 55.3616 16.73 55.0416 16.73C54.7883 16.73 54.565 16.7933 54.3716 16.92C54.1783 17.0467 53.9583 17.2333 53.7116 17.48V21H52.8916ZM61.4223 21.12C61.1223 21.12 60.849 21.0767 60.6023 20.99C60.3623 20.8967 60.1523 20.77 59.9723 20.61C59.799 20.45 59.6623 20.26 59.5623 20.04C59.469 19.8133 59.4223 19.5667 59.4223 19.3C59.4223 19.08 59.4557 18.88 59.5223 18.7C59.5957 18.52 59.6923 18.3533 59.8123 18.2C59.9323 18.0467 60.069 17.9067 60.2223 17.78C60.3823 17.6467 60.5457 17.5233 60.7123 17.41C60.579 17.1367 60.4723 16.8733 60.3923 16.62C60.319 16.36 60.2823 16.11 60.2823 15.87C60.2823 15.65 60.319 15.4467 60.3923 15.26C60.4657 15.0733 60.569 14.91 60.7023 14.77C60.8357 14.63 60.9957 14.52 61.1823 14.44C61.369 14.36 61.5757 14.32 61.8023 14.32C62.209 14.32 62.5257 14.44 62.7523 14.68C62.979 14.92 63.0923 15.2333 63.0923 15.62C63.0923 15.8333 63.049 16.03 62.9623 16.21C62.8757 16.39 62.7623 16.56 62.6223 16.72C62.4823 16.8733 62.3223 17.02 62.1423 17.16C61.969 17.2933 61.7923 17.4267 61.6123 17.56C61.8257 17.9 62.0757 18.2267 62.3623 18.54C62.6557 18.8533 62.959 19.14 63.2723 19.4C63.4723 19.1267 63.649 18.83 63.8023 18.51C63.9623 18.19 64.0923 17.84 64.1923 17.46H64.9623C64.829 17.8933 64.669 18.3067 64.4823 18.7C64.2957 19.0933 64.0723 19.4633 63.8123 19.81C64.039 19.9633 64.2557 20.0933 64.4623 20.2C64.669 20.3067 64.8623 20.3867 65.0423 20.44L64.8223 21.12C64.589 21.0533 64.3457 20.96 64.0923 20.84C63.839 20.7133 63.579 20.5567 63.3123 20.37C63.059 20.5967 62.7757 20.78 62.4623 20.92C62.1557 21.0533 61.809 21.12 61.4223 21.12ZM60.9923 15.86C60.9923 16.04 61.019 16.2267 61.0723 16.42C61.1323 16.6133 61.209 16.81 61.3023 17.01C61.449 16.91 61.589 16.81 61.7223 16.71C61.8623 16.6033 61.9823 16.4967 62.0823 16.39C62.189 16.2767 62.2723 16.16 62.3323 16.04C62.3923 15.9133 62.4223 15.7767 62.4223 15.63C62.4223 15.4367 62.3723 15.27 62.2723 15.13C62.179 14.9833 62.0223 14.91 61.8023 14.91C61.5557 14.91 61.359 15 61.2123 15.18C61.0657 15.36 60.9923 15.5867 60.9923 15.86ZM61.5123 20.46C61.739 20.46 61.9557 20.4133 62.1623 20.32C62.369 20.2267 62.569 20.0967 62.7623 19.93C62.4423 19.65 62.1323 19.3467 61.8323 19.02C61.539 18.6867 61.2757 18.34 61.0423 17.98C60.809 18.1667 60.6123 18.3633 60.4523 18.57C60.299 18.77 60.2223 18.9967 60.2223 19.25C60.2223 19.43 60.2557 19.5967 60.3223 19.75C60.389 19.8967 60.479 20.0233 60.5923 20.13C60.7123 20.2367 60.849 20.32 61.0023 20.38C61.1623 20.4333 61.3323 20.46 61.5123 20.46ZM69.018 21V15.14H67.038V14.44H71.838V15.14H69.858V21H69.018ZM74.0253 21.12C73.6986 21.12 73.392 21.0633 73.1053 20.95C72.8253 20.83 72.5786 20.6633 72.3653 20.45C72.1586 20.23 71.9953 19.9633 71.8753 19.65C71.7553 19.3367 71.6953 18.98 71.6953 18.58C71.6953 18.18 71.7553 17.8233 71.8753 17.51C72.002 17.19 72.1653 16.92 72.3653 16.7C72.572 16.48 72.8053 16.3133 73.0653 16.2C73.3253 16.08 73.5953 16.02 73.8753 16.02C74.182 16.02 74.4553 16.0733 74.6953 16.18C74.942 16.2867 75.1453 16.44 75.3053 16.64C75.472 16.84 75.5986 17.08 75.6853 17.36C75.772 17.64 75.8153 17.9533 75.8153 18.3C75.8153 18.3867 75.812 18.4733 75.8053 18.56C75.8053 18.64 75.7986 18.71 75.7853 18.77H72.5053C72.5386 19.29 72.6986 19.7033 72.9853 20.01C73.2786 20.31 73.6586 20.46 74.1253 20.46C74.3586 20.46 74.572 20.4267 74.7653 20.36C74.9653 20.2867 75.1553 20.1933 75.3353 20.08L75.6253 20.62C75.412 20.7533 75.1753 20.87 74.9153 20.97C74.6553 21.07 74.3586 21.12 74.0253 21.12ZM72.4953 18.18H75.0953C75.0953 17.6867 74.9886 17.3133 74.7753 17.06C74.5686 16.8 74.2753 16.67 73.8953 16.67C73.722 16.67 73.5553 16.7033 73.3953 16.77C73.242 16.8367 73.102 16.9367 72.9753 17.07C72.8486 17.1967 72.742 17.3533 72.6553 17.54C72.5753 17.7267 72.522 17.94 72.4953 18.18ZM78.7162 21.12C78.3962 21.12 78.0962 21.0633 77.8162 20.95C77.5362 20.8367 77.2929 20.6733 77.0862 20.46C76.8862 20.24 76.7262 19.9733 76.6062 19.66C76.4929 19.34 76.4362 18.98 76.4362 18.58C76.4362 18.1733 76.4996 17.8133 76.6262 17.5C76.7529 17.18 76.9229 16.91 77.1362 16.69C77.3496 16.47 77.5962 16.3033 77.8762 16.19C78.1629 16.0767 78.4629 16.02 78.7762 16.02C79.0962 16.02 79.3696 16.0767 79.5962 16.19C79.8229 16.3033 80.0229 16.4367 80.1962 16.59L79.7762 17.13C79.6362 17.0033 79.4862 16.9 79.3262 16.82C79.1729 16.74 78.9996 16.7 78.8062 16.7C78.5862 16.7 78.3829 16.7467 78.1962 16.84C78.0096 16.9267 77.8496 17.0533 77.7162 17.22C77.5829 17.3867 77.4762 17.5867 77.3962 17.82C77.3229 18.0467 77.2862 18.3 77.2862 18.58C77.2862 18.86 77.3229 19.1133 77.3962 19.34C77.4696 19.5667 77.5696 19.7633 77.6962 19.93C77.8296 20.09 77.9896 20.2167 78.1762 20.31C78.3629 20.3967 78.5662 20.44 78.7862 20.44C79.0129 20.44 79.2196 20.3933 79.4062 20.3C79.5996 20.2 79.7729 20.0833 79.9262 19.95L80.2862 20.5C80.0662 20.6933 79.8229 20.8467 79.5562 20.96C79.2896 21.0667 79.0096 21.12 78.7162 21.12ZM81.1368 21V13.88H81.9568V15.82L81.9268 16.82C82.1601 16.6 82.4035 16.4133 82.6568 16.26C82.9101 16.1 83.2068 16.02 83.5468 16.02C84.0601 16.02 84.4335 16.18 84.6668 16.5C84.9068 16.82 85.0268 17.2933 85.0268 17.92V21H84.2068V18.03C84.2068 17.57 84.1335 17.24 83.9868 17.04C83.8401 16.8333 83.6068 16.73 83.2868 16.73C83.0335 16.73 82.8101 16.7933 82.6168 16.92C82.4235 17.0467 82.2035 17.2333 81.9568 17.48V21H81.1368ZM88.2182 21V14.44H89.0482V21H88.2182ZM90.5452 21V16.14H91.2252L91.2952 16.84H91.3252C91.5585 16.6067 91.8018 16.4133 92.0552 16.26C92.3152 16.1 92.6152 16.02 92.9552 16.02C93.4685 16.02 93.8418 16.18 94.0752 16.5C94.3152 16.82 94.4352 17.2933 94.4352 17.92V21H93.6152V18.03C93.6152 17.57 93.5418 17.24 93.3952 17.04C93.2485 16.8333 93.0152 16.73 92.6952 16.73C92.4418 16.73 92.2185 16.7933 92.0252 16.92C91.8318 17.0467 91.6118 17.2333 91.3652 17.48V21H90.5452ZM95.7939 21V16.14H96.6139V21H95.7939ZM96.2139 15.14C96.0539 15.14 95.9172 15.09 95.8039 14.99C95.6972 14.89 95.6439 14.7633 95.6439 14.61C95.6439 14.45 95.6972 14.3233 95.8039 14.23C95.9172 14.13 96.0539 14.08 96.2139 14.08C96.3739 14.08 96.5072 14.13 96.6139 14.23C96.7272 14.3233 96.7839 14.45 96.7839 14.61C96.7839 14.7633 96.7272 14.89 96.6139 14.99C96.5072 15.09 96.3739 15.14 96.2139 15.14ZM99.5648 21.12C99.3048 21.12 99.0848 21.08 98.9048 21C98.7315 20.92 98.5882 20.81 98.4748 20.67C98.3682 20.53 98.2915 20.36 98.2448 20.16C98.1982 19.96 98.1748 19.74 98.1748 19.5V16.81H97.4548V16.19L98.2148 16.14L98.3148 14.78H99.0048V16.14H100.315V16.81H99.0048V19.51C99.0048 19.81 99.0582 20.0433 99.1648 20.21C99.2782 20.37 99.4748 20.45 99.7548 20.45C99.8415 20.45 99.9348 20.4367 100.035 20.41C100.135 20.3833 100.225 20.3533 100.305 20.32L100.465 20.94C100.332 20.9867 100.185 21.0267 100.025 21.06C99.8715 21.1 99.7182 21.12 99.5648 21.12ZM101.194 21V16.14H102.014V21H101.194ZM101.614 15.14C101.454 15.14 101.317 15.09 101.204 14.99C101.097 14.89 101.044 14.7633 101.044 14.61C101.044 14.45 101.097 14.3233 101.204 14.23C101.317 14.13 101.454 14.08 101.614 14.08C101.774 14.08 101.907 14.13 102.014 14.23C102.127 14.3233 102.184 14.45 102.184 14.61C102.184 14.7633 102.127 14.89 102.014 14.99C101.907 15.09 101.774 15.14 101.614 15.14ZM104.555 21.12C104.148 21.12 103.808 21 103.535 20.76C103.268 20.52 103.135 20.18 103.135 19.74C103.135 19.2067 103.371 18.8 103.845 18.52C104.318 18.2333 105.075 18.0333 106.115 17.92C106.115 17.7667 106.098 17.6167 106.065 17.47C106.038 17.3233 105.988 17.1933 105.915 17.08C105.841 16.9667 105.738 16.8767 105.605 16.81C105.478 16.7367 105.315 16.7 105.115 16.7C104.835 16.7 104.571 16.7533 104.325 16.86C104.078 16.9667 103.858 17.0867 103.665 17.22L103.345 16.65C103.571 16.5033 103.848 16.3633 104.175 16.23C104.501 16.09 104.861 16.02 105.255 16.02C105.848 16.02 106.278 16.2033 106.545 16.57C106.811 16.93 106.945 17.4133 106.945 18.02V21H106.265L106.195 20.42H106.165C105.931 20.6133 105.681 20.78 105.415 20.92C105.148 21.0533 104.861 21.12 104.555 21.12ZM104.795 20.46C105.028 20.46 105.248 20.4067 105.455 20.3C105.661 20.1867 105.881 20.0233 106.115 19.81V18.46C105.708 18.5133 105.365 18.5767 105.085 18.65C104.811 18.7233 104.588 18.81 104.415 18.91C104.248 19.01 104.125 19.1267 104.045 19.26C103.971 19.3867 103.935 19.5267 103.935 19.68C103.935 19.96 104.018 20.16 104.185 20.28C104.351 20.4 104.555 20.46 104.795 20.46ZM109.647 21.12C109.387 21.12 109.167 21.08 108.987 21C108.814 20.92 108.67 20.81 108.557 20.67C108.45 20.53 108.374 20.36 108.327 20.16C108.28 19.96 108.257 19.74 108.257 19.5V16.81H107.537V16.19L108.297 16.14L108.397 14.78H109.087V16.14H110.397V16.81H109.087V19.51C109.087 19.81 109.14 20.0433 109.247 20.21C109.36 20.37 109.557 20.45 109.837 20.45C109.924 20.45 110.017 20.4367 110.117 20.41C110.217 20.3833 110.307 20.3533 110.387 20.32L110.547 20.94C110.414 20.9867 110.267 21.0267 110.107 21.06C109.954 21.1 109.8 21.12 109.647 21.12ZM111.276 21V16.14H112.096V21H111.276ZM111.696 15.14C111.536 15.14 111.399 15.09 111.286 14.99C111.179 14.89 111.126 14.7633 111.126 14.61C111.126 14.45 111.179 14.3233 111.286 14.23C111.399 14.13 111.536 14.08 111.696 14.08C111.856 14.08 111.989 14.13 112.096 14.23C112.209 14.3233 112.266 14.45 112.266 14.61C112.266 14.7633 112.209 14.89 112.096 14.99C111.989 15.09 111.856 15.14 111.696 15.14ZM114.567 21L112.817 16.14H113.667L114.587 18.9C114.66 19.14 114.734 19.38 114.807 19.62C114.887 19.86 114.964 20.0967 115.037 20.33H115.077C115.15 20.0967 115.224 19.86 115.297 19.62C115.37 19.38 115.444 19.14 115.517 18.9L116.437 16.14H117.247L115.527 21H114.567ZM119.896 21.12C119.569 21.12 119.262 21.0633 118.976 20.95C118.696 20.83 118.449 20.6633 118.236 20.45C118.029 20.23 117.866 19.9633 117.746 19.65C117.626 19.3367 117.566 18.98 117.566 18.58C117.566 18.18 117.626 17.8233 117.746 17.51C117.872 17.19 118.036 16.92 118.236 16.7C118.442 16.48 118.676 16.3133 118.936 16.2C119.196 16.08 119.466 16.02 119.746 16.02C120.052 16.02 120.326 16.0733 120.566 16.18C120.812 16.2867 121.016 16.44 121.176 16.64C121.342 16.84 121.469 17.08 121.556 17.36C121.642 17.64 121.686 17.9533 121.686 18.3C121.686 18.3867 121.682 18.4733 121.676 18.56C121.676 18.64 121.669 18.71 121.656 18.77H118.376C118.409 19.29 118.569 19.7033 118.856 20.01C119.149 20.31 119.529 20.46 119.996 20.46C120.229 20.46 120.442 20.4267 120.636 20.36C120.836 20.2867 121.026 20.1933 121.206 20.08L121.496 20.62C121.282 20.7533 121.046 20.87 120.786 20.97C120.526 21.07 120.229 21.12 119.896 21.12ZM118.366 18.18H120.966C120.966 17.6867 120.859 17.3133 120.646 17.06C120.439 16.8 120.146 16.67 119.766 16.67C119.592 16.67 119.426 16.7033 119.266 16.77C119.112 16.8367 118.972 16.9367 118.846 17.07C118.719 17.1967 118.612 17.3533 118.526 17.54C118.446 17.7267 118.392 17.94 118.366 18.18Z" fill="black"/>
</svg>
