<?xml version="1.0" encoding="UTF-8"?>
<svg version="1.1" xmlns="http://www.w3.org/2000/svg" width="512" height="512">
<path d="M0 0 C0.96679688 0.69480469 1.93359375 1.38960937 2.9296875 2.10546875 C22.18274455 16.23271191 39.9943212 32.57879206 54 52 C54.763125 53.0415625 55.52625 54.083125 56.3125 55.15625 C82.47789873 91.86048988 97.4483212 134.90433474 99 180 C99.061875 181.51980469 99.061875 181.51980469 99.125 183.0703125 C99.49577089 200.82096901 96.86502429 218.16815253 93.12109375 235.4609375 C91.40540797 243.71798432 90.34082868 249.85128692 93.3125 257.875 C93.78728451 259.27053431 94.25733844 260.66768695 94.72265625 262.06640625 C94.94711426 262.73816895 95.17157227 263.40993164 95.40283203 264.10205078 C104.1850715 292.01420515 98.2287392 325.4869205 85 351 C80.76086609 358.59391335 75.60034794 365.36606618 70 372 C69.34644531 372.80050781 68.69289063 373.60101563 68.01953125 374.42578125 C48.40658496 397.49767116 19.64894612 410.8002004 -10.2421875 413.53515625 C-26.83107478 414.74250772 -47.14556667 414.39565914 -62.38671875 406.8125 C-68.77336506 404.82681624 -76.11046994 407.38258657 -82.4621582 408.76489258 C-140.13937391 421.27774629 -201.22849892 410.256905 -250.94458008 378.29882812 C-263.53905615 369.96286854 -275.09701426 360.43086728 -286 350 C-286.49161621 349.53029785 -286.98323242 349.0605957 -287.48974609 348.57666016 C-292.52188095 343.74231638 -297.3901274 338.90449839 -301.4296875 333.19140625 C-303.02548559 330.96443429 -304.71239054 328.82330416 -306.4152832 326.67773438 C-343.86145685 279.13525024 -360.31359629 219.21975778 -353.42285156 159.19677734 C-348.71028282 123.56953998 -336.12331941 88.27326155 -315 59 C-314.30390625 58.030625 -313.6078125 57.06125 -312.890625 56.0625 C-298.75625176 36.81569389 -282.42128948 19.0057376 -263 5 C-261.9584375 4.236875 -260.916875 3.47375 -259.84375 2.6875 C-184.08952743 -51.31551015 -76.56368176 -55.69282391 0 0 Z M-268 44 C-268.92554688 44.87269531 -269.85109375 45.74539062 -270.8046875 46.64453125 C-305.92579474 80.62146644 -327.04461623 130.54394613 -328.203125 179.29296875 C-328.75149197 227.54576929 -315.15087896 269.88190249 -287 309 C-284.36631043 305.80885562 -282.07120132 302.60411678 -279.9375 299.0625 C-274.46900525 290.37170942 -268.18365949 281.92678814 -260.8125 274.75 C-259.884375 273.8425 -258.95625 272.935 -258 272 C-258 271.34 -258 270.68 -258 270 C-257.41089844 269.7421875 -256.82179688 269.484375 -256.21484375 269.21875 C-253.81549867 267.89847546 -252.41188034 266.51001694 -250.5625 264.5 C-232.81729035 246.42978651 -208.62262895 233.52812326 -185 225 C-188.1371059 221.75832391 -191.40662201 218.77230768 -194.8125 215.8125 C-212.40955151 199.96211879 -224.08057325 175.80861235 -225.91015625 152.11328125 C-225.93980469 151.41589844 -225.96945313 150.71851563 -226 150 C-226.05994141 148.78376953 -226.05994141 148.78376953 -226.12109375 147.54296875 C-226.82617794 119.2151747 -215.44053213 94.03277291 -196.1875 73.75 C-175.46882641 53.80706458 -150.12560936 46.47907335 -122.03125 46.7890625 C-96.09657779 47.44064701 -73.04165813 60.08884391 -55.21875 78.4765625 C-40.75298691 94.92882122 -30.5600892 116.87647651 -30 139 C-29.96132813 139.74378906 -29.92265625 140.48757812 -29.8828125 141.25390625 C-29.55606833 152.27244571 -31.48279259 163.31190645 -34 174 C-32.93023926 174.01401855 -32.93023926 174.01401855 -31.83886719 174.02832031 C6.28296631 174.6524659 38.25359147 183.52597571 65.39526367 211.24121094 C66.6022105 212.48897041 67.80196458 213.74368177 69 215 C74.32893274 209.67106726 72.24393282 197.00720127 72.25 189.9375 C72.25067474 189.22991547 72.25134949 188.52233093 72.25204468 187.79330444 C72.19012659 146.69184516 60.64207111 105.34213172 36 72 C35.23300781 70.95070313 34.46601563 69.90140625 33.67578125 68.8203125 C27.92914242 61.08967428 21.65301943 53.95714399 15 47 C14.12601562 46.07316406 13.25203125 45.14632812 12.3515625 44.19140625 C5.43300516 37.03952513 -1.98972793 30.86856916 -10 25 C-10.56638184 24.58395508 -11.13276367 24.16791016 -11.71630859 23.73925781 C-86.97157662 -30.72093902 -193.90094206 -23.83655281 -268 44 Z M-183.16015625 97.30859375 C-196.56102652 113.03331436 -201.56712997 132.66670753 -200 153 C-197.50846264 171.61803431 -187.84003902 187.96514136 -173.57421875 200.08984375 C-159.39908524 210.60826604 -145.23207504 215.19119004 -127.75 215.5 C-125.80287109 215.58121094 -125.80287109 215.58121094 -123.81640625 215.6640625 C-115.35662745 215.81024831 -115.35662745 215.81024831 -108.265625 211.671875 C-107.14003753 210.48189609 -106.0480184 209.25883056 -105 208 C-96.78622401 199.01747789 -86.6309829 191.88330514 -75.46948242 187.04296875 C-69.34012387 184.35659643 -65.33695212 182.32172202 -62.25 176.0625 C-61.41729577 173.73630045 -60.67142934 171.37776856 -60 169 C-59.69980957 168.01435059 -59.69980957 168.01435059 -59.39355469 167.00878906 C-53.32758635 146.82392119 -55.03574018 126.80212506 -65 108 C-72.4914365 96.40214646 -81.07596917 87.88670023 -93 81 C-93.65613281 80.60941406 -94.31226563 80.21882813 -94.98828125 79.81640625 C-103.38367359 75.19624387 -113.47095647 72.63526957 -123 72 C-123.70640625 71.9484375 -124.4128125 71.896875 -125.140625 71.84375 C-147.63129615 70.95008095 -168.04243573 81.15204253 -183.16015625 97.30859375 Z M-87 228 C-87.72574219 228.65484375 -88.45148438 229.3096875 -89.19921875 229.984375 C-95.47030706 235.75032653 -99.66430987 242.74523136 -104 250 C-104.43441406 250.68707031 -104.86882812 251.37414062 -105.31640625 252.08203125 C-115.10693074 269.09066791 -115.00117421 294.78811165 -110.42480469 313.33056641 C-103.59648093 337.91560314 -88.95016707 358.7475485 -67 372 C-60.82707367 375.3376717 -54.4272905 378.19272723 -48 381 C-47.36126953 381.28278809 -46.72253906 381.56557617 -46.06445312 381.85693359 C-26.46393633 390.50390192 -6.01067217 387.84463092 13.7265625 380.37109375 C37.73890535 370.31341793 55.70771418 351.54106342 65.79638672 327.79052734 C74.6556695 305.83397458 74.52302632 281.16999844 65.49609375 259.3125 C53.67914416 233.14860118 34.9081218 215.19006249 7.93701172 204.69580078 C-25.58593585 192.65390507 -62.44193146 203.40511277 -87 228 Z M-235.5234375 285.57470703 C-237.02276015 287.02196986 -238.54177106 288.4463753 -240.0625 289.87109375 C-251.39247871 300.64988431 -262.99506766 314.98520298 -268 330 C-238.44269121 362.03571667 -194.56522002 380.3921704 -152 386 C-150.9174292 386.14465698 -150.9174292 386.14465698 -149.81298828 386.29223633 C-142.59813244 387.13745677 -135.37851809 387.18614171 -128.12304688 387.18530273 C-126.00370381 387.18749617 -123.88487705 387.20573999 -121.765625 387.22460938 C-114.29639152 387.25442079 -107.24787088 386.92194893 -100 385 C-100.72832031 384.27554688 -101.45664062 383.55109375 -102.20703125 382.8046875 C-125.34063295 359.57402174 -140.05247431 331.0933387 -140.3293457 297.76464844 C-140.32378662 296.60481445 -140.31822754 295.44498047 -140.3125 294.25 C-140.30512817 292.41356934 -140.30512817 292.41356934 -140.29760742 290.54003906 C-140.11553318 276.40360804 -137.55916112 263.67960765 -133.0859375 250.29296875 C-132.28460925 247.86304172 -131.56479536 245.49137509 -131 243 C-168.94931216 240.64992792 -208.77564995 259.67619749 -235.5234375 285.57470703 Z " fill="#000000" transform="translate(384,69)"/>
<path d="M0 0 C0.79921875 -0.0515625 1.5984375 -0.103125 2.421875 -0.15625 C9.78365893 1.55200926 15.67097519 8.64231782 20.8125 13.8671875 C21.48925781 14.54677521 22.16601562 15.22636292 22.86328125 15.92654419 C24.99698323 18.07132833 27.12357578 20.22300272 29.25 22.375 C30.70656438 23.84160965 32.1635915 25.30775989 33.62109375 26.7734375 C37.16942926 30.3436744 40.71141189 33.92010294 44.25 37.5 C47.33344541 36.12737236 49.42718901 34.56394769 51.79345703 32.16772461 C52.46740509 31.4903978 53.14135315 30.81307098 53.83572388 30.11521912 C54.55251312 29.38497025 55.26930237 28.65472137 56.0078125 27.90234375 C56.75207489 27.15287979 57.49633728 26.40341583 58.26315308 25.63124084 C60.63856426 23.23802366 63.00718009 20.83822632 65.375 18.4375 C67.75082216 16.03408548 70.12807489 13.63213131 72.50827026 11.23304749 C73.98899433 9.7400398 75.46703744 8.24436764 76.94216919 6.74583435 C77.9436348 5.73457237 77.9436348 5.73457237 78.96533203 4.70288086 C79.55283234 4.10712753 80.14033264 3.51137421 80.74563599 2.89756775 C84.21804099 -0.32832785 88.02899083 0.17144231 92.546875 0.21875 C96.22758721 0.60171428 97.88567538 1.67806416 100.25 4.5 C102.5907014 8.22384314 102.61657093 11.81126278 101.97120667 16.05871582 C101.14677416 18.8494194 100.09696128 20.20254561 98.13647461 22.33398438 C97.50417938 23.02492188 96.87188416 23.71585937 96.22042847 24.42773438 C93.19212044 27.61255368 90.12441143 30.74921841 87.00390625 33.84375 C86.01994118 34.82559265 86.01994118 34.82559265 85.01609802 35.82727051 C82.95059855 37.88723823 80.88162405 39.94367366 78.8125 42 C77.39885566 43.4086205 75.98544214 44.81747267 74.57226562 46.2265625 C71.13416851 49.65372133 67.69295344 53.07772019 64.25 56.5 C68.21303539 61.27014643 72.36803976 65.71365534 76.8203125 70.02734375 C78.05903551 71.24369091 79.29730322 72.46050188 80.53515625 73.67773438 C82.45717996 75.56267329 84.38204183 77.44432648 86.31494141 79.31811523 C88.20107001 81.1494173 90.07395309 82.99346734 91.9453125 84.83984375 C92.80481003 85.66366798 92.80481003 85.66366798 93.68167114 86.50413513 C97.84361287 90.63891742 101.96580691 95.57013276 102.40530396 101.64756775 C102.14313527 107.05720003 99.65296318 110.43304401 96.25 114.5 C93.18570224 116.03214888 90.6334358 115.72938548 87.25 115.5 C84.5625 114.1875 84.5625 114.1875 82.25 112.5 C81.486875 111.984375 80.72375 111.46875 79.9375 110.9375 C79.380625 110.463125 78.82375 109.98875 78.25 109.5 C78.25 108.84 78.25 108.18 78.25 107.5 C77.59 107.5 76.93 107.5 76.25 107.5 C74.625 106.125 74.625 106.125 73.25 104.5 C73.25 103.84 73.25 103.18 73.25 102.5 C72.59 102.5 71.93 102.5 71.25 102.5 C71.25 101.84 71.25 101.18 71.25 100.5 C70.59 100.5 69.93 100.5 69.25 100.5 C67.625 99.125 67.625 99.125 66.25 97.5 C66.25 96.84 66.25 96.18 66.25 95.5 C65.59 95.5 64.93 95.5 64.25 95.5 C64.25 94.84 64.25 94.18 64.25 93.5 C63.59 93.5 62.93 93.5 62.25 93.5 C60.83984375 92.06640625 60.83984375 92.06640625 59.1875 90.0625 C55.12931634 85.27658299 50.72999069 80.8885623 46.25 76.5 C43.07818636 77.89505673 41.02045451 79.51647148 38.6340332 82.01586914 C37.94263748 82.73323746 37.25124176 83.45060577 36.53889465 84.18971252 C35.80031723 84.96370895 35.06173981 85.73770538 34.30078125 86.53515625 C32.71511088 88.165607 31.12849227 89.79513599 29.54101562 91.42382812 C27.04761639 93.99137867 24.56085922 96.56421953 22.09008789 99.15356445 C19.69944845 101.65342213 17.28396165 104.12692257 14.86328125 106.59765625 C14.13482498 107.37367691 13.40636871 108.14969757 12.65583801 108.94923401 C8.38991285 113.25774643 5.37956504 115.37308618 -0.75447083 115.72386169 C-4.99987309 115.24760559 -7.633328 112.74820307 -10.375 109.68359375 C-12.03419068 107.04868583 -12.27754982 105.3506875 -12.375 102.25 C-12.45621094 100.91195312 -12.45621094 100.91195312 -12.5390625 99.546875 C-10.63257237 92.18518045 -2.57771812 86.18751016 2.71484375 80.9375 C3.39301651 80.26074219 4.07118927 79.58398438 4.76991272 78.88671875 C6.90674305 76.75542325 9.04704823 74.62765782 11.1875 72.5 C12.64932123 71.04320221 14.11091187 69.58617299 15.57226562 68.12890625 C19.128854 64.58326027 22.68856016 61.04077261 26.25 57.5 C22.02359515 52.44869316 17.60355211 47.73067381 12.91796875 43.10546875 C11.9021447 42.09532463 11.9021447 42.09532463 10.86579895 41.06477356 C8.72546339 38.9365508 6.58189559 36.81163131 4.4375 34.6875 C1.59480656 31.87134131 -1.24459682 29.05192494 -4.08203125 26.23046875 C-4.7361348 25.58466354 -5.39023834 24.93885834 -6.06416321 24.27348328 C-6.66536484 23.67558487 -7.26656647 23.07768646 -7.88598633 22.46166992 C-8.41638016 21.93651291 -8.94677399 21.4113559 -9.49324036 20.87028503 C-12.47033979 17.62425878 -12.01711749 14.17030258 -11.96875 9.98046875 C-11.68537507 6.76719951 -10.87264382 4.92587865 -8.75 2.5 C-5.81226336 0.72722789 -3.41882795 0.13065585 0 0 Z " fill="#000000" transform="translate(317.75,305.5)"/>
</svg>
