<svg width="892" height="573" viewBox="0 0 892 573" fill="none" xmlns="http://www.w3.org/2000/svg">
<path fill-rule="evenodd" clip-rule="evenodd" d="M875.643 61.5924V450.475H892V468.518H864.337C864.013 463.734 863.445 458.655 862.664 453.245L862.096 450.475L855.629 418.948L856.654 414.317L838.012 414.564C836.094 414.588 834.488 413.032 834.332 411.005C834.321 410.899 834.321 410.804 834.321 410.71C834.321 409.319 835.023 408.023 836.194 407.328L861.438 392.466L864.682 377.734H864.671C864.671 377.734 846.385 368.8 816.358 359.124C819.045 357.415 820.841 354.303 820.841 350.744C820.841 356.142 824.977 360.515 830.084 360.515C835.191 360.515 839.327 356.142 839.327 350.744C839.327 356.142 843.464 360.515 848.571 360.515C853.677 360.515 857.814 356.142 857.814 350.744V317.379V317.06H857.691H839.327H820.841H802.354H783.867H765.381H746.894H728.407H709.909H691.423H672.936H666.335H654.449H635.963H617.476H598.989H580.502H562.016H543.652L559.217 275.857H560.444V262.103H560.711H561.559V275.857H571.616V262.103H572.731V275.857H582.788V262.103H583.903V275.857H593.961V262.103H595.076V275.857H605.133V262.103H606.248V275.857H616.305V262.103H617.42V275.857H617.476H627.489V262.103H628.604V275.857H638.661V262.103H639.776V275.857H649.833V262.103H650.948V275.857H661.005V262.103H662.12V275.857H666.335H672.178V262.103H666.335V217.27H685.981C688.278 217.27 690.14 215.302 690.14 212.874V178.814H707.267V171.812H697.522V164.811H690.14V156.774V95.6532V77.2203C690.14 74.7924 688.278 72.8242 685.981 72.8242H666.335V61.5924H657.75V35.8169H693.039V25.8815H702.784V0H708.571V25.8815H718.316V35.8169H884.228V61.5924H875.643ZM844.189 54.5798H823.896V61.5924H833.641V68.5931H853.945V61.5924H844.189V54.5798ZM849.73 156.774V152.92H846.062V95.6532H849.73V91.7993H783.934V95.6532H787.603V152.92H783.934V156.774H849.73ZM849.73 256.34V252.486H846.062V195.208H849.73V191.354H783.934V195.208H787.603V252.486H783.934V256.34H849.73ZM692.248 152.92V156.774H758.033V152.92H754.364V95.6532H758.033V91.7993H692.248V95.6532H695.916V152.92H692.248ZM695.916 252.486H692.248V256.34H758.033V252.486H754.364V195.208H758.033V191.354H692.248V195.208H695.916V252.486ZM673.293 262.103V275.857H683.35V262.103H673.293ZM684.465 262.103V275.857H694.522V262.103H684.465ZM695.637 262.103V275.857H705.706V262.103H695.637ZM706.821 262.103V275.857H716.878V262.103H706.821ZM717.993 262.103V275.857H728.05V262.103H717.993ZM729.165 262.103V275.857H739.223V262.103H729.165ZM740.338 262.103V275.857H750.395V262.103H740.338ZM751.51 262.103V275.857H761.567V262.103H751.51ZM762.682 262.103V275.857H772.74V262.103H762.682ZM773.855 262.103V275.857H783.912V262.103H773.855ZM785.027 262.103V275.857H795.084V262.103H785.027ZM796.199 262.103V275.857H806.268V262.103H796.199ZM807.383 262.103V275.857H817.44V262.103H807.383ZM818.555 262.103V275.857H828.612V262.103H818.555ZM829.727 262.103V275.857H839.784V262.103H829.727ZM828.858 511.431C834.745 510.5 838.625 509.616 840.164 508.756C851.693 502.38 859.654 491.949 864.616 483.464C863.423 510.229 852.328 524.714 829.582 530.559C826.851 531.255 823.94 531.832 820.863 532.292C817.395 532.81 813.705 533.188 809.802 533.412C808.977 537.784 807.606 541.956 805.755 545.834C798.117 561.945 782.34 573 764.132 573C742.456 573 724.259 557.372 719.052 536.205H719.041L699.518 536.794L680.596 537.372L454.362 544.278L435.129 544.867C434.984 545.197 434.828 545.514 434.673 545.833L434.672 545.834C427.023 561.945 411.234 573 393.026 573C375.387 573 360.067 562.652 352.139 547.389L332.794 547.991L309.123 548.698C307.528 548.757 305.7 547.684 303.793 545.834C300.827 542.97 297.705 538.232 295.163 533.058C300.816 536.287 307.528 539.67 311.743 540.471C312.289 540.577 314.876 540.577 319.247 540.495C322.257 540.436 326.115 540.342 330.731 540.212C329.795 535.604 329.293 530.831 329.293 525.928C329.293 501.649 341.446 480.364 359.677 468.519C366.489 464.076 374.161 460.965 382.356 459.503C385.823 458.878 389.391 458.56 393.026 458.56H393.216C396.784 458.572 400.285 458.89 403.686 459.503C411.881 460.965 419.552 464.076 426.365 468.519C444.595 480.364 456.749 501.637 456.749 525.928C456.749 528.073 456.659 530.206 456.459 532.292C456.381 533.294 456.269 534.296 456.135 535.274C463.004 534.956 470.006 534.637 477.109 534.331H477.12C491.18 533.683 505.686 532.999 520.437 532.292C560.143 530.371 601.598 528.226 641.014 525.975C641.591 525.941 642.17 525.908 642.747 525.876C643.329 525.843 643.91 525.811 644.492 525.774C644.681 525.765 644.87 525.754 645.059 525.743L645.497 525.718C645.868 525.697 646.24 525.674 646.61 525.653L646.799 525.641C647.523 525.599 648.244 525.555 648.963 525.515C657.683 503.829 662.042 484.689 663.871 468.519C664.607 462.013 664.93 455.991 664.964 450.475C664.997 445.207 664.774 440.41 664.384 436.097L657.259 436.78L629.93 439.385C628.882 439.492 627.957 438.678 627.868 437.57L627.834 437.169C627.734 436.073 628.503 435.095 629.551 434.989L656.802 432.396L663.916 431.712C662.689 421.777 660.682 414.918 659.5 411.488C658.943 411.547 658.385 411.606 657.816 411.665C655.256 411.928 652.69 412.197 650.11 412.469L648.439 412.643C642.151 413.303 635.806 413.951 629.417 414.588C627.288 414.8 625.158 415.012 623.017 415.224L622.81 415.245L622.774 415.249C621.662 415.358 620.55 415.468 619.427 415.578C618.831 415.644 618.225 415.699 617.628 415.753L617.476 415.766C617.284 415.79 617.093 415.813 616.902 415.833C616.803 415.844 616.704 415.853 616.606 415.86L616.391 415.88C616.301 415.888 616.209 415.897 616.118 415.906C616.009 415.917 615.899 415.929 615.792 415.943L615.345 415.987C613.641 416.149 611.93 416.312 610.228 416.485C605.306 416.961 600.384 417.428 595.47 417.892L594.15 418.017L592.761 418.148L590.34 418.376L587.75 418.618L587.561 418.636L587.54 418.638L587.52 418.641C584.407 418.928 581.295 419.215 578.206 419.502C577.107 419.6 576.013 419.701 574.92 419.802L574.908 419.803C574.334 419.856 573.76 419.909 573.186 419.962L572.656 420.009C572.395 420.034 572.133 420.057 571.872 420.08L569.495 420.294C565.969 420.611 562.46 420.927 558.972 421.235C556.367 421.469 553.77 421.696 551.191 421.921L549.193 422.095C542.336 422.684 535.601 423.262 529.023 423.804C527.544 423.934 526.089 424.052 524.634 424.168L524.619 424.169C524.139 424.205 523.66 424.24 523.191 424.287C521.552 424.417 519.924 424.547 518.319 424.676L517.449 424.747L515.422 424.911L515.353 424.917C513.291 425.084 511.249 425.249 509.232 425.407C503.634 425.843 498.193 426.255 492.953 426.644C492.094 426.715 491.236 426.774 490.388 426.833C487.355 427.057 484.401 427.269 481.513 427.469C480.342 427.552 479.194 427.634 478.045 427.717C477.521 427.752 476.986 427.788 476.473 427.823L476.176 427.844C475.444 427.896 474.726 427.947 474.009 427.988C469.95 428.271 466.059 428.518 462.379 428.742C461.253 428.813 460.763 427.269 461.699 426.597C470.541 420.209 482.94 411.796 497.68 402.767H497.691C522.244 387.728 553.285 370.992 585.163 359.23C589.489 357.627 593.838 356.118 598.186 354.716C598.492 354.617 598.802 354.517 599.111 354.42C599.275 354.368 599.44 354.318 599.602 354.268C605.568 352.371 611.544 350.685 617.476 349.259C628.971 346.478 640.311 344.639 651.249 344.062C656.322 343.791 661.351 343.649 666.335 343.614C688.334 343.449 709.408 345.476 728.708 348.634C734.941 349.648 740.984 350.78 746.816 352.005L746.983 352.041C752.87 353.278 758.534 354.586 763.953 355.953C764.661 356.134 765.366 356.314 766.067 356.494C766.512 356.609 766.956 356.723 767.399 356.837C771.112 357.804 774.691 358.782 778.147 359.784C804.383 367.315 823.048 375.282 829.894 378.382C828.289 379.077 826.639 379.784 824.944 380.491C814.842 384.746 803.291 389.178 790.847 393.161C790.122 393.397 789.297 393.633 788.372 393.88C788.238 393.914 788.102 393.947 787.965 393.983L787.695 394.05C787.381 394.13 787.056 394.211 786.722 394.293L786.721 394.294H786.719H786.718C786.396 394.376 786.074 394.459 785.729 394.528C784.715 394.776 783.622 395.012 782.451 395.259C782.061 395.341 781.66 395.424 781.258 395.506C779.218 395.931 776.977 396.355 774.535 396.791C773.565 396.956 772.561 397.133 771.524 397.322C771.502 397.322 771.48 397.321 771.457 397.333C770.818 397.438 770.167 397.547 769.505 397.656C769.115 397.721 768.721 397.787 768.324 397.852C765.893 398.253 763.329 398.665 760.619 399.078C759.973 399.184 759.315 399.278 758.646 399.372C755.212 399.891 751.577 400.421 747.752 400.952C747.234 401.023 746.714 401.098 746.191 401.172L746.182 401.173C745.336 401.292 744.482 401.414 743.616 401.529C743.599 401.529 743.582 401.533 743.566 401.535L743.547 401.538C743.535 401.541 743.525 401.541 743.515 401.541C741.631 401.8 739.713 402.059 737.751 402.319C737.183 402.398 736.609 402.472 736.032 402.547C735.565 402.607 735.097 402.669 734.629 402.731C734.455 402.755 734.278 402.778 734.102 402.801C733.915 402.825 733.73 402.849 733.547 402.873C732.377 403.026 731.184 403.179 729.99 403.332C728.82 403.485 727.627 403.639 726.422 403.792C725.372 403.917 724.313 404.051 723.245 404.186H723.244H723.242L722.81 404.24C718.751 404.747 714.57 405.265 710.277 405.772C709.654 405.846 709.03 405.922 708.402 405.998L708.395 405.999L708.374 406.002C707.505 406.107 706.631 406.213 705.75 406.314C704.922 406.412 704.09 406.51 703.256 406.609C702.056 406.751 700.85 406.895 699.64 407.033L699.379 407.062C698.516 407.159 697.647 407.257 696.786 407.363C692.014 407.917 687.141 408.471 682.179 409.013C681.194 409.131 680.208 409.236 679.222 409.342L679.202 409.343C678.79 409.397 678.378 409.44 677.975 409.483H677.969L677.842 409.496C677.658 409.517 677.473 409.539 677.289 409.56C677.007 409.59 676.724 409.622 676.44 409.654L675.76 409.728L675.412 409.767L675.401 409.768C675.058 409.806 674.714 409.843 674.371 409.882C673.971 409.925 673.57 409.97 673.17 410.015L672.909 410.043C671.99 410.14 671.064 410.237 670.137 410.345C668.982 410.463 667.836 410.591 666.682 410.72L666.335 410.757V410.745L666.219 410.758L666.016 410.781L665.751 410.81C665.557 410.831 665.363 410.854 665.169 410.876C664.782 410.92 664.395 410.963 664.005 411.005C663.418 411.067 662.832 411.13 662.243 411.191C661.713 411.247 661.183 411.303 660.649 411.358C661.864 414.941 663.815 421.812 665.031 431.606L666.335 431.488L679.514 430.227C680.551 430.133 681.477 430.946 681.577 432.054L681.611 432.443C681.7 433.551 680.93 434.529 679.882 434.623L666.335 435.92L665.488 435.991C665.878 440.34 666.112 445.172 666.068 450.475C666.034 455.991 665.711 462.013 664.975 468.519C663.169 484.701 658.842 503.806 650.201 525.444C666.77 524.49 682.926 523.512 698.369 522.533C698.737 500.506 708.783 480.977 724.204 468.519C735.276 459.574 749.113 454.258 764.132 454.258C772.885 454.258 781.236 456.062 788.874 459.35C794.326 461.695 799.422 464.783 804.026 468.519C816.815 478.832 825.903 494.012 828.858 511.431ZM801.607 354.606C802.187 354.771 802.766 354.948 803.335 355.113C802.711 353.805 802.354 352.32 802.354 350.741C802.354 352.108 802.086 353.416 801.607 354.606ZM666.335 213.168H651.584C648.874 213.168 646.667 210.846 646.667 207.982V82.1102C646.667 79.2463 648.874 76.9245 651.584 76.9245H666.335H681.087C683.796 76.9245 685.993 79.2463 685.993 82.1102V164.811V171.812V207.982C685.993 210.846 683.796 213.168 681.087 213.168H666.335ZM651.584 78.103C649.487 78.103 647.782 79.8945 647.782 82.1102V207.982C647.782 210.198 649.487 211.989 651.584 211.989H666.335H681.087C683.183 211.989 684.878 210.198 684.878 207.982V171.812V164.811V82.1102C684.878 79.8945 683.183 78.103 681.087 78.103H666.335H651.584ZM342.171 319.992H393.216H404.801V262.1V255.594H342.171V319.992ZM343.286 256.773H403.686V262.1V318.813H393.216H343.286V256.773ZM342.171 160.038H404.801V224.435H342.171V160.038ZM343.286 223.256H403.686V161.216H343.286V223.256ZM305.488 534.341C305.488 535.096 306.068 535.709 306.781 535.709C307.361 535.709 307.863 535.32 308.03 534.742C308.069 534.606 308.111 534.455 308.158 534.291C308.313 533.75 308.507 533.069 308.721 532.291C310.226 526.905 312.891 516.769 312.412 514.223C311.743 510.699 298.508 514.223 298.508 514.223L305.488 518.266V532.291V534.341ZM316.482 450.581C310.907 453.504 305.967 456.498 301.975 459.503C297.984 462.509 294.951 465.537 293.178 468.519H0V454.082V450.475H48.9373V450.581H53.3973V450.475H61.8044V443.71H71.7725H208.984H243.07H247.329H248.857H253.105H263.073V450.475H316.682L316.482 450.581ZM340.699 468.518C342.16 466.232 343.208 462.814 343.944 459.502C344.803 455.66 345.249 451.971 345.405 450.474C345.449 450.014 345.472 449.755 345.472 449.755C345.411 449.77 345.35 449.785 345.289 449.8C345.216 449.818 345.143 449.835 345.069 449.853L344.846 449.906L344.828 449.911L344.817 449.913L344.813 449.914C344.48 449.993 344.135 450.077 343.777 450.168C343.494 450.238 343.205 450.315 342.91 450.393L342.606 450.474L342.205 450.58C335.214 452.419 324.565 455.683 315.534 459.502C308.877 462.319 303.102 465.442 300.303 468.518C298.931 470.027 298.262 471.535 298.575 472.985C298.865 474.328 299.79 480.728 299.79 480.728L300.816 480.846C300.816 480.846 332.582 473.562 338.246 470.922C339.172 470.498 339.986 469.638 340.699 468.518ZM293.245 404.887H295.386V414.975H293.245V404.887ZM288.551 404.887H286.41V414.975H288.551V404.887ZM254.22 439.016V443.683H253.105H251.99V439.016V374.171V369.386V367.96V347.311V325.849V323.598V321.335V319.98V318.801V256.749V255.571V254.251V249.737V230.29V228.039V225.776V224.433V223.254V161.214V160.035V158.692V154.178V122.474V113.741V102.309V68.9549V64.7003V61.5888H254.22V68.9549V102.309H435.296V122.474H423.343V262.1V414.761C418.281 415.822 413.42 416.918 408.726 418.049C404.489 419.063 399.192 420.442 393.216 422.115C378.542 426.228 359.732 432.157 342.283 439.016H338.726V374.171H342.729V367.96H254.22V369.386V374.171V439.016ZM312.133 254.251H317.63V249.737H254.22V254.251V255.571H275.204V255.594H308.877V319.992H274.178V319.98H254.22V321.335V323.598V325.849H317.63V321.335H312.133V254.251ZM274.089 256.749H254.22V318.801H274.089V256.749ZM275.293 256.773V318.813H307.762V256.773H275.293ZM312.133 158.692H317.63V154.178H254.22V158.692V160.035H274.178H275.204H308.877V224.433H275.204H274.178H254.22V225.776V228.039V230.29H317.63V225.776H312.133V158.692ZM274.089 161.214H254.22V223.254H274.089V161.214ZM275.293 161.214V223.254H307.762V161.214H275.293ZM297.95 136.982V129.982H288.194V122.981H267.901V129.982H277.646V136.982H297.95ZM360.691 413.571H380.996V406.57H371.25V399.557H350.946V406.57H360.691V413.571ZM410.933 325.849V321.335H407.722V262.1V254.251H410.933V249.737H336.028V254.251H339.25V321.335H336.028V325.849H393.216H410.933ZM336.028 154.178V158.692H339.25V225.776H336.028V230.29H410.933V225.776H407.722V158.692H410.933V154.178H336.028ZM221.874 340.314V347.314H231.619V354.315H247.329H251.923V347.314H247.329H242.178V340.314H221.874ZM233.827 61.2129H213.522V54.2121H203.777V47.2114H224.082V54.2121H233.827V61.2129ZM218.796 315.327V312.31H215.886V257.247H208.984H185.346V312.31H182.436V315.327H208.984H218.796ZM218.796 228.063V231.08H208.984H182.436V228.063H185.346V172.988H208.984H215.886V228.063H218.796ZM218.796 146.827V143.822H215.886V122.478V113.744V102.312V88.7468H185.346V143.822H182.436V146.827H208.984H218.796ZM136.922 436.93V433.43H143.322V362.043H138.438V359.686H186.428V362.043H181.544V363.198V367.417V433.43H187.944V436.93H136.922ZM174.799 396.752V406.829H176.928V396.752H174.799ZM117.075 399.56H96.7709V406.572H117.075V399.56ZM139.52 312.31H142.43V315.327H106.07V312.31H108.98V257.247H139.52V312.31ZM142.43 228.063H139.52V172.988H108.98V228.063H106.07V231.08H142.43V228.063ZM139.52 143.822H142.43V146.827H106.07V143.822H108.98V88.7468H139.52V143.822ZM106.917 385.131H86.6132V392.132H106.917V385.131ZM70.6575 213.532H62.217V206.531H52.4719V199.531H70.6575V91.9148H71.7725H72.8875V206.531H82.5211V213.532H72.8875V323.599H71.7725H70.6575V213.532Z" fill="black"/>
</svg>
