<svg width="495" height="300" viewBox="0 0 495 300" fill="none" xmlns="http://www.w3.org/2000/svg">
<path fill-rule="evenodd" clip-rule="evenodd" d="M394.778 140.961H398.644V145.963H394.778V140.961ZM407.438 210.466C407.738 212.433 407.957 214.28 408.081 216.02C408.231 217.97 408.266 219.779 408.188 221.455C406.281 224.54 403.221 228.333 398.79 230.652C398.198 230.965 396.707 231.286 394.444 231.625C393.308 225.29 389.815 219.77 384.9 216.02C383.13 214.662 381.171 213.539 379.076 212.686C376.14 211.49 372.93 210.835 369.566 210.835C363.793 210.835 358.474 212.768 354.218 216.02C348.291 220.55 344.43 227.652 344.288 235.662C338.353 236.018 332.143 236.373 325.774 236.72C329.096 228.852 330.758 221.905 331.453 216.02C331.736 213.655 331.86 211.465 331.873 209.459C331.89 207.53 331.8 205.773 331.65 204.192L331.975 204.166L337.183 203.695C337.586 203.66 337.881 203.305 337.847 202.902L337.834 202.76C337.796 202.358 337.44 202.062 337.041 202.096L331.975 202.555L331.474 202.598C331.007 199.036 330.257 196.538 329.79 195.235C330.223 195.192 330.651 195.149 331.08 195.106L331.342 195.08L331.513 195.062L331.723 195.041L331.975 195.016C332.464 194.965 332.948 194.913 333.437 194.866C333.793 194.827 334.148 194.792 334.501 194.756L334.502 194.756L334.603 194.746L334.785 194.727L334.892 194.715C335.081 194.696 335.271 194.676 335.46 194.656L335.463 194.656C335.776 194.624 336.088 194.591 336.398 194.558L336.448 194.552H336.448H336.449C336.604 194.537 336.763 194.521 336.921 194.502L336.929 194.501C337.308 194.463 337.687 194.424 338.066 194.382C339.973 194.185 341.846 193.983 343.68 193.782C343.874 193.762 344.066 193.74 344.258 193.719L344.259 193.718C344.432 193.699 344.605 193.68 344.777 193.662C345.238 193.612 345.699 193.56 346.156 193.508L346.162 193.508L346.167 193.508L346.17 193.507C346.49 193.471 346.808 193.436 347.126 193.4C347.466 193.363 347.804 193.324 348.14 193.286H348.142L348.144 193.285H348.145C348.386 193.258 348.626 193.23 348.866 193.203C350.516 193.019 352.123 192.83 353.683 192.646C353.889 192.621 354.095 192.598 354.3 192.574C354.559 192.544 354.815 192.514 355.071 192.483C355.534 192.428 355.993 192.372 356.443 192.316C356.906 192.26 357.36 192.205 357.81 192.149C357.88 192.14 357.951 192.131 358.023 192.122H358.025L358.154 192.107L358.225 192.098C358.406 192.074 358.585 192.053 358.765 192.03H358.765H358.766H358.766H358.766H358.767H358.767C358.918 192.011 359.068 191.993 359.217 191.974C359.287 191.966 359.356 191.957 359.425 191.948C360.18 191.853 360.917 191.759 361.641 191.665C361.654 191.665 361.667 191.66 361.68 191.66C362.22 191.592 362.747 191.523 363.27 191.45C364.74 191.258 366.137 191.065 367.457 190.876C367.604 190.856 367.75 190.835 367.895 190.814C368.002 190.799 368.109 190.784 368.215 190.769C369.257 190.619 370.243 190.469 371.177 190.323C371.33 190.299 371.481 190.276 371.631 190.252C371.885 190.212 372.136 190.172 372.381 190.135C372.383 190.134 372.385 190.133 372.386 190.133C372.388 190.132 372.39 190.132 372.392 190.131C372.397 190.13 372.402 190.13 372.407 190.13C372.806 190.066 373.191 190.002 373.564 189.938C374.503 189.779 375.364 189.625 376.148 189.47L376.152 189.47L376.254 189.45C376.319 189.437 376.383 189.425 376.447 189.412C376.501 189.401 376.554 189.391 376.607 189.38C377.057 189.29 377.477 189.205 377.867 189.115C378 189.089 378.124 189.059 378.248 189.029H378.248L378.365 189.002C378.545 188.961 378.717 188.921 378.883 188.879C379.238 188.789 379.556 188.703 379.834 188.618C384.617 187.169 389.057 185.558 392.94 184.01C393.591 183.753 394.225 183.496 394.843 183.243C392.211 182.116 385.037 179.219 374.953 176.48C373.624 176.116 372.248 175.76 370.821 175.409C370.384 175.302 369.943 175.195 369.497 175.088C367.414 174.59 365.237 174.115 362.974 173.665L362.91 173.652C360.668 173.206 358.346 172.795 355.95 172.426C348.531 171.278 340.431 170.54 331.975 170.6C330.06 170.613 328.127 170.665 326.177 170.763C321.973 170.973 317.614 171.642 313.195 172.653C310.915 173.172 308.618 173.785 306.326 174.475C306.146 174.526 305.961 174.582 305.781 174.638C304.11 175.148 302.438 175.696 300.776 176.279C288.523 180.556 276.591 186.642 267.154 192.11H267.15C261.484 195.393 256.718 198.453 253.32 200.776C252.96 201.02 253.148 201.582 253.581 201.556C254.995 201.475 256.491 201.385 258.051 201.282C258.327 201.267 258.603 201.248 258.885 201.23L258.998 201.222C259.126 201.213 259.258 201.205 259.389 201.197L259.394 201.197L259.603 201.183C259.756 201.173 259.909 201.163 260.062 201.153H260.065H260.066H260.067H260.067C260.354 201.134 260.643 201.116 260.935 201.093C262.045 201.02 263.181 200.943 264.347 200.862L264.407 200.858C264.713 200.838 265.023 200.817 265.333 200.793C267.347 200.652 269.438 200.502 271.59 200.343C272.369 200.285 273.159 200.225 273.956 200.164L274.748 200.103L275.083 200.078C275.704 200.03 276.325 199.983 276.955 199.936C277.135 199.919 277.32 199.906 277.504 199.893L277.516 199.892C278.074 199.85 278.631 199.807 279.197 199.76C281.726 199.563 284.314 199.353 286.95 199.139L287.732 199.074H287.733C288.719 198.993 289.712 198.911 290.708 198.826C292.049 198.714 293.399 198.599 294.754 198.484L294.761 198.483L295.667 198.406C296.477 198.338 297.287 198.269 298.101 198.196C299.318 198.089 300.544 197.982 301.77 197.875C302.588 197.802 303.407 197.729 304.23 197.656L304.737 197.611L304.746 197.61C306.631 197.441 308.521 197.272 310.41 197.099C311.062 197.036 311.719 196.977 312.373 196.918H312.373H312.374L312.377 196.917L312.548 196.902C312.644 196.89 312.743 196.882 312.839 196.874L312.861 196.872C312.973 196.859 313.084 196.85 313.195 196.842H313.195L313.265 196.835C313.494 196.811 313.72 196.788 313.945 196.769C314.371 196.73 314.792 196.69 315.214 196.651L315.228 196.649L315.246 196.648L315.326 196.64C316.148 196.563 316.967 196.486 317.786 196.409C320.241 196.178 322.68 195.942 325.097 195.702C326.306 195.586 327.51 195.466 328.701 195.346C328.92 195.325 329.134 195.303 329.348 195.282C329.803 196.529 330.574 199.023 331.046 202.636L328.311 202.885L317.837 203.828C317.434 203.866 317.138 204.222 317.177 204.62L317.19 204.766C317.224 205.169 317.58 205.465 317.983 205.426L328.487 204.479L331.225 204.23C331.376 205.799 331.461 207.543 331.448 209.459C331.436 211.465 331.311 213.655 331.028 216.02C330.326 221.9 328.65 228.86 325.298 236.746C325.022 236.761 324.744 236.776 324.466 236.792H324.465C324.17 236.808 323.875 236.825 323.58 236.84C323.357 236.853 323.134 236.865 322.911 236.877C322.688 236.888 322.466 236.9 322.243 236.913C307.093 237.732 291.158 238.512 275.897 239.21C270.227 239.468 264.651 239.716 259.247 239.952H259.243C256.513 240.063 253.821 240.179 251.181 240.295C251.233 239.939 251.275 239.575 251.306 239.21C251.383 238.452 251.417 237.676 251.417 236.896C251.417 228.063 246.746 220.328 239.738 216.02C237.12 214.405 234.171 213.273 231.021 212.742C229.714 212.519 228.368 212.403 226.997 212.399H226.924C225.527 212.399 224.155 212.515 222.823 212.742C219.673 213.273 216.724 214.405 214.105 216.02C207.098 220.328 202.427 228.068 202.427 236.896C202.427 238.679 202.62 240.415 202.98 242.09C201.205 242.138 199.723 242.172 198.566 242.193C196.886 242.223 195.891 242.223 195.681 242.185C194.061 241.893 191.481 240.663 189.308 239.489C189.285 239.442 189.261 239.396 189.238 239.35C189.214 239.303 189.191 239.258 189.167 239.21C187.457 235.825 186.501 232.019 187.903 230.759L189.625 229.212C189.625 229.212 188.211 219.998 187.933 218.772C187.731 217.872 187.958 216.95 188.546 216.02C189.227 214.936 190.393 213.835 191.927 212.742C193.461 211.649 195.36 210.56 197.503 209.498L197.58 209.459C200.13 208.199 203.023 206.969 206.053 205.812C206.507 205.636 206.961 205.465 207.42 205.293C214.127 202.799 221.357 200.643 226.997 199.148C229.294 198.539 231.33 198.038 232.958 197.669C234.763 197.258 236.631 196.859 238.577 196.473C245.7 195.042 253.8 193.748 263.267 192.578H263.271C271.011 186.873 281.13 180.492 292.834 175.615C294.84 174.775 296.888 173.982 298.984 173.249C303.531 171.642 308.284 170.3 313.195 169.328C317.357 168.505 321.634 167.952 326.006 167.729C328.007 167.63 330 167.566 331.975 167.545C348.831 167.339 364.521 169.829 377.228 172.868C379.581 173.429 381.836 174.012 383.97 174.599C384.044 174.619 384.119 174.64 384.193 174.66L384.269 174.681L384.355 174.705L384.357 174.706L384.443 174.73L384.548 174.759C384.577 174.767 384.605 174.776 384.634 174.783C386.387 175.268 388.054 175.756 389.64 176.24C401.181 179.759 408.21 183.008 408.21 183.008H408.214L406.967 188.365L397.264 193.769C396.814 194.022 396.544 194.493 396.544 194.999V195.023C396.544 195.031 396.545 195.038 396.545 195.047L396.545 195.062C396.545 195.068 396.546 195.074 396.546 195.081C396.547 195.089 396.548 195.098 396.548 195.106C396.608 195.843 397.226 196.409 397.963 196.4L405.128 196.31L404.734 197.995L407.22 209.459L407.438 210.466ZM193.774 240.453C193.997 240.453 194.19 240.312 194.254 240.102C194.269 240.052 194.285 239.998 194.303 239.939V239.938C194.363 239.741 194.438 239.493 194.52 239.21C195.098 237.252 196.123 233.566 195.938 232.64C195.681 231.359 190.594 232.64 190.594 232.64L193.277 234.11V239.21V239.956C193.277 240.23 193.5 240.453 193.774 240.453ZM205.868 216.895C206.224 216.74 206.537 216.428 206.811 216.02C207.373 215.189 207.776 213.946 208.058 212.742C208.388 211.345 208.56 210.003 208.62 209.459C208.637 209.292 208.645 209.198 208.645 209.198C208.564 209.217 208.479 209.236 208.392 209.255C208.265 209.284 208.132 209.315 207.994 209.348C207.885 209.373 207.774 209.401 207.661 209.429L207.657 209.431C207.619 209.44 207.582 209.45 207.544 209.459L207.39 209.498C204.703 210.166 200.61 211.353 197.138 212.742C194.58 213.766 192.36 214.902 191.284 216.02C190.757 216.569 190.5 217.118 190.62 217.645C190.731 218.133 191.087 220.46 191.087 220.46L191.481 220.503C191.481 220.503 203.691 217.855 205.868 216.895ZM394.35 140.961H390.484V145.963H394.35V140.961ZM386.19 140.961H390.056V145.963H386.19V140.961ZM385.761 140.961H381.891V145.963H385.761V140.961ZM377.597 140.961H381.463V145.963H377.597V140.961ZM377.168 140.961H373.303V145.963H377.168V140.961ZM369.008 140.961H372.874V145.963H369.008V140.961ZM368.58 140.961H364.714V145.963H368.58V140.961ZM360.42 140.961H364.286V145.963H360.42V140.961ZM359.991 140.961H356.126V145.963H359.991V140.961ZM351.831 140.961H355.697V145.963H351.831V140.961ZM351.403 140.961H347.537V145.963H351.403V140.961ZM343.238 140.961H347.108V145.963H343.238V140.961ZM342.81 140.961H338.944V145.963H342.81V140.961ZM334.65 140.961H338.516V145.963H334.65V140.961ZM334.221 145.963V140.961H331.975H330.356V145.963H331.975H334.221ZM326.061 140.961H329.927V145.963H326.061V140.961ZM325.633 140.961H321.767V145.963H325.633V140.961ZM317.473 140.961H321.338V145.963H317.473V140.961ZM317.044 145.963V140.961H313.195H313.174V145.963H313.195H317.044ZM308.88 140.961H312.745V145.963H308.88V140.961ZM308.451 140.961H304.586V145.963H308.451V140.961ZM300.291 140.961H304.157V145.963H300.291V140.961ZM299.863 140.961H295.997V145.963H299.863V140.961ZM291.703 140.961H295.568V145.963H291.703V140.961Z" fill="white"/>
<path fill-rule="evenodd" clip-rule="evenodd" d="M366.514 34.8728C366.514 34.8728 372.531 26.5671 390.874 26.5714C399.861 26.5714 401.567 38.0786 401.567 38.0786H355.646C357.129 31.8428 366.514 34.8728 366.514 34.8728ZM404.087 68.0477H400.337V65.4977H392.537V68.0477H396.283V70.5934H404.087V68.0477ZM387.12 239.619C388.62 239.537 390.039 239.4 391.371 239.211H418.714V244.136H385.564C386.276 242.726 386.803 241.209 387.12 239.619ZM75.8572 259.02H418.714V273.454H75.8572V259.02ZM402.467 115.234V116.635H401.057V137.464H402.467V138.865H377.177V137.464H378.587V116.635H377.177V115.234H402.467ZM402.467 80.4343V79.0328H377.177V80.4343H378.587V101.259H377.177V102.66H402.467V101.259H401.057V80.4343H402.467ZM367.221 116.635V115.234H341.936V116.635H343.346V137.464H341.936V138.865H367.221V137.464H365.811V116.635H367.221ZM343.963 108.128H347.709V110.674H341.126V108.128V105.582H343.963V108.128ZM367.221 101.259H365.811V80.4343H367.221V79.0328H341.936V80.4343H343.346V101.259H341.936V102.66H367.221V101.259ZM291.879 173.194C291.879 175.157 290.289 176.747 288.326 176.747C286.363 176.747 284.773 175.157 284.773 173.194V161.061V160.945H284.82H291.879H298.984H306.09H313.196H320.301H327.407H331.976H334.513H341.619H348.724H355.834H362.94H370.046H377.151H384.257H391.363H398.469H405.527H405.574V161.061V173.194C405.574 175.157 403.984 176.747 402.021 176.747C400.059 176.747 398.469 175.157 398.469 173.194C398.469 175.157 396.879 176.747 394.916 176.747C392.953 176.747 391.363 175.157 391.363 173.194C391.363 174.488 390.673 175.62 389.64 176.241C388.054 175.757 386.387 175.268 384.634 174.784C384.394 174.308 384.257 173.768 384.257 173.194C384.257 173.691 384.154 174.167 383.97 174.6C381.836 174.012 379.581 173.43 377.229 172.868C364.521 169.83 348.831 167.34 331.976 167.545C330 167.567 328.007 167.631 326.006 167.73C321.634 167.952 317.357 168.505 313.196 169.328C308.284 170.301 303.531 171.642 298.984 173.25C296.889 173.982 294.84 174.775 292.834 175.615C292.243 174.981 291.879 174.132 291.879 173.194ZM337.457 241.058L250.5 243.57L243.107 243.784C243.051 243.903 242.992 244.019 242.932 244.134L242.931 244.135H337.457V241.058ZM233.807 162.501V164.142H226.997H205.016V162.501H206.254V138.106H205.016V136.465H233.807V138.106H232.573V140.961V162.501H233.807ZM226.997 162.012H231.45V140.961V138.595H207.377V162.012H226.997ZM207.806 161.583H226.997H231.021V140.96V139.023H207.806V161.583ZM207.806 104.275H231.021V126.835H207.806V104.275ZM222.3 196.041V193.495H218.554V190.945H210.75V193.495H214.496V196.041H222.3ZM232.573 127.753H233.807V129.394H205.016V127.753H206.254V103.359H205.016V101.717H233.807V103.359H232.573V127.753ZM207.377 103.847V127.264H231.45V103.847H207.377ZM197.944 138.106V136.465H173.571V138.106V138.586H181.637V138.595H194.58V162.012H181.243V162.008H173.571V162.501V163.323V164.142H197.944V162.501H195.831V138.106H197.944ZM197.944 101.717V103.359H195.831V127.753H197.944V129.394H173.571V128.576V127.753V127.264H181.243H181.637H194.58V103.847H181.637H181.243H173.571V103.359V101.717H197.944ZM194.151 139.023H181.671V161.583H194.151V139.023ZM181.671 104.275H194.151V126.835H181.671V104.275ZM189.309 239.49C189.261 239.396 189.214 239.306 189.167 239.211H95.5243V244.136H192.626C191.486 243.094 190.286 241.371 189.309 239.49ZM190.38 95.463H182.576V92.9173H178.83V90.3716H186.63V92.9173H190.38V95.463ZM181.209 139.014H173.571V161.579H181.209V139.014ZM173.571 104.275H181.209V126.835H173.571V104.275ZM103.444 79.0757H103.873V120.754H107.576V123.3H103.873V163.324H103.444V168.42V173.859C106.329 176.173 108.176 179.734 108.176 183.724C108.176 187.714 106.329 191.271 103.444 193.586V207H156.184H169.286H170.923H171.51H173.143V206.991H172.714V205.294V181.714V179.974V179.456V171.947V164.143V163.324V162.501V162.009V161.58V139.016V138.587V138.107V136.466V129.394V128.576V127.753V127.264V126.836V104.276V103.847V103.359V101.717V90.1886V87.0128V82.8557V70.7271V69.18V68.0486H173.571V70.7271H178.397V65.3657H165.733V67.9114H157.929V65.3657H154.183H98.19V70.7271H103.444V79.0757ZM115.847 77.9229V77.0657H131.383V77.9229H129.484V97.9496H130.603V99.0428H132.227V100.14H115.003V99.0428H116.627V97.9496H117.746V77.9229H115.847ZM115.847 108.557V107.7H131.383V108.557H129.484V128.584H130.603V129.681H132.227V130.774H115.003V129.681H116.627V128.584H117.746V108.557H115.847ZM115.847 139.196V138.339H131.383V139.196H129.484V159.219H130.603V160.316H132.227V161.413H115.003V160.316H116.627V159.219H117.746V139.196H115.847ZM145.2 108.557V107.7H156.184H160.74V108.557H158.837V128.584H159.956V129.681H161.58V130.774H156.184H144.36V129.681H145.98V128.584H147.099V108.557H145.2ZM145.2 139.196V138.339H156.184H160.74V139.196H158.837V159.219H159.956V160.316H161.58V161.413H156.184H144.36V160.316H145.98V159.219H147.099V139.196H145.2ZM109.149 185.7H116.953V188.246H109.149V185.7ZM120.857 190.946V193.496H113.053V190.946H120.857ZM166.826 206.991H156.184H109.761V204.536H128.486V203.263H130.946V177.304H129.069V176.447H147.514V177.304H145.637V177.724V179.259V203.263H148.097V204.536H156.184H166.826V206.991ZM172.689 174.493H170.923H164.884V171.947H161.139V169.401H168.943V171.947H170.923H172.689V174.493ZM158.837 87.0128V90.1886V97.9496H159.956V99.0428H161.58V100.14H156.184H144.36V99.0428H145.98V97.9496H147.099V77.9229H145.2V77.0657H160.74V77.9229H158.837V82.8557V87.0128ZM107.666 46.6658C107.666 46.6658 115.847 39.7915 125.979 40.4258C132.72 40.8458 134.014 49.0787 134.014 49.0787H99.4929C100.607 44.3901 107.666 46.6658 107.666 46.6658Z" fill="white"/>
<path fill-rule="evenodd" clip-rule="evenodd" d="M240.09 57.8345C240.09 57.8345 242.46 43.0402 258.261 43.2373C274.059 43.4344 277.059 63.4702 277.059 63.4702H220.98C223.586 52.5073 240.09 57.8345 240.09 57.8345ZM339.527 72.1325H331.976H324.42C323.537 72.1325 322.826 72.8482 322.826 73.731V123.06C322.826 123.942 323.537 124.658 324.42 124.658H331.976H339.527C340.41 124.658 341.126 123.942 341.126 123.06V110.674V108.128V105.582V102.66V80.4339V73.731C341.126 72.8482 340.41 72.1325 339.527 72.1325ZM339.531 108.128V121.281C339.531 122.322 338.687 123.167 337.646 123.167H331.976H326.306C325.264 123.167 324.416 122.322 324.416 121.281V75.5096C324.416 74.4682 325.264 73.6239 326.306 73.6239H331.976H337.646C338.687 73.6239 339.531 74.4682 339.531 75.5096V105.582V108.128ZM337.646 74.0524H331.976H326.306C325.5 74.0524 324.844 74.7039 324.844 75.5096V121.281C324.844 122.087 325.5 122.738 326.306 122.738H331.976H337.646C338.452 122.738 339.103 122.087 339.103 121.281V108.128V105.582V75.5096C339.103 74.7039 338.452 74.0524 337.646 74.0524ZM313.196 196.838V196.842L313.189 196.843C313.15 196.846 313.112 196.849 313.074 196.852L313.107 196.848C313.137 196.845 313.166 196.842 313.196 196.838ZM312.861 196.872C312.932 196.867 313.003 196.86 313.074 196.852C313.003 196.858 312.932 196.864 312.861 196.872ZM286.136 94.0672H283.294V80.4343H264.137V94.0672H247.466V140.961H238.577V196.474C245.7 195.043 253.8 193.749 263.267 192.579H263.271C271.011 186.874 281.13 180.493 292.834 175.616C292.243 174.981 291.879 174.133 291.879 173.194C291.879 175.157 290.289 176.747 288.326 176.747C286.363 176.747 284.773 175.157 284.773 173.194V161.061V160.946H284.82L290.803 145.963H291.274V140.961H291.377H291.703H295.569H295.997H299.863H300.291H304.157H304.586H308.451H308.88H312.746H313.174H313.196V115.234H286.136V94.0672ZM161.58 161.413V160.316H159.956H156.184H145.98H144.36V161.413H156.184H161.58ZM161.58 129.681V130.774H156.184H144.36V129.681H145.98H156.184H159.956H161.58ZM161.58 100.139V99.042H159.956H156.184H145.98H144.36V100.139H156.184H161.58ZM160.74 77.9229H158.837H147.099H145.2V77.0657H160.74V77.9229ZM148.097 204.536H128.486H109.761V206.991H156.184H166.826V204.536H156.184H148.097ZM145.2 139.195V138.338H156.184H160.74V139.195H158.837H156.184H147.099H145.2ZM145.2 107.699V108.556H147.099H156.184H158.837H160.74V107.699H156.184H145.2ZM143.044 189.926H143.863V193.59H143.044V189.926ZM132.227 160.316H130.603H116.627H115.003V161.413H132.227V160.316ZM130.603 129.681H132.227V130.774H115.003V129.681H116.627H130.603ZM132.227 99.042H130.603H116.627H115.003V100.139H132.227V99.042ZM131.383 77.9229H129.484H117.746H115.847V77.0657H131.383V77.9229ZM117.746 139.195H129.484H131.383V138.338H115.847V139.195H117.746ZM129.484 108.556H117.746H115.847V107.699H131.383V108.556H129.484ZM96.3815 209.46H99.6129V207H103.444V193.585C101.481 195.167 99.0472 196.17 96.3815 196.341V209.46ZM94.6672 209.46H75.8572V168.42H103.444V173.859C101.276 172.114 98.52 171.069 95.5243 171.069C88.5386 171.069 82.8729 176.734 82.8729 183.724C82.8729 190.423 88.08 195.904 94.6672 196.341V209.46Z" fill="#F1F2F2"/>
<path fill-rule="evenodd" clip-rule="evenodd" d="M95.5247 171.068C98.5204 171.068 101.276 172.114 103.445 173.858C106.329 176.173 108.176 179.734 108.176 183.724C108.176 187.714 106.329 191.271 103.445 193.586C101.482 195.167 99.0476 196.17 96.3819 196.341V209.46V209.498H94.6676V209.46V196.341C88.0804 195.904 82.8733 190.423 82.8733 183.724C82.8733 176.734 88.539 171.068 95.5247 171.068ZM207.592 179.456V181.714H206.053V205.294H207.42C206.962 205.466 206.508 205.637 206.053 205.813C203.023 206.97 200.13 208.2 197.58 209.46H176.975V207H173.143V206.991H173.572V205.294V181.714V179.974V179.456H207.592ZM189.395 196.551V192.883H188.572V196.551H189.395ZM186.768 196.551V192.883H185.945V196.551H186.768Z" fill="#E6E7E8"/>
<path fill-rule="evenodd" clip-rule="evenodd" d="M412.427 68.0485V209.46H418.714V216.021H408.081C407.957 214.281 407.739 212.434 407.439 210.467L407.22 209.46L404.734 197.996L405.129 196.311L397.963 196.401C397.226 196.41 396.609 195.844 396.549 195.107C396.544 195.069 396.544 195.034 396.544 195C396.544 194.494 396.814 194.023 397.264 193.77L406.967 188.366L408.214 183.009H408.21C408.21 183.009 401.181 179.76 389.64 176.241C390.673 175.62 391.363 174.489 391.363 173.194C391.363 175.157 392.953 176.747 394.916 176.747C396.879 176.747 398.469 175.157 398.469 173.194C398.469 175.157 400.059 176.747 402.021 176.747C403.984 176.747 405.574 175.157 405.574 173.194V161.061V160.946H405.527H398.469H391.363H384.257H377.151H370.046H362.94H355.834H348.724H341.619H334.513H331.976H327.407H320.301H313.196H306.09H298.984H291.879H284.82L290.803 145.963H291.274V140.961H291.377H291.703V145.963H295.569V140.961H295.997V145.963H299.863V140.961H300.291V145.963H304.157V140.961H304.586V145.963H308.451V140.961H308.88V145.963H312.746V140.961H313.174V145.963H313.196H317.044V140.961H317.473V145.963H321.339V140.961H321.767V145.963H325.633V140.961H326.061V145.963H329.927V140.961H330.356V145.963H331.976H334.221V140.961H331.976V124.659H339.527C340.41 124.659 341.126 123.943 341.126 123.06V110.674H347.709V108.128H343.963V105.582H341.126V102.66V80.4342V73.7314C341.126 72.8485 340.41 72.1328 339.527 72.1328H331.976V68.0485H328.676V58.6757H342.24V55.0628H345.986V45.6514H348.21V55.0628H351.956V58.6757H415.727V68.0485H412.427ZM400.337 65.4985H392.537V68.0485H396.283V70.5942H404.087V68.0485H400.337V65.4985ZM402.467 102.66V101.259H401.057V80.4342H402.467V79.0328H377.177V80.4342H378.587V101.259H377.177V102.66H402.467ZM402.467 138.866V137.464H401.057V116.636H402.467V115.234H377.177V116.636H378.587V137.464H377.177V138.866H402.467ZM341.936 101.259V102.66H367.221V101.259H365.811V80.4342H367.221V79.0328H341.936V80.4342H343.346V101.259H341.936ZM343.346 137.464H341.936V138.866H367.221V137.464H365.811V116.636H367.221V115.234H341.936V116.636H343.346V137.464ZM334.65 140.961V145.963H338.516V140.961H334.65ZM338.944 140.961V145.963H342.81V140.961H338.944ZM343.239 140.961V145.963H347.109V140.961H343.239ZM347.537 140.961V145.963H351.403V140.961H347.537ZM351.831 140.961V145.963H355.697V140.961H351.831ZM356.126 140.961V145.963H359.991V140.961H356.126ZM360.42 140.961V145.963H364.286V140.961H360.42ZM364.714 140.961V145.963H368.58V140.961H364.714ZM369.009 140.961V145.963H372.874V140.961H369.009ZM373.303 140.961V145.963H377.169V140.961H373.303ZM377.597 140.961V145.963H381.463V140.961H377.597ZM381.891 140.961V145.963H385.761V140.961H381.891ZM386.19 140.961V145.963H390.056V140.961H386.19ZM390.484 140.961V145.963H394.35V140.961H390.484ZM394.779 140.961V145.963H398.644V140.961H394.779ZM394.444 231.626C396.707 231.287 398.199 230.966 398.79 230.653C403.221 228.334 406.281 224.541 408.189 221.456C407.73 231.189 403.466 236.456 394.723 238.581C393.673 238.834 392.554 239.044 391.371 239.211C390.039 239.4 388.62 239.537 387.12 239.619C386.803 241.209 386.276 242.726 385.564 244.136C382.629 249.994 376.564 254.014 369.566 254.014C361.234 254.014 354.24 248.331 352.239 240.634H352.234L344.73 240.849L337.457 241.059L250.5 243.57L243.107 243.784C243.051 243.904 242.991 244.02 242.932 244.135L242.931 244.136C239.991 249.994 233.923 254.014 226.924 254.014C220.144 254.014 214.256 250.251 211.209 244.701L203.773 244.92L194.674 245.177C194.061 245.199 193.359 244.809 192.626 244.136C191.486 243.094 190.286 241.371 189.309 239.49C191.481 240.664 194.061 241.894 195.681 242.186C195.891 242.224 196.886 242.224 198.566 242.194C199.723 242.173 201.206 242.139 202.98 242.091C202.62 240.416 202.427 238.68 202.427 236.897C202.427 228.069 207.099 220.329 214.106 216.021C216.724 214.406 219.673 213.274 222.823 212.743C224.156 212.516 225.527 212.4 226.924 212.4H226.997C228.369 212.404 229.714 212.52 231.021 212.743C234.171 213.274 237.12 214.406 239.739 216.021C246.746 220.329 251.417 228.064 251.417 236.897C251.417 237.677 251.383 238.453 251.306 239.211C251.276 239.576 251.233 239.94 251.181 240.296C253.821 240.18 256.513 240.064 259.243 239.953H259.247C264.651 239.717 270.227 239.469 275.897 239.211C291.159 238.513 307.093 237.733 322.243 236.914C322.465 236.902 322.687 236.89 322.909 236.878C323.133 236.866 323.356 236.855 323.58 236.841C323.652 236.838 323.725 236.834 323.798 236.83L323.966 236.821C324.109 236.813 324.252 236.805 324.394 236.797L324.467 236.793C324.745 236.778 325.022 236.762 325.299 236.747C328.65 228.861 330.326 221.901 331.029 216.021C331.311 213.656 331.436 211.466 331.449 209.46C331.461 207.544 331.376 205.8 331.226 204.231L328.487 204.48L317.983 205.427C317.58 205.466 317.224 205.17 317.19 204.767L317.177 204.621C317.139 204.223 317.434 203.867 317.837 203.829L328.311 202.886L331.046 202.637C330.574 199.024 329.803 196.53 329.349 195.283C329.134 195.304 328.92 195.326 328.701 195.347C327.717 195.443 326.731 195.541 325.739 195.639L325.097 195.703C322.68 195.943 320.241 196.179 317.786 196.41C316.967 196.487 316.149 196.564 315.326 196.641L315.246 196.649L315.232 196.65C314.805 196.69 314.377 196.73 313.946 196.77C313.716 196.794 313.484 196.814 313.254 196.834L313.196 196.839C313.122 196.847 313.049 196.856 312.975 196.863C312.937 196.867 312.899 196.87 312.861 196.873L312.779 196.88C312.744 196.883 312.709 196.886 312.674 196.89C312.632 196.893 312.59 196.898 312.549 196.903L312.377 196.919C311.722 196.978 311.064 197.037 310.41 197.1C308.518 197.273 306.626 197.443 304.737 197.612L304.23 197.657L303.696 197.705L302.766 197.787L301.77 197.876L301.698 197.882L301.689 197.883L301.682 197.884C300.485 197.988 299.289 198.093 298.101 198.197C297.679 198.233 297.259 198.27 296.838 198.306L296.834 198.306C296.613 198.326 296.393 198.345 296.172 198.364L295.968 198.381C295.868 198.39 295.767 198.399 295.667 198.407L294.753 198.485C293.398 198.6 292.049 198.715 290.709 198.827C289.707 198.912 288.709 198.995 287.718 199.077L286.95 199.14C284.314 199.354 281.726 199.564 279.197 199.761C278.629 199.809 278.07 199.851 277.51 199.894L277.504 199.894C277.32 199.907 277.136 199.92 276.956 199.937C276.326 199.984 275.7 200.031 275.083 200.079L274.749 200.104L273.969 200.164L273.943 200.166C273.15 200.227 272.365 200.287 271.59 200.344C269.439 200.503 267.347 200.653 265.333 200.794C265.003 200.82 264.673 200.841 264.347 200.863C263.181 200.944 262.046 201.021 260.936 201.094C260.486 201.124 260.044 201.154 259.603 201.184C259.401 201.197 259.196 201.21 258.999 201.223L258.885 201.231C258.603 201.249 258.327 201.268 258.051 201.283C256.491 201.386 254.996 201.476 253.581 201.557C253.149 201.583 252.96 201.021 253.32 200.777C256.719 198.454 261.484 195.395 267.15 192.111H267.154C276.591 186.643 288.523 180.557 300.776 176.28C302.439 175.697 304.11 175.149 305.781 174.639C305.899 174.603 306.018 174.566 306.137 174.531C306.2 174.512 306.263 174.494 306.326 174.476C308.619 173.786 310.916 173.173 313.196 172.654C317.614 171.643 321.973 170.974 326.177 170.764C328.127 170.666 330.06 170.614 331.976 170.601C340.431 170.541 348.531 171.279 355.95 172.427C358.346 172.796 360.669 173.207 362.91 173.653L362.974 173.666C365.237 174.116 367.414 174.591 369.497 175.089C369.769 175.154 370.04 175.22 370.31 175.285C370.481 175.327 370.651 175.368 370.821 175.41C372.249 175.761 373.624 176.117 374.953 176.481C385.037 179.22 392.211 182.117 394.843 183.244C394.226 183.497 393.591 183.754 392.94 184.011C389.057 185.559 384.617 187.17 379.834 188.619C379.556 188.704 379.239 188.79 378.883 188.88C378.831 188.892 378.779 188.904 378.726 188.917L378.623 188.942C378.502 188.971 378.377 189 378.249 189.03L378.248 189.03H378.248H378.247C378.123 189.06 378 189.09 377.867 189.116C377.477 189.206 377.057 189.291 376.607 189.381C376.457 189.411 376.303 189.441 376.149 189.471C375.364 189.626 374.503 189.78 373.564 189.939C373.191 189.999 372.806 190.063 372.407 190.131C372.399 190.131 372.39 190.131 372.381 190.136C372.136 190.174 371.886 190.213 371.631 190.253C371.481 190.277 371.33 190.301 371.177 190.324C370.243 190.47 369.257 190.62 368.216 190.77C367.967 190.809 367.714 190.843 367.457 190.877C366.137 191.066 364.74 191.259 363.27 191.451C363.071 191.478 362.871 191.505 362.67 191.532L362.667 191.532C362.341 191.575 362.013 191.619 361.68 191.661C361.674 191.661 361.667 191.663 361.661 191.664L361.653 191.665C361.649 191.666 361.645 191.666 361.641 191.666C360.917 191.76 360.18 191.854 359.426 191.949C359.208 191.977 358.987 192.004 358.765 192.032C358.586 192.054 358.406 192.076 358.226 192.099C358.159 192.107 358.091 192.116 358.023 192.124C357.951 192.133 357.88 192.141 357.81 192.15C357.36 192.206 356.901 192.261 356.443 192.317C355.993 192.373 355.534 192.429 355.071 192.484C354.668 192.53 354.261 192.579 353.85 192.627H353.85H353.849L353.683 192.647C352.123 192.831 350.516 193.02 348.866 193.204C348.626 193.231 348.386 193.259 348.145 193.287L348.142 193.287L348.134 193.288C347.8 193.326 347.464 193.365 347.126 193.401C346.807 193.437 346.488 193.473 346.167 193.509C345.706 193.56 345.242 193.613 344.777 193.663L344.677 193.674C344.345 193.709 344.011 193.744 343.68 193.783C341.846 193.984 339.973 194.186 338.066 194.383C337.687 194.426 337.308 194.464 336.929 194.502L336.921 194.503C336.763 194.523 336.605 194.538 336.45 194.554H336.447L336.399 194.559C336.328 194.566 336.257 194.574 336.186 194.582C336.078 194.593 335.969 194.604 335.86 194.616L335.598 194.643L335.465 194.657L335.46 194.658C335.328 194.671 335.196 194.685 335.064 194.699C334.911 194.715 334.757 194.731 334.603 194.747L334.503 194.757C334.149 194.793 333.793 194.828 333.437 194.867C332.993 194.91 332.553 194.957 332.109 195.003L331.976 195.017V195.013L331.931 195.018L331.853 195.026L331.751 195.036C331.677 195.044 331.602 195.052 331.527 195.06C331.379 195.076 331.23 195.092 331.08 195.107C330.855 195.13 330.629 195.153 330.403 195.175C330.199 195.195 329.995 195.216 329.79 195.236C330.257 196.539 331.007 199.037 331.474 202.599L331.976 202.556L337.041 202.097C337.44 202.063 337.796 202.359 337.834 202.761L337.847 202.903C337.881 203.306 337.586 203.661 337.183 203.696L331.976 204.167L331.65 204.193C331.8 205.774 331.89 207.531 331.873 209.46C331.86 211.466 331.736 213.656 331.453 216.021C330.759 221.906 329.096 228.853 325.774 236.721C332.143 236.374 338.353 236.019 344.289 235.663C344.43 227.653 348.291 220.551 354.219 216.021C358.474 212.769 363.793 210.836 369.566 210.836C372.93 210.836 376.14 211.491 379.076 212.687C381.171 213.54 383.13 214.663 384.9 216.021C389.816 219.771 393.309 225.291 394.444 231.626ZM383.97 174.599C384.193 174.659 384.416 174.723 384.634 174.783C384.394 174.307 384.257 173.767 384.257 173.193C384.257 173.69 384.154 174.166 383.97 174.599ZM331.976 123.167H326.306C325.264 123.167 324.416 122.322 324.416 121.281V75.5095C324.416 74.4681 325.264 73.6238 326.306 73.6238H331.976H337.646C338.687 73.6238 339.531 74.4681 339.531 75.5095V105.582V108.128V121.281C339.531 122.322 338.687 123.167 337.646 123.167H331.976ZM326.306 74.0524C325.5 74.0524 324.844 74.7038 324.844 75.5095V121.281C324.844 122.087 325.5 122.738 326.306 122.738H331.976H337.646C338.451 122.738 339.103 122.087 339.103 121.281V108.128V105.582V75.5095C339.103 74.7038 338.451 74.0524 337.646 74.0524H331.976H326.306ZM207.377 162.012H226.997H231.45V140.96V138.594H207.377V162.012ZM207.806 139.023H231.021V140.96V161.583H226.997H207.806V139.023ZM207.377 103.847H231.45V127.264H207.377V103.847ZM207.806 126.835H231.021V104.275H207.806V126.835ZM193.277 239.957C193.277 240.231 193.5 240.454 193.774 240.454C193.997 240.454 194.19 240.312 194.254 240.102C194.269 240.053 194.286 239.998 194.304 239.938C194.363 239.742 194.438 239.494 194.52 239.211C195.099 237.252 196.123 233.567 195.939 232.641C195.681 231.36 190.594 232.641 190.594 232.641L193.277 234.111V239.211V239.957ZM197.503 209.499C195.36 210.561 193.461 211.65 191.927 212.743C190.393 213.836 189.227 214.937 188.546 216.021H75.8572V210.771V209.46H94.6672V209.499H96.3815V209.46H99.6129V207H103.444H156.184H169.286H170.923H171.51H173.143H176.974V209.46H197.58L197.503 209.499ZM206.811 216.021C207.373 215.19 207.776 213.947 208.059 212.742C208.389 211.345 208.56 210.004 208.62 209.46C208.637 209.292 208.646 209.198 208.646 209.198C208.623 209.204 208.599 209.209 208.575 209.214C208.548 209.221 208.519 209.227 208.491 209.234L208.405 209.253L208.398 209.255L208.394 209.256L208.392 209.256C208.265 209.285 208.132 209.315 207.994 209.348C207.885 209.374 207.774 209.402 207.661 209.43L207.544 209.46L207.39 209.498C204.703 210.167 200.61 211.354 197.139 212.742C194.58 213.767 192.36 214.902 191.284 216.021C190.757 216.57 190.5 217.118 190.62 217.645C190.731 218.134 191.087 220.461 191.087 220.461L191.481 220.504C191.481 220.504 203.691 217.855 205.869 216.895C206.224 216.741 206.537 216.428 206.811 216.021ZM188.571 192.882H189.394V196.551H188.571V192.882ZM186.767 192.882H185.944V196.551H186.767V192.882ZM173.571 205.293V206.99H173.143H172.714V205.293V181.713V179.973V179.454V171.946V164.142V163.323V162.5V162.007V161.579V139.014V138.586V138.106V136.464V129.393V128.574V127.752V127.263V126.834V104.274V103.846V103.357V101.716V90.1872V87.0115V82.8544V70.7258V69.1787V68.0472H173.571V70.7258V82.8544H243.171V90.1872H238.577V140.96V196.473C236.631 196.859 234.763 197.257 232.959 197.669C231.33 198.037 229.294 198.539 226.997 199.147C221.357 200.643 214.127 202.799 207.42 205.293H206.053V181.713H207.591V179.454H173.571V179.973V181.713V205.293ZM195.831 138.106H197.944V136.464H173.571V138.106V138.586H181.637V138.594H194.58V162.012H181.243V162.007H173.571V162.5V163.323V164.142H197.944V162.5H195.831V138.106ZM181.209 139.014H173.571V161.579H181.209V139.014ZM181.671 139.023V161.583H194.151V139.023H181.671ZM195.831 103.357H197.944V101.716H173.571V103.357V103.846H181.243H181.637H194.58V127.263H181.637H181.243H173.571V127.752V128.574V129.393H197.944V127.752H195.831V103.357ZM181.209 104.274H173.571V126.834H181.209V104.274ZM181.671 104.274V126.834H194.151V104.274H181.671ZM190.38 95.4629V92.9172H186.63V90.3715H178.83V92.9172H182.576V95.4629H190.38ZM214.496 196.04H222.3V193.494H218.554V190.944H210.75V193.494H214.496V196.04ZM233.807 164.142V162.5H232.573V140.96V138.106H233.807V136.464H205.016V138.106H206.254V162.5H205.016V164.142H226.997H233.807ZM205.016 101.716V103.357H206.254V127.752H205.016V129.393H233.807V127.752H232.573V103.357H233.807V101.716H205.016ZM161.139 169.401V171.947H164.884V174.493H170.923H172.689V171.947H170.923H168.943V169.401H161.139ZM165.733 67.9105H157.929V65.3648H154.183V62.8191H161.987V65.3648H165.733V67.9105ZM159.956 160.315V159.218H158.837V139.195H156.184H147.099V159.218H145.98V160.315H156.184H159.956ZM159.956 128.583V129.68H156.184H145.98V128.583H147.099V108.556H156.184H158.837V128.583H159.956ZM159.956 99.0428V97.9499H158.837V90.1885V87.0128V82.8557V77.9228H147.099V97.9499H145.98V99.0428H156.184H159.956ZM128.486 204.534V203.262H130.946V177.303H129.069V176.446H147.514V177.303H145.637V177.723V179.257V203.262H148.097V204.534H128.486ZM143.044 189.924V193.589H143.863V189.924H143.044ZM120.857 190.945H113.053V193.495H120.857V190.945ZM129.484 159.218H130.603V160.315H116.627V159.218H117.746V139.195H129.484V159.218ZM130.603 128.583H129.484V108.556H117.746V128.583H116.627V129.68H130.603V128.583ZM129.484 97.9499H130.603V99.0428H116.627V97.9499H117.746V77.9228H129.484V97.9499ZM116.953 185.699H109.149V188.244H116.953V185.699ZM103.016 123.299H99.7715V120.753H96.0257V118.208H103.016V79.0748H103.444H103.873V120.753H107.576V123.299H103.873V163.323H103.444H103.016V123.299Z" fill="#4A4A4A"/>
</svg>
