<svg width="21" height="22" viewBox="0 0 21 22" fill="none" xmlns="http://www.w3.org/2000/svg">
<path d="M19.25 3.66665H17.4166H14.6666V0.916652C14.6667 0.410652 14.2569 0 13.75 0H6.41665C5.90975 0 5.5 0.410652 5.5 0.916652V3.66665H2.75H0.916653C0.40975 3.66665 0 4.0773 0 4.5833C0 5.0893 0.409707 5.5 0.916653 5.5H1.83331V19.25C1.83331 20.7662 3.06715 22 4.58331 22H15.5833C17.0995 22 18.3333 20.7662 18.3333 19.25V5.5H19.25C19.7569 5.5 20.1666 5.08935 20.1666 4.58335C20.1666 4.07735 19.7569 3.66665 19.25 3.66665ZM7.33331 1.83335H12.8333V3.6667H7.33331V1.83335ZM16.5 19.25C16.5 19.7551 16.0893 20.1667 15.5833 20.1667H4.58331C4.07731 20.1667 3.66665 19.7551 3.66665 19.25V5.5H6.41665H13.75H16.5V19.25H16.5Z" fill="#FF647C"/>
<path d="M7.33364 7.33301C6.82674 7.33301 6.41699 7.74366 6.41699 8.24966V16.4997C6.41699 17.0057 6.82674 17.4163 7.33364 17.4163C7.84055 17.4163 8.2503 17.0057 8.2503 16.4997V8.24966C8.2503 7.74366 7.84055 7.33301 7.33364 7.33301Z" fill="#FF647C"/>
<path d="M12.8336 7.33301C12.3267 7.33301 11.917 7.74366 11.917 8.24966V16.4997C11.917 17.0057 12.3267 17.4163 12.8336 17.4163C13.3405 17.4163 13.7503 17.0057 13.7503 16.4997V8.24966C13.7503 7.74366 13.3405 7.33301 12.8336 7.33301Z" fill="#FF647C"/>
</svg>
