<svg width="13" height="13" viewBox="0 0 13 13" fill="none" xmlns="http://www.w3.org/2000/svg">
<g opacity="0.5">
<path fill-rule="evenodd" clip-rule="evenodd" d="M3.79183 2.70818H2.7085H1.62516C1.32601 2.70818 1.0835 2.95069 1.0835 3.24984C1.0835 3.549 1.32601 3.79151 1.62516 3.79151H2.16683V10.8332C2.16683 11.7306 2.89437 12.4582 3.79183 12.4582H9.2085C10.106 12.4582 10.8335 11.7306 10.8335 10.8332V3.79151H11.3752C11.6743 3.79151 11.9168 3.549 11.9168 3.24984C11.9168 2.95069 11.6743 2.70818 11.3752 2.70818H10.2918H9.2085V2.1665C9.2085 1.26904 8.48096 0.541504 7.5835 0.541504H5.41683C4.51937 0.541504 3.79183 1.26904 3.79183 2.1665V2.70818ZM4.87516 2.70818H8.12516V2.1665C8.12516 1.86735 7.88265 1.62484 7.5835 1.62484H5.41683C5.11767 1.62484 4.87516 1.86735 4.87516 2.1665V2.70818ZM3.25016 10.8332V3.79151H9.75016V10.8332C9.75016 11.1323 9.50765 11.3748 9.2085 11.3748H3.79183C3.49267 11.3748 3.25016 11.1323 3.25016 10.8332ZM4.87516 5.95817V9.20817C4.87516 9.50733 5.11768 9.74984 5.41683 9.74984C5.71598 9.74984 5.9585 9.50733 5.9585 9.20817V5.95817C5.9585 5.65902 5.71598 5.4165 5.41683 5.4165C5.11768 5.4165 4.87516 5.65902 4.87516 5.95817ZM7.04183 9.20817V5.95817C7.04183 5.65902 7.28434 5.4165 7.5835 5.4165C7.88265 5.4165 8.12516 5.65902 8.12516 5.95817V9.20817C8.12516 9.50733 7.88265 9.74984 7.5835 9.74984C7.28434 9.74984 7.04183 9.50733 7.04183 9.20817Z" fill="black"/>
<mask id="mask0" mask-type="alpha" maskUnits="userSpaceOnUse" x="1" y="0" width="11" height="13">
<path fill-rule="evenodd" clip-rule="evenodd" d="M3.79183 2.70818H2.7085H1.62516C1.32601 2.70818 1.0835 2.95069 1.0835 3.24984C1.0835 3.549 1.32601 3.79151 1.62516 3.79151H2.16683V10.8332C2.16683 11.7306 2.89437 12.4582 3.79183 12.4582H9.2085C10.106 12.4582 10.8335 11.7306 10.8335 10.8332V3.79151H11.3752C11.6743 3.79151 11.9168 3.549 11.9168 3.24984C11.9168 2.95069 11.6743 2.70818 11.3752 2.70818H10.2918H9.2085V2.1665C9.2085 1.26904 8.48096 0.541504 7.5835 0.541504H5.41683C4.51937 0.541504 3.79183 1.26904 3.79183 2.1665V2.70818ZM4.87516 2.70818H8.12516V2.1665C8.12516 1.86735 7.88265 1.62484 7.5835 1.62484H5.41683C5.11767 1.62484 4.87516 1.86735 4.87516 2.1665V2.70818ZM3.25016 10.8332V3.79151H9.75016V10.8332C9.75016 11.1323 9.50765 11.3748 9.2085 11.3748H3.79183C3.49267 11.3748 3.25016 11.1323 3.25016 10.8332ZM4.87516 5.95817V9.20817C4.87516 9.50733 5.11768 9.74984 5.41683 9.74984C5.71598 9.74984 5.9585 9.50733 5.9585 9.20817V5.95817C5.9585 5.65902 5.71598 5.4165 5.41683 5.4165C5.11768 5.4165 4.87516 5.65902 4.87516 5.95817ZM7.04183 9.20817V5.95817C7.04183 5.65902 7.28434 5.4165 7.5835 5.4165C7.88265 5.4165 8.12516 5.65902 8.12516 5.95817V9.20817C8.12516 9.50733 7.88265 9.74984 7.5835 9.74984C7.28434 9.74984 7.04183 9.50733 7.04183 9.20817Z" fill="white"/>
</mask>
<g mask="url(#mask0)">
<rect width="13" height="13" fill="black"/>
</g>
</g>
</svg>
