<?xml version="1.0" encoding="utf-8"?>
<!-- Generator: Adobe Illustrator 25.2.1, SVG Export Plug-In . SVG Version: 6.00 Build 0)  -->
<svg version="1.1" id="Layer_1" xmlns="http://www.w3.org/2000/svg" xmlns:xlink="http://www.w3.org/1999/xlink" x="0px" y="0px"
	 viewBox="0 0 48 48" style="enable-background:new 0 0 48 48;" xml:space="preserve">
<style type="text/css">
	.st0{fill:#FFFFFF;}
	.st1{fill:#FF647C;}
</style>
<g>
	<circle class="st0" cx="24" cy="24" r="24"/>
</g>
<path class="st1" d="M33.2,16.7h-1.8h-2.8v-2.8c0-0.5-0.4-0.9-0.9-0.9h-7.3c-0.5,0-0.9,0.4-0.9,0.9v2.8h-2.8h-1.8
	c-0.5,0-0.9,0.4-0.9,0.9s0.4,0.9,0.9,0.9h0.9v13.8c0,1.5,1.2,2.8,2.8,2.8h11c1.5,0,2.8-1.2,2.8-2.8V18.5h0.9c0.5,0,0.9-0.4,0.9-0.9
	S33.8,16.7,33.2,16.7z M21.3,14.8h5.5v1.8h-5.5V14.8z M30.5,32.2c0,0.5-0.4,0.9-0.9,0.9h-11c-0.5,0-0.9-0.4-0.9-0.9V18.5h2.7h7.3
	h2.8V32.2L30.5,32.2z"/>
<path class="st1" d="M21.3,20.3c-0.5,0-0.9,0.4-0.9,0.9v8.2c0,0.5,0.4,0.9,0.9,0.9c0.5,0,0.9-0.4,0.9-0.9v-8.2
	C22.2,20.7,21.8,20.3,21.3,20.3z"/>
<path class="st1" d="M26.8,20.3c-0.5,0-0.9,0.4-0.9,0.9v8.2c0,0.5,0.4,0.9,0.9,0.9c0.5,0,0.9-0.4,0.9-0.9v-8.2
	C27.7,20.7,27.3,20.3,26.8,20.3z"/>
</svg>
