<svg width="20" height="20" viewBox="0 0 20 20" fill="none" xmlns="http://www.w3.org/2000/svg">
<path fill-rule="evenodd" clip-rule="evenodd" d="M10.0002 0C4.47711 0 0 4.47689 0 10C0 15.5231 4.47711 20 10.0002 20C15.5227 20 20 15.5231 20 10C19.9998 4.47711 15.5227 0 10.0002 0ZM10.0002 1.98778C14.2064 1.98778 17.6531 5.23022 17.9833 9.35156C14.1131 9.20289 12.3136 7.64911 10.0002 7.64911C7.77178 7.64911 5.89644 9.20311 2.016 9.35156C2.34644 5.23022 5.79333 1.98778 10.0002 1.98778ZM8.29133 9.99978C8.29133 9.05622 9.056 8.29133 10 8.29133C10.9433 8.29133 11.7078 9.056 11.7078 9.99978C11.7078 10.9431 10.9433 11.7082 10 11.7082C9.056 11.7082 8.29133 10.9433 8.29133 9.99978ZM2.228 11.9498C3.51244 11.262 6.94067 9.73889 8.52089 12.0922C9.288 13.2349 8.54955 16.8158 8.31867 17.8342C5.33333 17.1962 2.96511 14.8971 2.228 11.9498ZM11.682 17.8336C11.4518 16.802 10.7056 13.1429 11.4789 12.092C13.2084 9.74156 16.5209 11.2462 17.774 11.94C17.0393 14.8916 14.67 17.1949 11.682 17.8336Z" fill="black"/>
</svg>
