<svg width="53" height="53" viewBox="0 0 53 53" fill="none" xmlns="http://www.w3.org/2000/svg">
<circle cx="26.5" cy="26.5" r="26.5" fill="#A9E2C1"/>
<path fill-rule="evenodd" clip-rule="evenodd" d="M27 38C20.9249 38 16 33.0751 16 27C16 20.9249 20.9249 16 27 16C33.0751 16 38 20.9249 38 27C38 33.0751 33.0751 38 27 38ZM27 36C31.9706 36 36 31.9706 36 27C36 22.0295 31.9706 18 27 18C22.0295 18 18 22.0295 18 27C18 31.9706 22.0295 36 27 36ZM27 20C27.5523 20 28 20.4477 28 21V26.5858L30.7071 29.2929C31.0976 29.6834 31.0976 30.3166 30.7071 30.7071C30.3166 31.0976 29.6834 31.0976 29.2929 30.7071L26.2929 27.7071C26.1053 27.5196 26 27.2652 26 27V21C26 20.4477 26.4477 20 27 20Z" fill="black"/>
<mask id="mask0" mask-type="alpha" maskUnits="userSpaceOnUse" x="16" y="16" width="22" height="22">
<path fill-rule="evenodd" clip-rule="evenodd" d="M27 38C20.9249 38 16 33.0751 16 27C16 20.9249 20.9249 16 27 16C33.0751 16 38 20.9249 38 27C38 33.0751 33.0751 38 27 38ZM27 36C31.9706 36 36 31.9706 36 27C36 22.0295 31.9706 18 27 18C22.0295 18 18 22.0295 18 27C18 31.9706 22.0295 36 27 36ZM27 20C27.5523 20 28 20.4477 28 21V26.5858L30.7071 29.2929C31.0976 29.6834 31.0976 30.3166 30.7071 30.7071C30.3166 31.0976 29.6834 31.0976 29.2929 30.7071L26.2929 27.7071C26.1053 27.5196 26 27.2652 26 27V21C26 20.4477 26.4477 20 27 20Z" fill="white"/>
</mask>
<g mask="url(#mask0)">
<rect x="15" y="15" width="24" height="24" fill="black"/>
</g>
</svg>
