<svg width="53" height="53" viewBox="0 0 53 53" fill="none" xmlns="http://www.w3.org/2000/svg">
<circle cx="26.5" cy="26.5" r="26.5" fill="#C5E4FB"/>
<path fill-rule="evenodd" clip-rule="evenodd" d="M24.375 24.5003C22.4189 24.5003 20.8333 22.9147 20.8333 20.9587C20.8333 19.0027 22.4189 17.417 24.375 17.417C26.331 17.417 27.9166 19.0027 27.9166 20.9587C27.9166 22.9147 26.331 24.5003 24.375 24.5003ZM30.75 30.8753V29.4587C30.75 27.5027 29.1643 25.917 27.2083 25.917H21.5417C19.5857 25.917 18 27.5027 18 29.4587V30.8753C18 31.2665 18.3171 31.5837 18.7083 31.5837C19.0995 31.5837 19.4167 31.2665 19.4167 30.8753V29.4587C19.4167 28.2851 20.3681 27.3337 21.5417 27.3337H27.2083C28.3819 27.3337 29.3333 28.2851 29.3333 29.4587V30.8753C29.3333 31.2665 29.6505 31.5837 30.0417 31.5837C30.4329 31.5837 30.75 31.2665 30.75 30.8753ZM35 29.4587V30.8753C35 31.2665 34.6829 31.5837 34.2917 31.5837C33.9005 31.5837 33.5834 31.2665 33.5834 30.8753V29.4592C33.5826 28.4908 32.9273 27.6453 31.9896 27.4032C31.6108 27.3054 31.3831 26.9191 31.4809 26.5403C31.5787 26.1615 31.965 25.9338 32.3438 26.0316C33.9065 26.4351 34.9988 27.8441 35 29.4587ZM29.1576 18.9036C30.0978 19.1443 30.7555 19.9916 30.7555 20.9622C30.7555 21.9328 30.0978 22.78 29.1576 23.0208C28.7786 23.1178 28.55 23.5037 28.6471 23.8827C28.7441 24.2617 29.13 24.4902 29.509 24.3932C31.0761 23.9919 32.1722 22.5799 32.1722 20.9622C32.1722 19.3445 31.0761 17.9324 29.509 17.5312C29.13 17.4342 28.7441 17.6627 28.6471 18.0417C28.55 18.4207 28.7786 18.8066 29.1576 18.9036ZM26.5 20.9587C26.5 22.1323 25.5486 23.0837 24.375 23.0837C23.2014 23.0837 22.25 22.1323 22.25 20.9587C22.25 19.7851 23.2014 18.8337 24.375 18.8337C25.5486 18.8337 26.5 19.7851 26.5 20.9587Z" fill="black"/>
<mask id="mask0" mask-type="alpha" maskUnits="userSpaceOnUse" x="18" y="17" width="17" height="15">
<path fill-rule="evenodd" clip-rule="evenodd" d="M24.375 24.5003C22.4189 24.5003 20.8333 22.9147 20.8333 20.9587C20.8333 19.0027 22.4189 17.417 24.375 17.417C26.331 17.417 27.9166 19.0027 27.9166 20.9587C27.9166 22.9147 26.331 24.5003 24.375 24.5003ZM30.75 30.8753V29.4587C30.75 27.5027 29.1643 25.917 27.2083 25.917H21.5417C19.5857 25.917 18 27.5027 18 29.4587V30.8753C18 31.2665 18.3171 31.5837 18.7083 31.5837C19.0995 31.5837 19.4167 31.2665 19.4167 30.8753V29.4587C19.4167 28.2851 20.3681 27.3337 21.5417 27.3337H27.2083C28.3819 27.3337 29.3333 28.2851 29.3333 29.4587V30.8753C29.3333 31.2665 29.6505 31.5837 30.0417 31.5837C30.4329 31.5837 30.75 31.2665 30.75 30.8753ZM35 29.4587V30.8753C35 31.2665 34.6829 31.5837 34.2917 31.5837C33.9005 31.5837 33.5834 31.2665 33.5834 30.8753V29.4592C33.5826 28.4908 32.9273 27.6453 31.9896 27.4032C31.6108 27.3054 31.3831 26.9191 31.4809 26.5403C31.5787 26.1615 31.965 25.9338 32.3438 26.0316C33.9065 26.4351 34.9988 27.8441 35 29.4587ZM29.1576 18.9036C30.0978 19.1443 30.7555 19.9916 30.7555 20.9622C30.7555 21.9328 30.0978 22.78 29.1576 23.0208C28.7786 23.1178 28.55 23.5037 28.6471 23.8827C28.7441 24.2617 29.13 24.4902 29.509 24.3932C31.0761 23.9919 32.1722 22.5799 32.1722 20.9622C32.1722 19.3445 31.0761 17.9324 29.509 17.5312C29.13 17.4342 28.7441 17.6627 28.6471 18.0417C28.55 18.4207 28.7786 18.8066 29.1576 18.9036ZM26.5 20.9587C26.5 22.1323 25.5486 23.0837 24.375 23.0837C23.2014 23.0837 22.25 22.1323 22.25 20.9587C22.25 19.7851 23.2014 18.8337 24.375 18.8337C25.5486 18.8337 26.5 19.7851 26.5 20.9587Z" fill="white"/>
</mask>
<g mask="url(#mask0)">
<rect x="18" y="16" width="17" height="17" fill="black"/>
</g>
</svg>
