<?xml version="1.0" encoding="utf-8"?>
<!-- Generator: Adobe Illustrator 25.2.1, SVG Export Plug-In . SVG Version: 6.00 Build 0)  -->
<svg version="1.1" id="Layer_1" xmlns="http://www.w3.org/2000/svg" xmlns:xlink="http://www.w3.org/1999/xlink" x="0px" y="0px"
	 viewBox="0 0 14.6 14.7" style="enable-background:new 0 0 14.6 14.7;" xml:space="preserve">
<style type="text/css">
	.st0{fill-rule:evenodd;clip-rule:evenodd;fill:#474747;}
</style>
<path class="st0" d="M7.3,14.7c-4,0-7.3-3.3-7.3-7.3C0,3.3,3.3,0,7.3,0c4,0,7.3,3.3,7.3,7.3C14.6,11.4,11.3,14.7,7.3,14.7z
	 M7.3,13.3c3.3,0,6-2.7,6-6c0-3.3-2.7-6-6-6c-3.3,0-6,2.7-6,6C1.3,10.6,4,13.3,7.3,13.3z M7.3,2.7C7.7,2.7,8,3,8,3.3v3.7l1.8,1.8
	c0.3,0.3,0.3,0.7,0,0.9c-0.3,0.3-0.7,0.3-0.9,0l-2-2C6.7,7.7,6.6,7.5,6.6,7.3v-4C6.6,3,6.9,2.7,7.3,2.7z"/>
</svg>
