<svg width="17" height="16" viewBox="0 0 17 16" fill="none" xmlns="http://www.w3.org/2000/svg">
<path fill-rule="evenodd" clip-rule="evenodd" d="M8.90256 15.3337C4.8671 15.3337 1.5957 12.0504 1.5957 8.00033C1.5957 3.95024 4.8671 0.666992 8.90256 0.666992C12.938 0.666992 16.2094 3.95024 16.2094 8.00033C16.2094 12.0504 12.938 15.3337 8.90256 15.3337ZM8.90257 14.0003C12.2043 14.0003 14.8809 11.3141 14.8809 8.00034C14.8809 4.68663 12.2043 2.00034 8.90257 2.00034C5.60082 2.00034 2.92423 4.68663 2.92423 8.00034C2.92423 11.3141 5.60082 14.0003 8.90257 14.0003ZM8.90256 3.33364C9.26942 3.33364 9.56682 3.63212 9.56682 4.00031V7.72417L11.365 9.5289C11.6244 9.78925 11.6244 10.2114 11.365 10.4717C11.1056 10.7321 10.685 10.7321 10.4256 10.4717L8.43286 8.47171C8.30828 8.34669 8.2383 8.17712 8.2383 8.00031V4.00031C8.2383 3.63212 8.5357 3.33364 8.90256 3.33364Z" fill="#474747"/>
<mask id="mask0" mask-type="alpha" maskUnits="userSpaceOnUse" x="1" y="0" width="16" height="16">
<path fill-rule="evenodd" clip-rule="evenodd" d="M8.90256 15.3337C4.8671 15.3337 1.5957 12.0504 1.5957 8.00033C1.5957 3.95024 4.8671 0.666992 8.90256 0.666992C12.938 0.666992 16.2094 3.95024 16.2094 8.00033C16.2094 12.0504 12.938 15.3337 8.90256 15.3337ZM8.90257 14.0003C12.2043 14.0003 14.8809 11.3141 14.8809 8.00034C14.8809 4.68663 12.2043 2.00034 8.90257 2.00034C5.60082 2.00034 2.92423 4.68663 2.92423 8.00034C2.92423 11.3141 5.60082 14.0003 8.90257 14.0003ZM8.90256 3.33364C9.26942 3.33364 9.56682 3.63212 9.56682 4.00031V7.72417L11.365 9.5289C11.6244 9.78925 11.6244 10.2114 11.365 10.4717C11.1056 10.7321 10.685 10.7321 10.4256 10.4717L8.43286 8.47171C8.30828 8.34669 8.2383 8.17712 8.2383 8.00031V4.00031C8.2383 3.63212 8.5357 3.33364 8.90256 3.33364Z" fill="white"/>
</mask>
<g mask="url(#mask0)">
<rect x="-1.0614" width="15.9422" height="16" fill="#474747"/>
</g>
</svg>
