<svg width="18" height="20" viewBox="0 0 18 20" fill="none" xmlns="http://www.w3.org/2000/svg">
<path d="M7.55 0.529535C7.95577 0.187557 8.46935 0 9 0C9.53065 0 10.0442 0.187557 10.45 0.529535L17.2 6.22153C17.707 6.64953 18 7.27853 18 7.94153V17.7445C18 18.2087 17.8156 18.6538 17.4874 18.982C17.1592 19.3102 16.7141 19.4945 16.25 19.4945H12.75C12.2859 19.4945 11.8408 19.3102 11.5126 18.982C11.1844 18.6538 11 18.2087 11 17.7445V12.2445C11 12.1782 10.9737 12.1146 10.9268 12.0678C10.8799 12.0209 10.8163 11.9945 10.75 11.9945H7.25C7.1837 11.9945 7.12011 12.0209 7.07322 12.0678C7.02634 12.1146 7 12.1782 7 12.2445V17.7445C7 18.2087 6.81563 18.6538 6.48744 18.982C6.15925 19.3102 5.71413 19.4945 5.25 19.4945H1.75C1.52019 19.4945 1.29262 19.4493 1.0803 19.3613C0.867984 19.2734 0.675066 19.1445 0.512563 18.982C0.350061 18.8195 0.221157 18.6266 0.133211 18.4142C0.0452652 18.2019 0 17.9743 0 17.7445V7.94153C0 7.27853 0.293 6.64953 0.8 6.22153L7.55 0.529535ZM9.483 1.67653C9.34779 1.56272 9.17673 1.5003 9 1.5003C8.82327 1.5003 8.65221 1.56272 8.517 1.67653L1.767 7.36753C1.68347 7.43785 1.6163 7.52556 1.57018 7.62453C1.52406 7.7235 1.50011 7.83135 1.5 7.94053V17.7435C1.5 17.8815 1.612 17.9935 1.75 17.9935H5.25C5.3163 17.9935 5.37989 17.9672 5.42678 17.9203C5.47366 17.8734 5.5 17.8098 5.5 17.7435V12.2435C5.5 11.2765 6.284 10.4935 7.25 10.4935H10.75C11.716 10.4935 12.5 11.2765 12.5 12.2435V17.7435C12.5 17.8815 12.612 17.9935 12.75 17.9935H16.25C16.3163 17.9935 16.3799 17.9672 16.4268 17.9203C16.4737 17.8734 16.5 17.8098 16.5 17.7435V7.94153C16.4999 7.83235 16.4759 7.7245 16.4298 7.62553C16.3837 7.52656 16.3165 7.43885 16.233 7.36854L9.483 1.67653Z" fill="black"/>
</svg>
