<svg width="17" height="16" viewBox="0 0 17 16" fill="none" xmlns="http://www.w3.org/2000/svg">
<path fill-rule="evenodd" clip-rule="evenodd" d="M15.4932 14.7596C15.9067 14.3788 16.141 13.8408 16.1388 13.2777L16.1388 11.2878C16.1593 10.2765 15.4237 9.40837 14.4248 9.26693C13.8308 9.18827 13.2534 9.04391 12.6976 8.83579C11.9709 8.56162 11.1499 8.73734 10.5968 9.28636L10.1178 9.76702C10.1178 9.76702 10.1178 9.76701 10.1178 9.76701L10.1178 9.76703C8.89245 8.98313 7.8527 7.93961 7.07163 6.70986L7.54797 6.2318C8.09762 5.67396 8.27271 4.85003 7.99896 4.11915C7.79215 3.56291 7.64832 2.98342 7.57076 2.39322C7.42993 1.39306 6.57738 0.65721 5.57714 0.667091L3.5909 0.667058C3.0309 0.667587 2.49749 0.904048 2.12037 1.31868C1.74324 1.73331 1.55712 2.28793 1.60746 2.84706C1.83753 5.02225 2.57146 7.10244 3.7508 8.92952C4.81982 10.618 6.25033 12.0537 7.9376 13.1297C9.74469 14.3059 11.8073 15.0423 13.9547 15.2765C14.5255 15.3284 15.0797 15.1403 15.4932 14.7596ZM10.1178 9.76703L9.75051 10.1356L10.5486 10.0275C10.4026 9.94418 10.259 9.85733 10.1178 9.76702L10.1178 9.76705C10.1178 9.76705 10.1178 9.76704 10.1178 9.76703ZM14.8103 11.2804C14.8188 10.9254 14.5732 10.6345 14.2451 10.588C13.5577 10.497 12.8828 10.3283 12.2317 10.0844C11.9889 9.99284 11.7153 10.0514 11.5335 10.2318L10.6899 11.0785C10.4785 11.2907 10.1518 11.3349 9.89188 11.1866C8.12494 10.1782 6.66194 8.70992 5.65723 6.93658C5.50942 6.6757 5.55352 6.34785 5.76496 6.13564L6.60595 5.29162C6.78829 5.10656 6.84666 4.83191 6.75485 4.58678C6.51245 3.93483 6.34431 3.25744 6.25449 2.57368C6.20782 2.24234 5.92364 1.99706 5.58369 2.00038L3.59153 2.00038C3.40507 2.00056 3.22727 2.07938 3.10157 2.21759C2.97586 2.3558 2.91381 2.54067 2.92958 2.71665C3.1366 4.67318 3.79992 6.55327 4.86895 8.2095C5.83652 9.73768 7.12747 11.0333 8.65529 12.0077C10.2932 13.0737 12.1574 13.7393 14.0862 13.9498C14.2725 13.9667 14.4572 13.9039 14.5951 13.777C14.7329 13.6501 14.811 13.4708 14.8103 13.2804V11.2804Z" fill="#474747"/>
<mask id="mask0" mask-type="alpha" maskUnits="userSpaceOnUse" x="1" y="0" width="16" height="16">
<path fill-rule="evenodd" clip-rule="evenodd" d="M15.4932 14.7596C15.9067 14.3788 16.141 13.8408 16.1388 13.2777L16.1388 11.2878C16.1593 10.2765 15.4237 9.40837 14.4248 9.26693C13.8308 9.18827 13.2534 9.04391 12.6976 8.83579C11.9709 8.56162 11.1499 8.73734 10.5968 9.28636L10.1178 9.76702C10.1178 9.76702 10.1178 9.76701 10.1178 9.76701L10.1178 9.76703C8.89245 8.98313 7.8527 7.93961 7.07163 6.70986L7.54797 6.2318C8.09762 5.67396 8.27271 4.85003 7.99896 4.11915C7.79215 3.56291 7.64832 2.98342 7.57076 2.39322C7.42993 1.39306 6.57738 0.65721 5.57714 0.667091L3.5909 0.667058C3.0309 0.667587 2.49749 0.904048 2.12037 1.31868C1.74324 1.73331 1.55712 2.28793 1.60746 2.84706C1.83753 5.02225 2.57146 7.10244 3.7508 8.92952C4.81982 10.618 6.25033 12.0537 7.9376 13.1297C9.74469 14.3059 11.8073 15.0423 13.9547 15.2765C14.5255 15.3284 15.0797 15.1403 15.4932 14.7596ZM10.1178 9.76703L9.75051 10.1356L10.5486 10.0275C10.4026 9.94418 10.259 9.85733 10.1178 9.76702L10.1178 9.76705C10.1178 9.76705 10.1178 9.76704 10.1178 9.76703ZM14.8103 11.2804C14.8188 10.9254 14.5732 10.6345 14.2451 10.588C13.5577 10.497 12.8828 10.3283 12.2317 10.0844C11.9889 9.99284 11.7153 10.0514 11.5335 10.2318L10.6899 11.0785C10.4785 11.2907 10.1518 11.3349 9.89188 11.1866C8.12494 10.1782 6.66194 8.70992 5.65723 6.93658C5.50942 6.6757 5.55352 6.34785 5.76496 6.13564L6.60595 5.29162C6.78829 5.10656 6.84666 4.83191 6.75485 4.58678C6.51245 3.93483 6.34431 3.25744 6.25449 2.57368C6.20782 2.24234 5.92364 1.99706 5.58369 2.00038L3.59153 2.00038C3.40507 2.00056 3.22727 2.07938 3.10157 2.21759C2.97586 2.3558 2.91381 2.54067 2.92958 2.71665C3.1366 4.67318 3.79992 6.55327 4.86895 8.2095C5.83652 9.73768 7.12747 11.0333 8.65529 12.0077C10.2932 13.0737 12.1574 13.7393 14.0862 13.9498C14.2725 13.9667 14.4572 13.9039 14.5951 13.777C14.7329 13.6501 14.811 13.4708 14.8103 13.2804V11.2804Z" fill="white"/>
</mask>
<g mask="url(#mask0)">
<rect x="-0.0612793" width="15.9422" height="16" fill="#474747"/>
</g>
</svg>
