<?xml version="1.0" encoding="utf-8"?>
<!-- Generator: Adobe Illustrator 25.2.1, SVG Export Plug-In . SVG Version: 6.00 Build 0)  -->
<svg version="1.1" id="Layer_1" xmlns="http://www.w3.org/2000/svg" xmlns:xlink="http://www.w3.org/1999/xlink" x="0px" y="0px"
	 viewBox="0 0 14.5 14.6" style="enable-background:new 0 0 14.5 14.6;" xml:space="preserve">
<style type="text/css">
	.st0{fill-rule:evenodd;clip-rule:evenodd;fill:#474747;}
</style>
<path class="st0" d="M13.9,14.1c0.4-0.4,0.6-0.9,0.6-1.5v-2c0-1-0.7-1.9-1.7-2c-0.6-0.1-1.2-0.2-1.7-0.4C10.4,7.9,9.6,8.1,9,8.6
	L8.5,9.1v0v0C7.3,8.3,6.3,7.3,5.5,6l0.5-0.5C6.5,5,6.7,4.2,6.4,3.5C6.2,2.9,6,2.3,6,1.7C5.8,0.7,5,0,4,0L2,0C1.4,0,0.9,0.2,0.5,0.7
	C0.1,1.1,0,1.6,0,2.2c0.2,2.2,1,4.3,2.1,6.1c1.1,1.7,2.5,3.1,4.2,4.2c1.8,1.2,3.9,1.9,6,2.1C12.9,14.7,13.5,14.5,13.9,14.1z
	 M13.2,10.6c0-0.4-0.2-0.6-0.6-0.7c-0.7-0.1-1.4-0.3-2-0.5c-0.2-0.1-0.5,0-0.7,0.1l-0.8,0.8c-0.2,0.2-0.5,0.3-0.8,0.1
	C6.5,9.5,5.1,8,4.1,6.3C3.9,6,4,5.7,4.2,5.5L5,4.6c0.2-0.2,0.2-0.5,0.1-0.7c-0.2-0.7-0.4-1.3-0.5-2c0-0.3-0.3-0.6-0.7-0.6H2
	c-0.2,0-0.4,0.1-0.5,0.2C1.4,1.7,1.3,1.9,1.3,2c0.2,2,0.9,3.8,1.9,5.5c1,1.5,2.3,2.8,3.8,3.8c1.6,1.1,3.5,1.7,5.4,1.9
	c0.2,0,0.4,0,0.5-0.2c0.1-0.1,0.2-0.3,0.2-0.5V10.6z"/>
</svg>
