<?xml version="1.0" encoding="utf-8"?>
<!-- Generator: Adobe Illustrator 25.2.1, SVG Export Plug-In . SVG Version: 6.00 Build 0)  -->
<svg version="1.1" id="Layer_1" xmlns="http://www.w3.org/2000/svg" xmlns:xlink="http://www.w3.org/1999/xlink" x="0px" y="0px"
	 viewBox="0 0 12 13.3" style="enable-background:new 0 0 12 13.3;" xml:space="preserve">
<style type="text/css">
	.st0{fill-rule:evenodd;clip-rule:evenodd;fill:#474747;}
	.st1{fill-rule:evenodd;clip-rule:evenodd;fill:#FFFFFF;filter:url(#Adobe_OpacityMaskFilter);}
	.st2{mask:url(#mask0_1_);}
</style>
<path class="st0" d="M6,6.7c-1.8,0-3.3-1.5-3.3-3.3S4.1,0,6,0c1.8,0,3.3,1.5,3.3,3.3S7.8,6.7,6,6.7z M12,12.7v-1.3
	C12,9.5,10.5,8,8.6,8H3.3C1.5,8,0,9.5,0,11.3v1.3c0,0.4,0.3,0.7,0.7,0.7s0.7-0.3,0.7-0.7v-1.3c0-1.1,0.9-2,2-2h5.3c1.1,0,2,0.9,2,2
	v1.3c0,0.4,0.3,0.7,0.7,0.7S12,13,12,12.7z M8,3.3c0,1.1-0.9,2-2,2c-1.1,0-2-0.9-2-2s0.9-2,2-2C7.1,1.3,8,2.2,8,3.3z"/>
<defs>
	<filter id="Adobe_OpacityMaskFilter" filterUnits="userSpaceOnUse">
		<feColorMatrix  type="matrix" values="1 0 0 0 0  0 1 0 0 0  0 0 1 0 0  0 0 0 1 0"/>
	</filter>
</defs>
<mask maskUnits="userSpaceOnUse" id="mask0_1_">
	<path class="st1" d="M6,6.7c-1.8,0-3.3-1.5-3.3-3.3S4.1,0,6,0c1.8,0,3.3,1.5,3.3,3.3S7.8,6.7,6,6.7z M12,12.7v-1.3
		C12,9.5,10.5,8,8.6,8H3.3C1.5,8,0,9.5,0,11.3v1.3c0,0.4,0.3,0.7,0.7,0.7s0.7-0.3,0.7-0.7v-1.3c0-1.1,0.9-2,2-2h5.3c1.1,0,2,0.9,2,2
		v1.3c0,0.4,0.3,0.7,0.7,0.7S12,13,12,12.7z M8,3.3c0,1.1-0.9,2-2,2c-1.1,0-2-0.9-2-2s0.9-2,2-2C7.1,1.3,8,2.2,8,3.3z"/>
</mask>
<g class="st2">
</g>
</svg>
