<svg width="16" height="16" viewBox="0 0 16 16" fill="none" xmlns="http://www.w3.org/2000/svg">
<path fill-rule="evenodd" clip-rule="evenodd" d="M7.97101 7.99967C6.13671 7.99967 4.64972 6.50729 4.64972 4.66634C4.64972 2.82539 6.13671 1.33301 7.97101 1.33301C9.80532 1.33301 11.2923 2.82539 11.2923 4.66634C11.2923 6.50729 9.80532 7.99967 7.97101 7.99967ZM13.9494 13.9997V12.6663C13.9494 10.8254 12.4624 9.33301 10.6281 9.33301H5.31398C3.47967 9.33301 1.99268 10.8254 1.99268 12.6663V13.9997C1.99268 14.3679 2.29008 14.6663 2.65694 14.6663C3.0238 14.6663 3.3212 14.3679 3.3212 13.9997V12.6663C3.3212 11.5618 4.21339 10.6663 5.31398 10.6663H10.6281C11.7286 10.6663 12.6208 11.5618 12.6208 12.6663V13.9997C12.6208 14.3679 12.9182 14.6663 13.2851 14.6663C13.652 14.6663 13.9494 14.3679 13.9494 13.9997ZM9.96379 4.66634C9.96379 5.77091 9.0716 6.66634 7.97101 6.66634C6.87043 6.66634 5.97824 5.77091 5.97824 4.66634C5.97824 3.56177 6.87043 2.66634 7.97101 2.66634C9.0716 2.66634 9.96379 3.56177 9.96379 4.66634Z" fill="#474747"/>
<mask id="mask0" mask-type="alpha" maskUnits="userSpaceOnUse" x="1" y="1" width="13" height="14">
<path fill-rule="evenodd" clip-rule="evenodd" d="M7.97101 7.99967C6.13671 7.99967 4.64972 6.50729 4.64972 4.66634C4.64972 2.82539 6.13671 1.33301 7.97101 1.33301C9.80532 1.33301 11.2923 2.82539 11.2923 4.66634C11.2923 6.50729 9.80532 7.99967 7.97101 7.99967ZM13.9494 13.9997V12.6663C13.9494 10.8254 12.4624 9.33301 10.6281 9.33301H5.31398C3.47967 9.33301 1.99268 10.8254 1.99268 12.6663V13.9997C1.99268 14.3679 2.29008 14.6663 2.65694 14.6663C3.0238 14.6663 3.3212 14.3679 3.3212 13.9997V12.6663C3.3212 11.5618 4.21339 10.6663 5.31398 10.6663H10.6281C11.7286 10.6663 12.6208 11.5618 12.6208 12.6663V13.9997C12.6208 14.3679 12.9182 14.6663 13.2851 14.6663C13.652 14.6663 13.9494 14.3679 13.9494 13.9997ZM9.96379 4.66634C9.96379 5.77091 9.0716 6.66634 7.97101 6.66634C6.87043 6.66634 5.97824 5.77091 5.97824 4.66634C5.97824 3.56177 6.87043 2.66634 7.97101 2.66634C9.0716 2.66634 9.96379 3.56177 9.96379 4.66634Z" fill="white"/>
</mask>
<g mask="url(#mask0)">
</g>
</svg>
