<svg width="20" height="25" viewBox="0 0 20 25" fill="none" xmlns="http://www.w3.org/2000/svg">
<path fill="#474747" fill-rule="evenodd" clip-rule="evenodd" d="M10.0002 1C4.47711 1 0 5.47689 0 11C0 16.5231 4.47711 21 10.0002 21C15.5227 21 20 16.5231 20 11C19.9998 5.47711 15.5227 1 10.0002 1ZM10.0002 2.98778C14.2064 2.98778 17.6531 6.23022 17.9833 10.3516C14.1131 10.2029 12.3136 8.64911 10.0002 8.64911C7.77178 8.64911 5.89644 10.2031 2.016 10.3516C2.34644 6.23022 5.79333 2.98778 10.0002 2.98778ZM8.29133 10.9998C8.29133 10.0562 9.056 9.29133 10 9.29133C10.9433 9.29133 11.7078 10.056 11.7078 10.9998C11.7078 11.9431 10.9433 12.7082 10 12.7082C9.056 12.7082 8.29133 11.9433 8.29133 10.9998ZM2.228 12.9498C3.51244 12.262 6.94067 10.7389 8.52089 13.0922C9.288 14.2349 8.54955 17.8158 8.31867 18.8342C5.33333 18.1962 2.96511 15.8971 2.228 12.9498ZM11.682 18.8336C11.4518 17.802 10.7056 14.1429 11.4789 13.092C13.2084 10.7416 16.5209 12.2462 17.774 12.94C17.0393 15.8916 14.67 18.1949 11.682 18.8336Z" />
</svg>
