<?xml version="1.0" encoding="utf-8"?>
<!-- Generator: Adobe Illustrator 25.2.1, SVG Export Plug-In . SVG Version: 6.00 Build 0)  -->
<svg version="1.1" id="Layer_1" xmlns="http://www.w3.org/2000/svg" xmlns:xlink="http://www.w3.org/1999/xlink" x="0px" y="0px"
	 viewBox="0 0 20 20" style="enable-background:new 0 0 20 20;" xml:space="preserve">
<style type="text/css">
	.st0{fill-rule:evenodd;clip-rule:evenodd;fill:#474747;}
</style>
<path class="st0" d="M10,0C4.5,0,0,4.5,0,10c0,5.5,4.5,10,10,10c5.5,0,10-4.5,10-10C20,4.5,15.5,0,10,0z M10,2c4.2,0,7.7,3.2,8,7.4
	c-3.9-0.1-5.7-1.7-8-1.7c-2.2,0-4.1,1.6-8,1.7C2.3,5.2,5.8,2,10,2z M8.3,10c0-0.9,0.8-1.7,1.7-1.7c0.9,0,1.7,0.8,1.7,1.7
	c0,0.9-0.8,1.7-1.7,1.7C9.1,11.7,8.3,10.9,8.3,10z M2.2,11.9c1.3-0.7,4.7-2.2,6.3,0.1c0.8,1.1,0,4.7-0.2,5.7
	C5.3,17.2,3,14.9,2.2,11.9z M11.7,17.8c-0.2-1-1-4.7-0.2-5.7c1.7-2.4,5-0.8,6.3-0.2C17,14.9,14.7,17.2,11.7,17.8z"/>
</svg>
