<svg width="53" height="53" viewBox="0 0 53 53" fill="none" xmlns="http://www.w3.org/2000/svg">
<circle cx="26.5" cy="26.5" r="26.5" fill="#7DDFC3"/>
<path d="M33.6842 14V17.3158H37V19.5263H33.6842V22.8421H31.4737V19.5263H28.1579V17.3158H31.4737V14H33.6842ZM24.8421 27.2632C23.6263 27.2632 22.6316 26.2684 22.6316 25.0526C22.6316 23.8368 23.6263 22.8421 24.8421 22.8421C26.0579 22.8421 27.0526 23.8368 27.0526 25.0526C27.0526 26.2684 26.0579 27.2632 24.8421 27.2632ZM25.9474 16.2768V18.5095C25.5818 18.4517 25.2122 18.4221 24.8421 18.4211C21.1395 18.4211 18.2105 21.2616 18.2105 25.2737C18.2105 27.86 20.3658 31.2863 24.8421 35.3758C29.3184 31.2863 31.4737 27.8711 31.4737 25.2737V25.0526H33.6842V25.2737C33.6842 28.9432 30.7332 33.2868 24.8421 38.3158C18.9511 33.2868 16 28.9432 16 25.2737C16 19.7695 20.2 16.2105 24.8421 16.2105C25.2179 16.2105 25.5826 16.2326 25.9474 16.2768Z" fill="black"/>
</svg>
