<svg width="53" height="53" viewBox="0 0 53 53" fill="none" xmlns="http://www.w3.org/2000/svg">
<circle cx="26.5" cy="26.5" r="26.5" fill="#FFE29D"/>
<path d="M23.6 16C22.327 16 21.1061 16.5057 20.2059 17.4059C19.3057 18.3061 18.8 19.527 18.8 20.8C18.8 22.073 19.3057 23.2939 20.2059 24.1941C21.1061 25.0943 22.327 25.6 23.6 25.6C24.873 25.6 26.0939 25.0943 26.9941 24.1941C27.8943 23.2939 28.4 22.073 28.4 20.8C28.4 19.527 27.8943 18.3061 26.9941 17.4059C26.0939 16.5057 24.873 16 23.6 16ZM23.6 18.4C24.2365 18.4 24.847 18.6529 25.2971 19.1029C25.7471 19.553 26 20.1635 26 20.8C26 21.4365 25.7471 22.047 25.2971 22.4971C24.847 22.9471 24.2365 23.2 23.6 23.2C22.9635 23.2 22.353 22.9471 21.9029 22.4971C21.4529 22.047 21.2 21.4365 21.2 20.8C21.2 20.1635 21.4529 19.553 21.9029 19.1029C22.353 18.6529 22.9635 18.4 23.6 18.4ZM23.6 26.8C20.396 26.8 14 28.396 14 31.6V35.2H25.4C25.098 34.4728 24.9078 33.7041 24.836 32.92H16.28V31.6C16.28 30.832 20.036 29.08 23.6 29.08C24.2 29.08 24.8 29.14 25.4 29.236C25.7079 28.4782 26.1331 27.7736 26.66 27.148C25.532 26.92 24.452 26.8 23.6 26.8ZM32.6 26.8C29.6 26.8 27.2 29.2 27.2 32.2C27.2 35.2 29.6 37.6 32.6 37.6C35.6 37.6 38 35.2 38 32.2C38 29.2 35.6 26.8 32.6 26.8ZM32.6 28.6C34.592 28.6 36.2 30.208 36.2 32.2C36.2 32.872 36.02 33.496 35.696 34L30.8 29.104C31.304 28.78 31.928 28.6 32.6 28.6ZM29.504 30.4L34.4 35.296C33.896 35.62 33.272 35.8 32.6 35.8C30.608 35.8 29 34.192 29 32.2C29 31.528 29.18 30.904 29.504 30.4Z" fill="black"/>
</svg>
