<svg width="53" height="53" viewBox="0 0 53 53" fill="none" xmlns="http://www.w3.org/2000/svg">
<circle cx="26.5" cy="26.5" r="26.5" fill="#FFCB8C"/>
<path d="M19.4068 26.9997C19.4068 30.9111 22.5886 34.0929 26.5001 34.0929C30.4115 34.0929 33.5933 30.9111 33.5933 26.9997C33.5933 23.0883 30.4115 19.9064 26.5001 19.9064C22.5886 19.9064 19.4068 23.0883 19.4068 26.9997ZM26.5001 22.7398C28.8489 22.7398 30.76 24.6508 30.76 26.9997C30.76 29.3485 28.8489 31.2596 26.5001 31.2596C24.1512 31.2596 22.2401 29.3485 22.2401 26.9997C22.2401 24.6508 24.1512 22.7398 26.5001 22.7398ZM25.0806 36.9163H27.9139V41.1663H25.0806V36.9163ZM25.0806 12.833H27.9139V17.083H25.0806V12.833ZM12.3306 25.583H16.5806V28.4163H12.3306V25.583ZM36.4139 25.583H40.6639V28.4163H36.4139V25.583Z" fill="black"/>
<path d="M15.4769 36.014L18.4803 33.0078L20.4848 35.011L17.4815 38.0171L15.4769 36.014Z" fill="black"/>
<path d="M32.5067 18.9876L35.5129 15.9814L37.516 17.9846L34.5099 20.9908L32.5067 18.9876Z" fill="black"/>
<path d="M18.4846 20.9918L15.4784 17.9856L17.483 15.9824L20.4863 18.9886L18.4846 20.9918Z" fill="black"/>
<path d="M37.516 36.0159L35.5129 38.0191L32.5067 35.0129L34.5099 33.0098L37.516 36.0159Z" fill="black"/>
</svg>
