<svg width="53" height="53" viewBox="0 0 53 53" fill="none" xmlns="http://www.w3.org/2000/svg">
<circle cx="26.5" cy="26.5" r="26.5" fill="#FF8B9D"/>
<path d="M25.6467 24.4964L26.0002 24.8499L26.3538 24.4964L33.3285 17.5216C34.2838 17.6311 34.7634 17.8372 35.0322 18.1192C35.2964 18.3965 35.444 18.8382 35.4907 19.6592L28.5036 26.6462L28.1501 26.9998L28.5036 27.3533L35.4952 34.3449C35.4631 35.2705 35.2936 35.7351 35.0251 36.0003C34.7524 36.2696 34.2731 36.4384 33.3409 36.4902L26.3538 29.5031L26.0002 29.1496L25.6467 29.5031L18.6683 36.4815C17.7667 36.3937 17.2841 36.2124 17.0018 35.9348C16.7272 35.6648 16.5529 35.2133 16.5084 34.3418L23.4969 27.3533L23.8504 26.9998L23.4969 26.6462L16.5008 19.6501C16.513 18.774 16.6699 18.3157 16.9376 18.0441C17.2116 17.766 17.7048 17.5775 18.6622 17.5119L25.6467 24.4964Z" fill="black" stroke="black" stroke-linecap="round"/>
</svg>
