<svg width="19" height="19" viewBox="0 0 19 19" fill="none" xmlns="http://www.w3.org/2000/svg">
<path fill-rule="evenodd" clip-rule="evenodd" d="M9.49992 7.67323L16.3366 0.836572C16.841 0.332145 17.6588 0.332145 18.1633 0.836572C18.6677 1.341 18.6677 2.15884 18.1633 2.66327L11.3266 9.49992L18.1633 16.3366C18.6677 16.841 18.6677 17.6588 18.1633 18.1633C17.6588 18.6677 16.841 18.6677 16.3366 18.1633L9.49992 11.3266L2.66327 18.1633C2.15884 18.6677 1.341 18.6677 0.836572 18.1633C0.332145 17.6588 0.332145 16.841 0.836572 16.3366L7.67323 9.49992L0.836572 2.66327C0.332145 2.15884 0.332145 1.341 0.836572 0.836572C1.341 0.332145 2.15884 0.332145 2.66327 0.836572L9.49992 7.67323Z" fill="black"/>
</svg>
