<svg width="53" height="53" viewBox="0 0 53 53" fill="none" xmlns="http://www.w3.org/2000/svg">
<circle cx="26.5" cy="26.5" r="26.5" fill="#FFCB8C"/>
<path fill-rule="evenodd" clip-rule="evenodd" d="M27.0002 16C21.4771 16 17 20.4769 17 26C17 31.5231 21.4771 36 27.0002 36C32.5227 36 37 31.5231 37 26C36.9998 20.4771 32.5227 16 27.0002 16ZM27.0002 17.9878C31.2064 17.9878 34.6531 21.2302 34.9833 25.3516C31.1131 25.2029 29.3136 23.6491 27.0002 23.6491C24.7718 23.6491 22.8964 25.2031 19.016 25.3516C19.3464 21.2302 22.7933 17.9878 27.0002 17.9878ZM25.2913 25.9998C25.2913 25.0562 26.056 24.2913 27 24.2913C27.9433 24.2913 28.7078 25.056 28.7078 25.9998C28.7078 26.9431 27.9433 27.7082 27 27.7082C26.056 27.7082 25.2913 26.9433 25.2913 25.9998ZM19.228 27.9498C20.5124 27.262 23.9407 25.7389 25.5209 28.0922C26.288 29.2349 25.5496 32.8158 25.3187 33.8342C22.3333 33.1962 19.9651 30.8971 19.228 27.9498ZM28.682 33.8336C28.4518 32.802 27.7056 29.1429 28.4789 28.092C30.2084 25.7416 33.5209 27.2462 34.774 27.94C34.0393 30.8916 31.67 33.1949 28.682 33.8336Z" fill="black"/>
</svg>
