<svg width="16" height="16" viewBox="0 0 16 16" fill="none" xmlns="http://www.w3.org/2000/svg">
<path fill-rule="evenodd" clip-rule="evenodd" d="M7.97114 7.99967C6.13683 7.99967 4.64984 6.50729 4.64984 4.66634C4.64984 2.82539 6.13683 1.33301 7.97114 1.33301C9.80544 1.33301 11.2924 2.82539 11.2924 4.66634C11.2924 6.50729 9.80544 7.99967 7.97114 7.99967ZM13.9495 13.9997V12.6663C13.9495 10.8254 12.4625 9.33301 10.6282 9.33301H5.3141C3.47979 9.33301 1.9928 10.8254 1.9928 12.6663V13.9997C1.9928 14.3679 2.2902 14.6663 2.65706 14.6663C3.02392 14.6663 3.32132 14.3679 3.32132 13.9997V12.6663C3.32132 11.5618 4.21352 10.6663 5.3141 10.6663H10.6282C11.7288 10.6663 12.621 11.5618 12.621 12.6663V13.9997C12.621 14.3679 12.9184 14.6663 13.2852 14.6663C13.6521 14.6663 13.9495 14.3679 13.9495 13.9997ZM9.96392 4.66634C9.96392 5.77091 9.07172 6.66634 7.97114 6.66634C6.87056 6.66634 5.97836 5.77091 5.97836 4.66634C5.97836 3.56177 6.87056 2.66634 7.97114 2.66634C9.07172 2.66634 9.96392 3.56177 9.96392 4.66634Z" fill="#474747"/>
<mask id="mask0" mask-type="alpha" maskUnits="userSpaceOnUse" x="1" y="1" width="13" height="14">
<path fill-rule="evenodd" clip-rule="evenodd" d="M7.97114 7.99967C6.13683 7.99967 4.64984 6.50729 4.64984 4.66634C4.64984 2.82539 6.13683 1.33301 7.97114 1.33301C9.80544 1.33301 11.2924 2.82539 11.2924 4.66634C11.2924 6.50729 9.80544 7.99967 7.97114 7.99967ZM13.9495 13.9997V12.6663C13.9495 10.8254 12.4625 9.33301 10.6282 9.33301H5.3141C3.47979 9.33301 1.9928 10.8254 1.9928 12.6663V13.9997C1.9928 14.3679 2.2902 14.6663 2.65706 14.6663C3.02392 14.6663 3.32132 14.3679 3.32132 13.9997V12.6663C3.32132 11.5618 4.21352 10.6663 5.3141 10.6663H10.6282C11.7288 10.6663 12.621 11.5618 12.621 12.6663V13.9997C12.621 14.3679 12.9184 14.6663 13.2852 14.6663C13.6521 14.6663 13.9495 14.3679 13.9495 13.9997ZM9.96392 4.66634C9.96392 5.77091 9.07172 6.66634 7.97114 6.66634C6.87056 6.66634 5.97836 5.77091 5.97836 4.66634C5.97836 3.56177 6.87056 2.66634 7.97114 2.66634C9.07172 2.66634 9.96392 3.56177 9.96392 4.66634Z" fill="white"/>
</mask>
<g mask="url(#mask0)">
</g>
</svg>
