<svg width="20" height="20" viewBox="0 0 20 20" fill="none" xmlns="http://www.w3.org/2000/svg">
<g clip-path="url(#clip0)">
<path d="M19.0902 7.875H17.2089V18.3636H19.0902V7.875Z" fill="black"/>
<path d="M13.6813 11.2617H11.7999V18.3639H13.6813V11.2617Z" fill="black"/>
<path d="M8.22536 14.7891H6.34399V18.3637H8.22536V14.7891Z" fill="black"/>
<path d="M2.81642 13.8008H0.935059V18.3631H2.81642V13.8008Z" fill="black"/>
<path d="M19.5464 2.28153C18.8738 1.50546 17.7027 1.4161 16.9219 2.08869C16.3622 2.57314 16.1412 3.3445 16.3622 4.05001L14.114 5.64447C13.4226 4.87781 12.2373 4.81667 11.4707 5.51277C10.8875 6.03956 10.6993 6.87206 10.9909 7.60109L8.8932 9.36957C8.34761 8.49003 7.19527 8.21724 6.31573 8.76283C5.92535 9.00741 5.63374 9.38368 5.50674 9.8258L3.72885 9.10618C3.58305 8.08084 2.63766 7.37062 1.61232 7.51172C0.586971 7.65283 -0.123244 8.60292 0.0178582 9.62826C0.163664 10.6536 1.10905 11.3638 2.13439 11.2227C2.86342 11.1192 3.46546 10.6019 3.67241 9.89636L5.4503 10.616C5.5867 11.6413 6.52738 12.3609 7.55273 12.2292C8.57807 12.0976 9.2977 11.1522 9.166 10.1268L11.4142 8.23135C12.148 8.96038 13.3332 8.95567 14.0623 8.22194C14.5655 7.71867 14.7348 6.97083 14.5044 6.29354L16.7291 4.71319C17.4017 5.48926 18.5728 5.57862 19.3536 4.90603C20.1344 4.23345 20.219 3.06229 19.5464 2.28153Z" fill="black"/>
</g>
<defs>
<clipPath id="clip0">
<rect width="20" height="20" fill="white"/>
</clipPath>
</defs>
</svg>
