<svg width="64" height="64" viewBox="0 0 64 64" fill="none" xmlns="http://www.w3.org/2000/svg">
<path d="M32 0C14.6528 0 0 14.6528 0 32C0 49.3472 14.6528 64 32 64C49.3472 64 64 49.3472 64 32C64 14.6528 49.3472 0 32 0ZM32 16C37.5264 16 41.6 20.0704 41.6 25.6C41.6 31.1296 37.5264 35.2 32 35.2C26.4768 35.2 22.4 31.1296 22.4 25.6C22.4 20.0704 26.4768 16 32 16ZM15.6608 47.2704C18.5312 43.0464 23.3184 40.2304 28.8 40.2304H35.2C40.6848 40.2304 45.4688 43.0464 48.3392 47.2704C44.2496 51.648 38.448 54.4 32 54.4C25.552 54.4 19.7504 51.648 15.6608 47.2704Z" fill="#9B9B9B"/>
</svg>
