<svg width="25" height="25" viewBox="0 0 25 25" fill="none" xmlns="http://www.w3.org/2000/svg">
<g clip-path="url(#clip0_261_110)">
<path fill-rule="evenodd" clip-rule="evenodd" d="M12.5 0C9.18479 0 6.00537 1.31696 3.66117 3.66117C1.31696 6.00537 0 9.18479 0 12.5C0 15.8152 1.31696 18.9946 3.66117 21.3388C6.00537 23.683 9.18479 25 12.5 25C15.8152 25 18.9946 23.683 21.3388 21.3388C23.683 18.9946 25 15.8152 25 12.5C25 9.18479 23.683 6.00537 21.3388 3.66117C18.9946 1.31696 15.8152 0 12.5 0ZM9.654 7.016H16.348L17.846 11.002H18C18.546 11.002 19 11.456 19 12.002V15.998C19 16.544 18.546 17.002 18 17.002H17.996V18.002H16.996V17.002H9V18.002H8V17.002C7.455 17.001 7 16.543 7 15.998V12.002C7 11.456 7.456 11.002 8.002 11.002H8.154L9.534 7.34L9.654 7.016ZM10.348 8.016L9.223 11.002H16.779L15.654 8.016H10.348ZM8 12.002V15.998H18V12.002H8ZM10 12.998C10.2652 12.998 10.5196 13.1034 10.7071 13.2909C10.8946 13.4784 11 13.7328 11 13.998C11 14.2632 10.8946 14.5176 10.7071 14.7051C10.5196 14.8926 10.2652 14.998 10 14.998C9.73478 14.998 9.48043 14.8926 9.29289 14.7051C9.10536 14.5176 9 14.2632 9 13.998C9 13.7328 9.10536 13.4784 9.29289 13.2909C9.48043 13.1034 9.73478 12.998 10 12.998ZM16 12.998C16.2652 12.998 16.5196 13.1034 16.7071 13.2909C16.8946 13.4784 17 13.7328 17 13.998C17 14.2632 16.8946 14.5176 16.7071 14.7051C16.5196 14.8926 16.2652 14.998 16 14.998C15.7348 14.998 15.4804 14.8926 15.2929 14.7051C15.1054 14.5176 15 14.2632 15 13.998C15 13.7328 15.1054 13.4784 15.2929 13.2909C15.4804 13.1034 15.7348 12.998 16 12.998Z" fill="black"/>
</g>
<defs>
<clipPath id="clip0_261_110">
<rect width="25" height="25" fill="white"/>
</clipPath>
</defs>
</svg>
