<svg width="19" height="20" viewBox="0 0 19 20" fill="none" xmlns="http://www.w3.org/2000/svg">
<path d="M8.0406 9.1996C7.19453 9.1996 6.36747 8.94871 5.66399 8.47866C4.96051 8.00862 4.41222 7.34052 4.08845 6.55886C3.76467 5.7772 3.67996 4.91708 3.84502 4.08727C4.01007 3.25746 4.41749 2.49523 5.01575 1.89698C5.61401 1.29872 6.37624 0.8913 7.20604 0.726241C8.03585 0.561182 8.89597 0.645896 9.67763 0.969671C10.4593 1.29345 11.1274 1.84174 11.5974 2.54522C12.0675 3.24869 12.3184 4.07576 12.3184 4.92182C12.3184 6.05636 11.8677 7.14443 11.0654 7.94667C10.2632 8.74891 9.17513 9.1996 8.0406 9.1996ZM8.0406 1.91516C7.43627 1.91516 6.84551 2.09436 6.34302 2.43011C5.84054 2.76586 5.4489 3.24307 5.21763 3.8014C4.98636 4.35973 4.92585 4.9741 5.04375 5.56682C5.16165 6.15954 5.45267 6.70399 5.87999 7.13132C6.30732 7.55864 6.85177 7.84966 7.44449 7.96756C8.03721 8.08545 8.65158 8.02494 9.20991 7.79368C9.76824 7.56241 10.2455 7.17077 10.5812 6.66829C10.9169 6.1658 11.0962 5.57504 11.0962 4.97071C11.0962 4.56945 11.0171 4.17212 10.8636 3.8014C10.71 3.43068 10.4849 3.09384 10.2012 2.81011C9.91747 2.52637 9.58062 2.3013 9.20991 2.14775C8.83919 1.99419 8.44186 1.91516 8.0406 1.91516Z" fill="black"/>
<path d="M11.4444 9.93888C8.13736 9.19472 4.67762 9.55314 1.59333 10.9594C1.16915 11.1621 0.811266 11.481 0.561344 11.8791C0.311423 12.2773 0.17975 12.7382 0.181661 13.2083V16.8444C0.181661 16.9247 0.197468 17.0042 0.228179 17.0783C0.25889 17.1524 0.303904 17.2198 0.360651 17.2766C0.417398 17.3333 0.484767 17.3783 0.55891 17.409C0.633054 17.4397 0.71252 17.4555 0.792772 17.4555C0.873025 17.4555 0.952491 17.4397 1.02663 17.409C1.10078 17.3783 1.16815 17.3333 1.22489 17.2766C1.28164 17.2198 1.32665 17.1524 1.35737 17.0783C1.38808 17.0042 1.40388 16.9247 1.40388 16.8444V13.2083C1.39856 12.9704 1.46281 12.7361 1.58873 12.5342C1.71466 12.3323 1.89679 12.1715 2.11277 12.0717C3.97071 11.2138 5.99413 10.7736 8.04055 10.7822C9.18719 10.7807 10.3299 10.9162 11.4444 11.1855V9.93888Z" fill="black"/>
<path d="M11.53 15.7505H15.2823V16.606H11.53V15.7505Z" fill="black"/>
<path d="M18.2706 12.1208H15.1112V13.343H17.6595V18.458H9.00005V13.343H12.8501V13.5997C12.8501 13.7617 12.9144 13.9172 13.029 14.0318C13.1437 14.1464 13.2991 14.2108 13.4612 14.2108C13.6232 14.2108 13.7787 14.1464 13.8933 14.0318C14.0079 13.9172 14.0723 13.7617 14.0723 13.5997V11.2224C14.0723 11.0604 14.0079 10.9049 13.8933 10.7903C13.7787 10.6757 13.6232 10.6113 13.4612 10.6113C13.2991 10.6113 13.1437 10.6757 13.029 10.7903C12.9144 10.9049 12.8501 11.0604 12.8501 11.2224V12.1208H8.38894C8.22687 12.1208 8.07143 12.1852 7.95682 12.2998C7.84222 12.4144 7.77783 12.5698 7.77783 12.7319V19.0691C7.77783 19.2312 7.84222 19.3866 7.95682 19.5012C8.07143 19.6158 8.22687 19.6802 8.38894 19.6802H18.2706C18.4327 19.6802 18.5881 19.6158 18.7027 19.5012C18.8173 19.3866 18.8817 19.2312 18.8817 19.0691V12.7319C18.8817 12.5698 18.8173 12.4144 18.7027 12.2998C18.5881 12.1852 18.4327 12.1208 18.2706 12.1208Z" fill="black"/>
</svg>
