<?xml version="1.0" standalone="no"?>
<!DOCTYPE svg PUBLIC "-//W3C//DTD SVG 20010904//EN"
 "http://www.w3.org/TR/2001/REC-SVG-20010904/DTD/svg10.dtd">
<svg version="1.0" xmlns="http://www.w3.org/2000/svg"
 width="88.000000pt" height="88.000000pt" viewBox="0 0 88.000000 88.000000"
 preserveAspectRatio="xMidYMid meet">

<g transform="translate(0.000000,88.000000) scale(0.100000,-0.100000)"
fill="#000000" stroke="none">
<path d="M220 747 c-259 -99 -262 -102 -124 -154 l91 -34 -14 -52 c-7 -28 -13
-78 -13 -110 l0 -59 33 6 c106 20 151 18 199 -8 l48 -25 47 25 c49 26 94 28
201 8 l32 -6 0 59 c0 32 -6 82 -13 110 -14 52 -14 52 12 62 14 5 34 12 44 16
16 7 17 -5 17 -160 0 -161 -1 -168 -24 -195 -27 -33 -43 -129 -26 -160 9 -16
21 -20 68 -20 81 0 85 5 80 84 -3 47 -10 74 -26 95 -21 28 -22 40 -22 206 l0
175 26 10 c57 22 27 42 -196 127 -118 45 -217 82 -220 82 -3 0 -102 -37 -220
-82z m382 -34 c84 -31 157 -59 161 -63 4 -4 -67 -35 -158 -69 l-165 -62 -165
62 c-91 34 -163 64 -160 68 8 8 307 120 322 120 7 1 81 -24 165 -56z m-191
-236 c32 -9 48 -6 125 23 49 18 94 35 100 37 6 2 16 -19 22 -47 20 -88 22 -86
-61 -82 -60 3 -81 0 -115 -17 l-42 -21 -42 21 c-34 17 -55 20 -116 17 l-74 -3
7 49 c11 87 14 89 93 59 37 -14 83 -31 103 -36z m419 -344 c0 -18 -6 -23 -25
-23 -21 0 -25 5 -25 31 0 17 5 40 12 52 11 22 12 22 24 -8 7 -16 13 -40 14
-52z"/>
</g>
</svg>
