<svg width="20" height="20" viewBox="0 0 20 20" fill="none" xmlns="http://www.w3.org/2000/svg">
<path d="M19.6003 4.94497L15.0558 0.399929C14.7983 0.142031 14.4556 0 14.0907 0C13.3388 0 12.7271 0.611677 12.7271 1.36364C12.7271 1.63747 12.808 1.89908 12.9578 2.12199C9.00735 6.09039 6.55386 8.8506 6.38094 12.3334L2.34453 16.3698C2.25299 16.3552 2.15682 16.3682 2.06924 16.4115L0.251047 17.3207C0.120521 17.3859 0.0291146 17.5102 0.00601798 17.6545C-0.0179735 17.7987 0.0300095 17.9452 0.132964 18.0486L1.95116 19.8668C2.03728 19.953 2.15268 20 2.27255 20C2.29655 20 2.32139 19.9982 2.34534 19.9942C2.48916 19.9707 2.61346 19.8793 2.67913 19.7488L3.58821 17.9306C3.6321 17.8432 3.64535 17.7468 3.63044 17.6549L7.66557 13.6198C11.15 13.455 13.7978 11.1052 17.8774 7.04259C18.0999 7.19216 18.3617 7.27275 18.6362 7.27275C19.3881 7.27275 19.9998 6.66107 19.9998 5.90911C19.9998 5.5451 19.8578 5.2024 19.6003 4.94497ZM8.25978 11.7396C8.45379 10.5482 9.02392 9.40739 9.98341 8.11386L11.8862 10.0163C10.5925 10.9759 9.45147 11.546 8.25978 11.7396ZM13.3081 8.86726L11.1324 6.69188C11.9675 5.73384 13.0034 4.6587 14.2265 3.42776L16.572 5.77351C15.3412 6.9964 14.2661 8.03212 13.3081 8.86726Z" fill="black"/>
</svg>
