<svg width="20" height="20" viewBox="0 0 20 20" fill="none" xmlns="http://www.w3.org/2000/svg">
<g clip-path="url(#clip0)">
<path d="M10.0001 5.06912C7.28117 5.06912 5.06924 7.28105 5.06924 10C5.06924 12.719 7.28117 14.9309 10.0001 14.9309C12.7191 14.9309 14.931 12.719 14.931 10C14.931 7.28105 12.7191 5.06912 10.0001 5.06912ZM10.0001 13.4357C8.10588 13.4357 6.56446 11.8942 6.56446 10C6.56446 8.10576 8.10588 6.56434 10.0001 6.56434C11.8944 6.56434 13.4358 8.10576 13.4358 10C13.4358 11.8942 11.8944 13.4357 10.0001 13.4357Z" fill="black" stroke="black" stroke-width="0.3"/>
<path d="M19.5294 7.72278L17.9922 7.38861C17.8586 6.97937 17.693 6.5802 17.4976 6.19568L18.3485 4.87198C18.5005 4.63547 18.4671 4.32495 18.2684 4.12628L15.8737 1.73157C15.675 1.5329 15.3645 1.49948 15.128 1.65146L13.8043 2.50244C13.4198 2.30698 13.0206 2.14142 12.6114 2.00775L12.2772 0.470581C12.2176 0.195923 11.9743 0 11.6933 0H8.30673C8.02567 0 7.78244 0.195923 7.72278 0.470581L7.38861 2.00775C6.97937 2.14142 6.5802 2.30698 6.19568 2.50244L4.87198 1.65146C4.63547 1.49948 4.32495 1.5329 4.12628 1.73157L1.73157 4.12628C1.5329 4.32495 1.49948 4.63547 1.65146 4.87198L2.50244 6.19568C2.30698 6.5802 2.14142 6.97937 2.00775 7.38861L0.470581 7.72278C0.195923 7.78259 0 8.02567 0 8.30673V11.6933C0 11.9743 0.195923 12.2174 0.470581 12.2772L2.00775 12.6114C2.14142 13.0206 2.30698 13.4198 2.50244 13.8043L1.65146 15.128C1.49948 15.3645 1.5329 15.675 1.73157 15.8737L4.12628 18.2684C4.32495 18.4671 4.63547 18.5005 4.87198 18.3485L6.19568 17.4976C6.5802 17.693 6.97937 17.8586 7.38861 17.9922L7.72278 19.5294C7.78244 19.8041 8.02567 20 8.30673 20H11.6933C11.9743 20 12.2176 19.8041 12.2772 19.5294L12.6114 17.9922C13.0206 17.8586 13.4198 17.693 13.8043 17.4976L15.128 18.3485C15.3645 18.5005 15.675 18.4673 15.8737 18.2684L18.2684 15.8737C18.4671 15.675 18.5005 15.3645 18.3485 15.128L17.4976 13.8043C17.693 13.4198 17.8586 13.0206 17.9922 12.6114L19.5294 12.2772C19.8041 12.2174 20 11.9743 20 11.6933V8.30673C20 8.02567 19.8041 7.78259 19.5294 7.72278ZM18.8048 11.2115L17.3953 11.5179C17.1788 11.5651 17.0061 11.7281 16.9466 11.9414C16.7917 12.4969 16.5689 13.0342 16.2845 13.5382C16.1755 13.7312 16.1823 13.9687 16.3022 14.1551L17.0827 15.3691L15.3693 17.0827L14.1551 16.3022C13.9687 16.1823 13.7312 16.1755 13.5384 16.2845C13.0342 16.5689 12.4969 16.7917 11.9414 16.9466C11.7281 17.0061 11.5651 17.1788 11.5179 17.3953L11.2115 18.8048H8.78845L8.48206 17.3953C8.43491 17.1788 8.27194 17.0061 8.05862 16.9466C7.50305 16.7917 6.96579 16.5689 6.46179 16.2845C6.26877 16.1755 6.03134 16.1824 5.84488 16.3022L4.63089 17.0827L2.91748 15.3691L3.69781 14.1551C3.81775 13.9687 3.82462 13.7312 3.71567 13.5382C3.43124 13.0342 3.20847 12.4969 3.05344 11.9414C2.99393 11.7281 2.82135 11.5651 2.60483 11.5179L1.19522 11.2115V8.78845L2.60468 8.48206C2.8212 8.43491 2.99393 8.27194 3.05344 8.05862C3.20831 7.50305 3.43109 6.96579 3.71552 6.46179C3.82446 6.26877 3.81775 6.03134 3.69781 5.84488L2.91733 4.63089L4.63074 2.91733L5.84488 3.69781C6.03134 3.81775 6.26877 3.82446 6.46164 3.71552C6.96579 3.43109 7.50305 3.20831 8.05862 3.05344C8.27194 2.99393 8.43491 2.8212 8.48206 2.60468L8.78845 1.19522H11.2115L11.5179 2.60468C11.5651 2.8212 11.7281 2.99393 11.9414 3.05344C12.4969 3.20831 13.0342 3.43109 13.5382 3.71552C13.7312 3.82446 13.9687 3.8176 14.1551 3.69781L15.3691 2.91733L17.0825 4.63089L16.3022 5.84488C16.1823 6.03134 16.1754 6.26877 16.2843 6.46179C16.5689 6.96579 16.7915 7.50305 16.9466 8.05862C17.0061 8.27194 17.1786 8.43491 17.3952 8.48206L18.8048 8.78845V11.2115Z" fill="black" stroke="black" stroke-width="0.5"/>
</g>
<defs>
<clipPath id="clip0">
<rect width="20" height="20" fill="white"/>
</clipPath>
</defs>
</svg>
