<svg width="20" height="20" viewBox="0 0 20 20" fill="none" xmlns="http://www.w3.org/2000/svg">
<path d="M14.0178 6.58398H13.0102C12.7911 6.58398 12.5827 6.68926 12.4538 6.86973L9.07644 11.5533L7.54676 9.43066C7.41785 9.25234 7.2116 9.14492 6.99031 9.14492H5.98269C5.84305 9.14492 5.7614 9.30391 5.84305 9.41777L8.52 13.1303C8.58324 13.2185 8.6666 13.2905 8.76319 13.3401C8.85977 13.3897 8.96679 13.4156 9.07537 13.4156C9.18395 13.4156 9.29097 13.3897 9.38755 13.3401C9.48414 13.2905 9.5675 13.2185 9.63074 13.1303L14.1553 6.85684C14.2391 6.74297 14.1575 6.58398 14.0178 6.58398Z" fill="#00C48C"/>
<path d="M10 0.375C4.68477 0.375 0.375 4.68477 0.375 10C0.375 15.3152 4.68477 19.625 10 19.625C15.3152 19.625 19.625 15.3152 19.625 10C19.625 4.68477 15.3152 0.375 10 0.375ZM10 17.9922C5.58711 17.9922 2.00781 14.4129 2.00781 10C2.00781 5.58711 5.58711 2.00781 10 2.00781C14.4129 2.00781 17.9922 5.58711 17.9922 10C17.9922 14.4129 14.4129 17.9922 10 17.9922Z" fill="#00C48C"/>
</svg>
