<svg width="20" height="22" viewBox="0 0 20 22" fill="none" xmlns="http://www.w3.org/2000/svg">
<path fill-rule="evenodd" clip-rule="evenodd" d="M12.7071 0.291917L16.7071 4.29192C17.0976 4.68244 17.0976 5.31561 16.7071 5.70613L5.70711 16.7061C5.51957 16.8937 5.26522 16.999 5 16.999H1C0.447715 16.999 0 16.5513 0 15.999V11.999C0 11.7338 0.105357 11.4795 0.292893 11.2919L11.2929 0.291917C11.6834 -0.0986076 12.3166 -0.0986076 12.7071 0.291917ZM12 2.41417L2.00003 12.4142V15H4.58582L14.5858 4.99995L12 2.41417ZM19 21.9997H1C0.447715 21.9997 0 21.5519 0 20.9997C0 20.4474 0.447715 19.9997 1 19.9997H19C19.5523 19.9997 20 20.4474 20 20.9997C20 21.5519 19.5523 21.9997 19 21.9997Z" fill="#808080"/>
</svg>
